<svg width="268" height="126" viewBox="0 0 268 126" fill="none" xmlns="http://www.w3.org/2000/svg">
<path d="M76.7348 1.43151C76.7575 0.853377 76.8595 -0.212209 77.6984 0.0371838C78.1971 0.456617 77.5963 1.30682 77.687 1.82261C77.5963 2.45176 77.4773 3.12058 77.6757 3.74406C77.687 3.84042 77.7097 4.02746 77.721 4.12382C77.7324 4.51491 77.7097 4.91734 77.8061 5.30277C78.0044 7.79669 78.3672 10.285 78.7073 12.7675C78.7356 12.9999 78.4069 13.0396 78.2595 13.153C77.704 13.119 77.517 12.4218 77.5227 11.9683C77.2733 9.59345 76.9275 7.21856 76.7291 4.83232C76.7348 3.69872 76.7348 2.56512 76.7291 1.43151H76.7348Z" fill="#F7F7F7"/>
<path d="M108.906 2.41212C108.561 1.40888 109.898 1.09147 110.579 1.29552C111.338 1.69228 111.837 2.39512 112.081 3.21698C112.534 4.719 111.599 6.14167 110.579 7.14491C110.539 7.20159 110.465 7.30362 110.426 7.3603C111.338 7.34329 112.29 7.51333 113.191 7.29228C113.928 7.22993 114.631 6.91819 115.385 6.9692C115.629 7.10523 115.578 7.40564 115.538 7.63236C114.977 8.23317 114.081 8.25017 113.328 8.41455C112.126 8.37487 110.924 8.34653 109.723 8.40321C109.621 8.40321 109.411 8.39187 109.303 8.3862C108.731 8.23317 107.892 8.65827 107.512 8.05179C107.399 7.56434 107.886 7.01455 108.425 7.16192C109.638 6.82184 110.562 5.8186 111.009 4.66799C111.412 3.84046 110.958 2.83722 110.289 2.29876C109.944 2.14572 109.74 2.42346 109.564 2.66718C109.332 2.7522 108.901 2.74086 108.906 2.41212Z" fill="#F7F7F7"/>
<path d="M112.636 16.9222C112.772 16.5708 113.316 16.7068 113.469 16.9902C113.469 17.2453 113.458 17.7611 113.458 18.0161L113.418 18.2542C113.288 18.7473 113.288 19.2404 113.407 19.7335C113.526 20.6234 113.634 21.5133 113.736 22.3975C114.189 21.9781 114.779 21.6323 115.419 21.6833C116.53 21.7117 117.992 22.1651 118.208 23.4291C118.242 24.2566 117.505 24.8177 116.847 25.1805C116.445 25.2882 116.059 25.4582 115.68 25.6226C114.359 25.8436 112.874 26.2121 111.65 25.4639C111.185 25.3109 111.389 24.3813 111.882 24.523C112.438 24.676 112.987 24.8121 113.571 24.8007C113.962 24.9424 114.302 24.9084 114.591 24.6987C115.47 24.5117 116.445 24.2736 117.097 23.6274C117.153 23.1513 116.462 22.9813 116.082 22.8736C115.691 22.9586 114.943 22.5505 114.699 23.072C114.489 23.4914 114.348 24.0639 113.86 24.2339C113.498 24.3359 113.265 24.0129 113.072 23.7635C112.721 22.7829 112.732 21.723 112.455 20.7254C112.443 20.6574 112.421 20.5214 112.404 20.4534C112.46 19.5805 112.46 18.7019 112.415 17.8234C112.449 17.5117 112.528 17.2056 112.642 16.9109L112.636 16.9222Z" fill="#F7F7F7"/>
<path d="M102.825 19.4615C103.085 19.0874 103.698 19.2971 103.8 19.7109C104.055 20.5951 104.281 21.485 104.542 22.3692C105.064 22.5676 105.625 22.5732 106.18 22.5902C107.223 22.6696 108.334 22.8396 109.366 22.5902C109.638 22.5619 109.91 22.5506 110.182 22.5449C110.21 22.5959 110.261 22.6923 110.284 22.7433C110.732 23.6388 109.7 23.5311 109.224 23.7352C108.442 23.7012 107.665 23.6615 106.883 23.7238C106.197 23.6105 105.506 23.4971 104.803 23.5425C104.99 24.302 105.166 25.0615 105.341 25.8267C105.596 26.2461 105.285 26.6655 104.933 26.8129C104.4 26.7109 104.366 26.1157 104.213 25.6963C104.055 24.8914 103.896 24.0809 103.635 23.3044C102.938 23.0833 102.071 23.1344 101.555 22.5279C101.515 22.3408 101.646 22.1765 101.702 22.0064C102.275 21.9497 102.842 22.1085 103.391 22.2445C103.238 21.3149 102.762 20.4421 102.819 19.4785L102.825 19.4615Z" fill="#F7F7F7"/>
<path d="M116.428 0.757012C116.706 0.331911 117.357 0.609645 117.647 0.904381C118.672 1.92462 119.868 2.74082 120.985 3.65337C121.342 3.44932 121.688 3.19426 121.949 2.87118C122.81 2.22503 123.598 1.48252 124.233 0.598308C124.618 0.45094 125.043 0.700333 124.913 1.14811C124.34 2.50843 122.918 3.22827 121.96 4.29952C121.835 4.48656 122.079 4.61126 122.187 4.71329C123.025 5.3311 123.672 6.1643 124.511 6.78778C124.913 7.13919 125.548 7.63798 125.191 8.22745C124.516 8.36915 124.017 7.87037 123.598 7.41693C122.94 6.82179 122.272 6.24365 121.654 5.6145C121.427 5.41045 121.212 4.97401 120.849 5.14405C120.072 5.63717 119.296 6.37968 118.293 6.22665C117.987 6.05094 118.128 5.65985 118.31 5.44446C118.916 5.11005 119.545 4.80964 120.084 4.37321C119.064 3.23394 117.596 2.44041 116.547 1.27847C116.445 1.11976 116.371 0.932721 116.428 0.740008V0.757012Z" fill="#F6F6F6"/>
<path d="M103.267 0.887306C103.545 0.779614 103.76 0.983662 103.919 1.18771C103.873 1.68083 103.754 2.16828 103.834 2.67273C103.834 3.25654 103.743 3.87435 103.902 4.45249C103.93 4.82091 103.947 5.18933 103.958 5.55775C104.638 5.53508 105.455 4.82091 106.055 5.43305C106.106 6.37961 104.718 6.33427 104.1 6.57799C104.049 7.55856 104.31 8.52779 104.355 9.50835C104.23 9.66706 104.089 9.80876 103.919 9.91645C103.267 9.79176 103.068 9.09459 103.131 8.49378C103.108 8.23305 103.085 7.97232 103.051 7.71159C103.074 7.3205 103.091 6.92941 103.091 6.53832C102.734 6.56666 102.008 6.62333 101.651 6.65167C100.977 6.65167 100.212 6.85006 99.5996 6.49864C99.4182 6.26058 99.3558 5.94317 99.5429 5.68244C100.614 5.56908 101.827 5.92617 102.842 5.58042C102.989 5.12131 102.995 4.62819 102.853 4.10107C102.83 3.88568 102.802 3.67597 102.768 3.46625C102.796 2.92212 102.825 2.37799 102.779 1.83386C102.825 1.47111 103 1.1367 103.272 0.89864L103.267 0.887306Z" fill="#F8F8F8"/>
<path d="M81.1615 2.04361C81.5016 1.59017 82.0117 1.32377 82.5275 1.12539C82.7883 1.11972 83.3097 1.10838 83.5648 1.09705C85.0101 1.66952 85.7526 3.09219 86.3194 4.44117C86.4271 4.8096 86.5348 5.17235 86.6879 5.52377C87.3 5.60879 87.8101 5.18935 88.3599 4.9853C88.7057 5.05899 88.8757 5.46142 88.7567 5.79016C88.3372 6.27761 87.6457 6.30595 87.0903 6.56101C87.0733 7.36587 87.2943 8.14806 87.4927 8.91891C87.5267 9.51972 87.5947 10.1205 87.5834 10.727C87.4474 11.1918 87.283 11.9966 86.5462 11.6169C86.2684 11.4412 86.4101 11.0784 86.3874 10.812C86.5065 10.3189 86.5121 9.82579 86.4101 9.33267C86.3138 8.53348 86.1437 7.73996 85.9227 6.96911C84.8911 7.13348 83.9332 7.72295 82.8676 7.65494C82.4878 7.38287 82.7089 6.7934 83.1113 6.67437C83.9389 6.37964 84.8061 6.2096 85.6449 5.9262C85.2312 4.52053 84.7494 2.72377 83.2474 2.14563C82.6069 1.93592 82.2101 2.45737 81.7964 2.80312C81.3769 3.04118 80.7818 2.58207 81.1672 2.04361H81.1615Z" fill="#F5F5F5"/>
<path d="M91.7097 5.23485C92.0385 4.07858 93.2061 3.51745 94.2887 3.25672C94.5494 3.24538 95.0652 3.22838 95.3259 3.21704C95.598 3.39842 96.0287 3.58546 96.0061 3.97088C95.9267 4.14092 95.802 4.28263 95.7 4.44133C95.3146 4.39032 94.9632 4.05024 94.5721 4.23162C93.6538 4.45267 92.2822 5.11015 92.832 6.30044C93.3364 7.49072 94.3 8.57898 95.5696 8.96441C96.2555 9.33849 97.0603 8.48829 97.7065 8.96441C97.8935 9.66157 97.1057 9.88262 96.6125 10.115C96.2101 10.1093 95.8077 10.1037 95.4109 10.098C94.3 9.77493 93.3421 9.00408 92.6563 8.08586C92.2425 7.54173 91.8968 6.93526 91.7267 6.2721C91.7267 6.01137 91.721 5.48991 91.7154 5.23485H91.7097Z" fill="#F5F5F5"/>
<path d="M97.032 20.442C97.4287 20.3797 97.8198 20.8388 97.6668 21.2299C97.3097 22.3918 96.3235 23.208 95.717 24.2396C96.7372 24.9027 97.9672 25.1408 98.9761 25.8096C98.9534 26.0477 99.0498 26.3481 98.8117 26.5068C97.7291 26.6145 96.8449 25.8663 95.887 25.5035C95.5696 25.3902 95.2806 25.0161 94.9235 25.1408C94.1866 25.8266 93.5235 26.6598 92.5656 27.0396C91.9704 27.4873 91.7267 26.8072 91.7834 26.4161C92.4862 25.7869 93.3704 25.3505 93.9089 24.5456C92.849 23.8031 91.67 23.191 90.6441 22.3805C90.6158 22.2104 90.6158 22.0404 90.6441 21.876C90.8765 21.4906 91.3866 21.791 91.7324 21.876C92.4862 22.5222 93.3761 22.9813 94.215 23.4971C94.402 23.5991 94.6061 23.7521 94.8328 23.6671C95.4109 22.8679 96.1081 22.1594 96.5502 21.2695C96.7032 20.9975 96.7826 20.6687 97.0263 20.4533L97.032 20.442Z" fill="#F5F5F5"/>
<path d="M77.6757 3.74409C77.4773 3.12061 77.5963 2.45178 77.687 1.82263C77.7097 2.45745 77.7891 3.10927 77.6757 3.74409Z" fill="#BEBEBE"/>
<path d="M91.7267 6.27199C91.4263 6.01693 91.5 5.53515 91.7154 5.23474C91.7154 5.49547 91.7267 6.01693 91.7267 6.27199Z" fill="#706F6F"/>
<path d="M101.646 6.64046C102.008 6.61212 102.728 6.55544 103.085 6.5271C103.085 6.91819 103.074 7.30929 103.046 7.70038C102.978 7.36597 102.932 7.03155 102.921 6.69147C102.496 6.64613 102.065 6.6518 101.646 6.64046Z" fill="#706F6F"/>
<path d="M99.5882 5.56352C100.665 5.49551 101.753 5.55219 102.836 5.57486C101.821 5.91494 100.603 5.55785 99.5372 5.67688L99.5882 5.56919V5.56352Z" fill="#6D6D6D"/>
<path d="M129.062 12.229C129.323 12.2404 129.668 12.11 129.844 12.3707C130.184 12.6541 130.037 13.2039 129.583 13.2493C129.192 13.0339 128.858 13.0566 128.586 13.3116C123.74 13.8954 118.916 14.6946 114.064 15.2614C110.193 15.7772 106.305 16.208 102.428 16.6387C101.974 16.6217 101.515 16.5367 101.079 16.6897C100.915 16.7238 100.75 16.7521 100.591 16.7861C100.002 16.7748 99.3955 16.6897 98.8174 16.8371C98.5567 16.8711 98.2959 16.8938 98.0352 16.9165C97.2587 16.8938 96.4765 16.8428 95.7057 16.9845C95.4789 17.0015 95.0142 17.0468 94.7874 17.0638C94.0563 17.0752 93.2968 16.8881 92.5882 17.1148C92.4239 17.1375 92.2595 17.1545 92.0895 17.1772C92.0214 17.1772 91.8797 17.1942 91.8117 17.1942C91.1769 17.2282 90.5081 17.0355 89.8959 17.2565C89.6862 17.2849 89.4765 17.3132 89.2668 17.3416C88.6773 17.3246 88.0708 17.2452 87.4927 17.3926C87.232 17.4266 86.9712 17.4493 86.7105 17.4719C85.934 17.4493 85.1518 17.3926 84.381 17.5456C84.1486 17.5626 83.9105 17.5796 83.6781 17.5966C83.5874 17.6023 83.4117 17.6136 83.321 17.6193C82.4935 17.5966 81.6546 17.5003 80.8328 17.676C80.5721 17.71 80.317 17.7327 80.0563 17.7553C79.4668 17.7553 78.8603 17.676 78.2822 17.8177C78.1178 17.846 77.9534 17.8744 77.7891 17.897C77.3356 17.8857 76.8708 17.795 76.4401 17.9651C75.4028 18.0217 74.3599 18.1011 73.3283 18.2314C71.1121 18.4525 68.8676 18.4978 66.6798 18.9343C66.4587 18.9683 66.2377 18.991 66.0166 19.008C65.8239 18.7812 65.5348 18.4015 65.8862 18.1691C66.5891 17.6533 67.5526 17.7667 68.3745 17.5343C68.7769 17.5343 69.1907 17.6136 69.5818 17.4776C70.0749 17.4096 70.5794 17.4039 71.0668 17.2792C71.6846 17.3019 72.3024 17.2395 72.9032 17.1035C73.351 17.1149 73.8215 17.2112 74.2522 17.0468C74.887 16.9845 75.5332 16.9561 76.1567 16.8201C76.6498 16.8315 77.1713 16.9448 77.6474 16.7691C77.7324 16.7464 77.9081 16.7011 77.9988 16.6784C78.5883 16.6898 79.1947 16.7578 79.7729 16.6274C79.9826 16.5934 80.1923 16.5651 80.402 16.531C81.2692 16.5197 82.1761 16.7124 83.0263 16.48C83.2814 16.446 83.5421 16.4234 83.8028 16.3893C84.7154 16.3723 85.6676 16.5821 86.5688 16.344C86.7332 16.31 86.8919 16.276 87.0563 16.2476C87.7364 16.2363 88.4506 16.4177 89.1138 16.2023C89.2781 16.1683 89.4368 16.1343 89.6012 16.1059C90.2304 16.0833 90.9048 16.2703 91.5227 16.0549C91.7324 16.0209 91.9478 15.9982 92.1575 15.9756C92.934 15.9926 93.7162 16.0606 94.487 15.9076C94.5494 15.9019 94.6684 15.8849 94.7308 15.8736L95.1219 15.8225C95.9891 15.8112 96.8959 16.0096 97.7518 15.7715C97.9615 15.7432 98.1769 15.7148 98.3866 15.6922C99.0611 15.6582 99.781 15.8509 100.438 15.6298C100.523 15.6072 100.699 15.5618 100.79 15.5391C101.283 15.5505 101.804 15.6638 102.281 15.4881C102.366 15.4655 102.541 15.4201 102.626 15.3974C103.029 15.3974 103.442 15.4825 103.834 15.3464C109.932 14.6889 116.008 13.8614 122.096 13.0679C124.012 12.7958 125.933 12.5804 127.849 12.28C128.246 12.2857 128.682 12.3934 129.062 12.212V12.229Z" fill="#F9F9F9"/>
<path d="M81.2919 21.3036C81.6943 20.7878 82.3972 20.7651 83.0036 20.8048C84.2846 21.1789 85.1348 22.5959 84.7494 23.9108C84.5397 25.2995 83.3834 26.2177 82.3688 27.0566L83.219 27.1189C84.3583 27.2096 85.5542 27.3797 86.6878 27.1303C87.1356 27.0566 87.5834 26.9829 88.0425 26.9546C88.1729 27.1189 88.2749 27.306 88.3486 27.5044C87.9801 27.9635 87.3737 28.1222 86.8295 28.2525C85.5826 28.2185 84.3299 28.1732 83.0773 28.2525L82.5785 28.1902C82.0911 28.0882 81.5923 28.0655 81.0992 28.0995C80.8384 28.0882 80.5721 28.0882 80.3113 28.0995C79.7842 28.0145 79.087 28.2809 78.747 27.7538C78.5883 27.357 78.8773 27.0056 79.2457 26.8922C79.6482 26.8866 80.0846 27.0226 80.4587 26.8355C81.8133 26.2234 83.2303 25.3335 83.7008 23.8372C84.0012 23.208 83.7235 22.4372 83.2133 22.0234C82.6919 21.6266 82.0344 22.0234 81.4449 21.9667C81.2125 21.8307 81.2579 21.536 81.2976 21.3092L81.2919 21.3036Z" fill="#F9F9F9"/>
<path d="M113.401 19.7449C113.282 19.2461 113.288 18.753 113.413 18.2655C113.43 18.7586 113.413 19.2517 113.401 19.7449Z" fill="#CECECE"/>
<path d="M164.487 18.6168C164.861 18.5091 165.156 19.0702 164.975 19.3933C164.294 20.5383 163.002 21.2014 161.761 21.5925C161.761 21.6492 161.766 21.7625 161.772 21.8136C162.475 22.437 163.223 23.0095 163.847 23.718C164.226 24.3188 163.643 24.6702 163.2 24.5059C162.333 23.5196 161.239 22.7828 160.293 21.8872C159.431 21.9836 158.213 21.5415 158.496 20.4306C158.898 19.3763 160.837 19.5407 160.933 20.697C161.33 20.7876 161.659 20.5212 162.016 20.3965C162.792 20.0735 163.643 19.6767 164.079 18.9172C164.153 18.7528 164.328 18.6905 164.481 18.6225L164.487 18.6168Z" fill="#F7F7F7"/>
<path d="M162.917 12.4501C162.787 11.6962 163.926 11.3278 164.459 11.7699C165.83 12.7505 166.318 14.4679 166.726 16.0209C167.123 16.3497 167.95 16.0946 168.528 16.2023C169.945 16.395 171.379 16.293 172.808 16.31C173.607 16.31 174.412 16.31 175.217 16.31C176.016 16.31 176.821 16.31 177.626 16.31C178.039 16.31 178.476 16.31 178.901 16.31C179.275 16.31 179.655 16.31 180.034 16.31C181.508 16.293 182.987 16.361 184.461 16.276C184.694 16.293 185.158 16.3327 185.385 16.3497C186.388 16.514 187.409 16.446 188.423 16.412C188.655 16.429 189.12 16.4687 189.347 16.4914C191.569 16.7124 193.808 16.5424 196.041 16.5934C196.897 16.5934 197.758 16.5934 198.62 16.5651C199.119 16.7294 199.646 16.8995 200.003 17.3076C200.876 18.3051 201.278 19.6031 201.981 20.7084C202.797 22.3068 203.596 23.9165 204.39 25.5262C206 29.2104 208.068 32.6679 210.064 36.148C213.249 41.5383 215.97 47.2063 219.365 52.4663C220.022 53.7472 220.861 54.9205 221.632 56.1278C222.04 56.7173 222.38 57.3634 222.885 57.8905C223.287 58.1796 223.99 58.4403 223.786 59.0695C223.446 59.5286 222.766 59.1715 222.38 58.9618C220.504 57.9416 218.673 56.8306 216.729 55.9521C215.182 54.9999 213.527 54.2403 211.917 53.3958C208.936 51.5764 205.83 49.978 202.814 48.2096C199.204 46.2654 195.718 44.0833 192.079 42.1958C188.684 40.229 185.215 38.3926 181.752 36.5561C176.707 33.8128 171.606 31.1602 166.584 28.3602C166.063 30.7408 165.558 33.1327 164.702 35.4225C164.232 36.4938 163.898 37.7237 162.979 38.5116C162.639 38.591 162.033 38.1942 162.469 37.7181C163.62 35.5359 164.419 33.1893 164.907 30.7804C165.167 29.8055 165.394 28.8136 165.553 27.8217C162.169 25.7812 158.649 23.9561 155.22 21.9837C152.21 20.3343 149.268 18.4978 146.06 17.2395C145.834 16.9221 145.375 16.6274 145.465 16.1966C146.134 15.4655 147.268 15.8112 148.124 15.7659C148.458 15.9642 148.792 15.9983 149.121 15.8622C151.065 15.8736 153.021 15.9302 154.97 15.8509C155.135 15.8679 155.305 15.8906 155.469 15.9132C155.991 15.9983 156.524 16.0379 157.056 16.0266C158.054 16.0266 159.057 16.0323 160.06 16.0039C160.117 16.0153 160.236 16.0323 160.293 16.0379C160.763 16.1286 161.251 16.1853 161.732 16.1683C163.047 16.157 164.368 16.174 165.689 16.1683C165.666 16.123 165.621 16.0323 165.598 15.9869C165.23 14.8193 164.923 13.5043 163.977 12.6541C163.592 12.7278 163.121 12.8865 162.894 12.4444L162.917 12.4501ZM147.71 16.7408C147.749 16.9051 147.976 16.9505 148.124 16.9505C149.376 17.7667 150.821 18.2428 152.091 19.0363C156.558 21.4395 160.95 23.9845 165.394 26.4274C165.536 26.5068 165.683 26.5351 165.847 26.5124C165.938 25.4695 166.233 24.4493 166.148 23.395H166.278C166.301 22.0234 166.278 20.6517 166.278 19.2857H166.142C166.142 18.6225 166.006 17.9707 165.983 17.3076H165.853L165.859 17.1659C165.468 17.1659 164.691 17.1659 164.3 17.1659C163.059 17.1432 161.817 17.1432 160.582 17.1999C160.174 17.1375 159.749 17.1602 159.341 17.1602V17.0242C158.286 17.0072 157.238 17.0015 156.189 17.0582C155.736 16.9958 155.26 17.0185 154.806 17.0185V16.8825C153.327 16.8825 151.853 16.8485 150.379 16.9165C150.011 16.8711 149.648 16.8541 149.28 16.8711V16.7408C148.883 16.7408 148.095 16.7408 147.698 16.7408H147.71ZM167.004 17.1659L166.992 17.3076C167.14 17.9934 167.208 18.6962 167.344 19.3877C167.27 19.7732 167.27 20.1756 167.293 20.5667C167.27 21.0881 167.27 21.6039 167.293 22.1254C167.27 22.6128 167.293 23.0946 167.327 23.5821C167.077 24.5456 167.072 25.5489 166.89 26.5294C166.471 27.1982 167.14 27.3229 167.48 27.595C175.166 31.8517 182.97 35.8816 190.668 40.127C199.861 45.1659 208.873 50.5561 218.152 55.4306C219.047 55.765 219.796 56.4339 220.714 56.7173C216.219 49.8873 212.518 42.5869 208.465 35.4962C205.818 31.3246 203.834 26.7902 201.579 22.4088C200.808 20.9578 200.207 19.4161 199.249 18.0784C199.017 17.9027 198.784 17.6647 198.461 17.7327V17.5966C195.281 17.608 192.102 17.5456 188.928 17.6306C188.559 17.591 188.196 17.574 187.828 17.591V17.4549C186.87 17.4266 185.912 17.4436 184.96 17.4889C184.552 17.4266 184.121 17.4493 183.719 17.4493V17.3132C180.692 17.3019 177.665 17.2962 174.644 17.3189L174.655 17.1715C172.955 17.1659 171.249 17.1602 169.549 17.1715C168.698 17.1432 167.848 17.1659 167.004 17.1715V17.1659Z" fill="#F8F8F8"/>
<path d="M146.633 12.5182C146.99 12.3481 147.483 12.6372 147.443 13.0453C147.324 13.323 147.171 13.6178 146.911 13.7935C145.766 14.7967 144.354 15.4088 143.062 16.191C143.028 16.3781 143.164 16.5368 143.232 16.6955C143.992 17.336 144.904 17.7554 145.709 18.3222C146.157 18.5716 145.737 19.4955 145.273 19.1951C144.281 18.6566 143.283 18.0955 142.456 17.3303C141.894 16.8372 141.707 15.8283 142.376 15.3408C143.85 14.4963 145.46 13.7878 146.639 12.5125L146.633 12.5182Z" fill="#F5F5F5"/>
<path d="M197.611 14.1845C198.132 13.7878 198.682 13.4137 199.294 13.1699C199.907 13.1076 200.587 13.2946 200.87 13.9011C201.63 15.0121 202.542 15.9983 203.534 16.9165C203.97 17.4606 203.205 17.9141 202.848 17.591C201.641 16.6274 200.717 15.3805 199.719 14.2129C198.943 14.4056 198.308 14.9384 197.719 15.4598C197.401 15.5108 197.112 15.3918 196.885 15.1708C196.823 14.689 197.299 14.4566 197.611 14.1902V14.1845Z" fill="#F5F5F5"/>
<path d="M225.277 57.9416C224.823 57.3861 225.798 56.5643 226.115 57.2274C226.518 58.1853 226.784 59.2112 227.107 60.2031C227.102 60.5999 227.096 60.9966 227.102 61.3991C226.971 61.6315 226.824 61.8695 226.614 62.0452C225.515 62.629 224.245 62.8954 223.004 62.7764C222.556 62.442 222.732 61.4841 223.395 61.6428C223.689 61.8865 224.058 61.7448 224.387 61.6711C224.925 61.4671 225.685 61.5861 226.059 61.0533C226.178 59.9537 225.56 58.9618 225.271 57.9416H225.277Z" fill="#F5F5F5"/>
<path d="M160.315 16.0436C160.797 16.0379 161.268 16.0266 161.755 16.0266V16.1683C161.273 16.1853 160.78 16.1343 160.315 16.0379V16.0436Z" fill="#AEAEAE"/>
<path d="M148.141 15.7715C148.39 15.7659 148.889 15.7545 149.144 15.7545V15.8679C148.809 16.0039 148.475 15.9699 148.141 15.7715Z" fill="#AFAFAF"/>
<path d="M155.492 15.919C156.025 15.885 156.546 15.8793 157.085 15.885V16.0323C156.546 16.0437 156.019 16.004 155.492 15.919Z" fill="#AFAFAF"/>
<path d="M168.528 16.2023C169.112 16.1853 169.696 16.1682 170.285 16.1512C171.124 16.1739 171.963 16.1626 172.808 16.1682V16.3099C171.379 16.2929 169.945 16.395 168.528 16.2023Z" fill="#DFDFDF"/>
<path d="M172.808 16.1682C173.607 16.1682 174.412 16.1682 175.217 16.1682V16.3099C174.412 16.3099 173.607 16.3099 172.808 16.3099V16.1682Z" fill="#CBCBCB"/>
<path d="M175.217 16.1682C176.016 16.1682 176.821 16.1682 177.626 16.1682V16.3099C176.821 16.3099 176.016 16.3099 175.217 16.3099V16.1682Z" fill="#B2B2B2"/>
<path d="M177.626 16.1682C178.051 16.1682 178.464 16.1682 178.901 16.1682V16.3099C178.476 16.3099 178.039 16.3099 177.626 16.3099V16.1682Z" fill="#949494"/>
<path d="M178.901 16.1682C179.275 16.1682 179.655 16.1682 180.034 16.1682V16.3099C179.655 16.3099 179.275 16.3099 178.901 16.3099V16.1682Z" fill="#737272"/>
<path d="M196.047 16.4574C196.834 16.4517 197.622 16.4574 198.416 16.395C198.467 16.4404 198.575 16.5254 198.626 16.5651C197.764 16.5934 196.902 16.5934 196.047 16.5934V16.4574Z" fill="#666565"/>
<path d="M147.704 16.7407C148.101 16.7407 148.889 16.7407 149.285 16.7407V16.8711C148.889 16.8881 148.509 16.8881 148.124 16.9504C147.976 16.9504 147.749 16.9051 147.71 16.7407H147.704Z" fill="#777676"/>
<path d="M164.306 17.1659C164.697 17.1659 165.473 17.1659 165.864 17.1659V17.3019H164.306V17.1659Z" fill="#818080"/>
<path d="M167.004 17.1659C167.848 17.1659 168.698 17.1376 169.549 17.1659V17.3019C168.693 17.3019 167.843 17.3019 166.987 17.3019L166.998 17.1602L167.004 17.1659Z" fill="#C4C4C4"/>
<path d="M169.549 17.1659C171.249 17.1489 172.949 17.1545 174.656 17.1659L174.644 17.3132C174.57 17.3189 174.417 17.3303 174.338 17.3359C172.745 17.2679 171.147 17.3076 169.554 17.3019V17.1659H169.549Z" fill="#E0E0E0"/>
<path d="M167.293 20.561H167.429C167.429 21.0768 167.423 21.5983 167.429 22.1197H167.287C167.27 21.6039 167.27 21.0825 167.287 20.561H167.293Z" fill="#8F8F8F"/>
<path d="M116.275 43.9472C115.861 43.2727 116.898 42.5359 117.221 43.2727C117.992 49.9723 119.041 56.6379 120.328 63.2582C120.792 65.9051 121.098 68.5748 121.455 71.233C122.051 76.2832 122.816 81.3051 123.66 86.3156C127.639 84.8476 131.658 83.4646 135.648 82.0136C135.767 81.4751 135.818 80.9253 135.869 80.3812C136.175 78.1197 136.668 75.8752 137.411 73.7156C137.547 73.3926 137.683 73.0695 137.842 72.7521C138.04 72.3723 138.227 71.9869 138.414 71.6015C138.658 71.2841 138.873 70.944 139.1 70.6152C139.95 69.4306 141.169 68.5577 142.529 68.0533C142.926 67.9569 143.328 67.8492 143.714 67.7075C144.428 67.7245 145.159 67.7472 145.879 67.7302C148.14 68.1667 149.614 70.1731 150.527 72.1513C151.184 73.7383 151.853 75.3197 152.437 76.9351C152.771 76.9351 153.083 76.8047 153.406 76.731C153.78 76.6573 154.143 76.544 154.494 76.3853C154.846 76.3399 155.186 76.2549 155.52 76.1359C156.234 75.9432 156.954 75.7618 157.657 75.5407C160.321 74.7586 163.013 74.1011 165.7 73.4096C165.887 73.0128 165.898 72.5424 165.723 71.9869C165.7 71.2217 165.711 70.4565 165.592 69.697C165.575 69.527 165.558 69.3569 165.547 69.1926C165.53 68.7391 165.615 68.2857 165.468 67.8549C165.445 67.7699 165.4 67.5885 165.377 67.5035C165.377 67.0047 165.513 66.4889 165.315 66.0128C165.286 65.6784 165.315 65.3553 165.4 65.0379C165.672 65.0946 166.074 64.9416 166.238 65.2476C166.306 65.6444 166.397 66.0582 166.443 66.4663C166.238 66.8857 166.272 67.2258 166.539 67.4808C166.482 68.1837 166.613 68.8752 166.743 69.561C166.715 70.0881 166.686 70.6266 166.692 71.1594C166.692 71.5448 166.675 71.9472 166.788 72.327C166.8 72.5254 166.828 72.9108 166.839 73.1035C167.763 72.8541 168.693 72.616 169.6 72.2986C170.2 72.1569 170.79 71.9472 171.362 71.7092C171.685 71.6865 172.014 71.7375 172.196 72.0379C172.377 72.5537 171.668 72.7861 171.34 72.9448C169.934 73.4549 168.466 73.7837 167.026 74.1804C166.89 74.2484 166.817 74.3618 166.805 74.5148C166.709 75.0476 166.686 75.5918 166.732 76.1416C166.357 79.3496 165.666 82.5804 164.141 85.4541C163.552 86.5934 162.617 87.5683 161.353 87.914C160.95 87.9027 160.548 87.9027 160.151 87.9027C159.522 87.7666 158.932 87.5229 158.343 87.2792C155.333 85.3691 153.508 82.1213 152.114 78.9359C151.972 78.6411 151.819 78.216 151.417 78.4031C148.77 79.2023 146.083 79.8711 143.453 80.744C142.053 81.1011 140.676 81.5545 139.31 82.0249C138.55 82.2233 137.825 82.5237 137.077 82.7448C136.493 82.8468 136.572 83.5893 136.51 84.0314C136.266 86.429 135.813 88.8209 134.94 91.0654C134.605 91.7513 134.231 92.4201 133.823 93.0662C132.905 94.2395 131.811 95.3334 130.394 95.8832C128.784 96.5181 127.004 96.3934 125.372 95.9229C126.188 99.9812 126.557 104.125 127.294 108.194C127.362 108.744 127.43 109.299 127.537 109.849C127.617 110.331 127.719 110.796 127.843 111.272C127.883 111.504 127.917 111.748 127.974 111.986C128.575 115.109 129.022 118.272 129.793 121.361C130.371 121.922 129.289 122.557 128.977 122.058C128.597 121.491 128.575 120.777 128.365 120.148C127.877 117.603 127.481 115.035 126.948 112.496C126.789 111.493 126.557 110.507 126.336 109.515C125.695 104.805 125.14 100.066 124.153 95.4071C121.756 94.0071 119.863 91.927 118.208 89.7278C117.754 89.6258 117.341 89.9262 116.921 90.0622C111.196 92.199 105.568 94.6079 99.9907 97.1019C100.393 100.758 100.603 104.476 101.617 108.03C102.031 109.061 102.303 110.314 103.499 110.705C103.817 111.629 102.388 111.589 102.014 111.045C100.359 108.88 100.064 106.069 99.662 103.461C99.4012 101.517 99.2029 99.5674 98.9648 97.6233C97.4741 98.1674 96.0174 98.8249 94.5494 99.4314C93.2401 99.9075 91.9535 100.457 90.6385 100.911C90.0887 101.086 89.5616 101.41 88.9551 101.308C88.717 101.16 88.7851 100.86 88.7851 100.627C90.7575 99.6298 92.934 99.0913 94.9122 98.1108C96.2045 97.646 97.4288 97.0225 98.6927 96.4897C99.0555 96.1666 98.7721 95.3731 98.7551 94.9083C98.7211 94.744 98.6871 94.5796 98.6587 94.4209C98.6701 93.8257 98.7551 93.2249 98.6077 92.6411C98.5737 92.3804 98.551 92.1197 98.5284 91.8589C98.5567 90.8897 98.5964 89.9262 98.5284 88.9626C98.551 88.7472 98.568 88.5318 98.5907 88.3164C98.6814 87.8233 98.7154 87.3302 98.6757 86.8371C99.0895 83.4079 100.008 79.7691 102.626 77.3375C103.987 76.0679 105.936 75.6881 107.733 75.9658C110.029 76.799 111.672 78.6695 113.033 80.6193C114.79 83.1982 116.564 85.7602 118.434 88.2654C119.84 87.7836 121.251 87.2565 122.629 86.6897C122.226 84.2411 121.801 81.7926 121.399 79.344C120.724 74.7245 120.214 70.0824 119.557 65.4573C119.132 62.7594 118.604 60.0784 118.128 57.3861C117.8 55.3399 117.528 53.2825 117.159 51.242C116.83 48.8104 116.541 46.3732 116.275 43.9359V43.9472ZM144.043 68.7448V68.8808C141.685 69.0509 139.888 70.9497 138.941 72.9901C137.7 75.7051 137.167 78.6978 136.816 81.6452C141.56 80.1375 146.321 78.6752 151.128 77.3828C151.19 77.3432 151.32 77.2695 151.388 77.2298C150.634 75.331 149.954 73.3926 148.991 71.5845C148.299 70.3715 147.222 69.0395 145.743 68.8865C145.533 68.4501 144.479 68.9092 144.037 68.7448H144.043ZM165.315 74.6679C161.166 75.6428 157.096 76.9124 152.975 77.978C153.083 78.5845 153.429 79.1059 153.684 79.6557C154.687 81.7812 155.94 83.8274 157.68 85.4371C158.649 86.1853 159.811 86.9901 161.098 86.7974C162.322 86.5254 162.974 85.3804 163.467 84.3318C164.034 83.3002 164.323 82.161 164.725 81.0671C165.054 79.378 165.632 77.7059 165.592 75.9715C165.626 75.6201 165.689 74.9116 165.723 74.5602C165.473 74.4922 165.337 74.5262 165.315 74.6679ZM105.647 76.9634V77.0994C103.958 77.3205 102.672 78.6865 101.827 80.0865C100.614 82.2403 99.8944 84.6946 99.8377 87.1658H99.7016C99.679 87.6533 99.7016 88.1294 99.73 88.6168C99.7243 88.7132 99.7016 88.9059 99.696 89.0079H99.5543C99.5429 89.9545 99.5429 90.8954 99.5543 91.8419H99.6903C99.7017 91.9383 99.73 92.131 99.7413 92.2217C99.628 92.8452 99.7017 93.4743 99.6903 94.1091H99.832C99.832 94.3302 99.8263 94.5569 99.883 94.778C99.9057 95.1464 99.4749 96.0873 100.104 95.9626L100.087 95.8492C100.909 95.5318 101.702 95.1407 102.513 94.8006C107.393 92.5788 112.398 90.6403 117.392 88.6905C115.566 86.3043 113.934 83.782 112.154 81.3618C111.213 79.9731 110.182 78.5788 108.731 77.7003C108.266 77.4169 107.762 77.1165 107.206 77.0994V76.9634C106.815 76.9634 106.033 76.9634 105.647 76.9634ZM132.854 84.2015C129.884 85.2897 126.851 86.2533 123.927 87.4662C124.193 89.8298 124.664 92.1764 125.083 94.5172C125.599 94.795 126.16 95.1521 126.778 95.1011C126.885 95.4185 127.486 95.2938 127.747 95.1747C127.815 95.1747 127.957 95.1691 128.025 95.1634C128.28 95.2938 128.869 95.4071 129 95.1011C130.513 94.9764 131.788 93.8371 132.706 92.6978C134.651 89.9715 135.138 86.5764 135.524 83.3399C134.583 83.4079 133.761 83.9917 132.843 84.2071L132.854 84.2015ZM122.549 87.9197C121.467 88.3618 120.345 88.7132 119.268 89.1836C120.271 90.8104 121.762 92.25 123.252 93.497C123.53 93.6444 124.25 94.3642 123.706 93.1683C123.411 91.4679 123.082 89.7731 122.895 88.05C122.821 87.8857 122.708 87.8403 122.549 87.9197Z" fill="#F7F7F7"/>
<path d="M135.869 118.929C136.561 118.516 136.923 119.343 136.623 119.831C136.119 120.59 135.654 121.384 135.359 122.251C134.758 123.435 134.339 124.739 133.54 125.816C133.234 126.258 132.372 125.827 132.616 125.323C132.95 124.756 133.296 124.184 133.557 123.583C132.417 122.693 132.043 121.253 131.488 119.989C131.25 119.468 132.032 119.105 132.378 119.519C132.803 120.312 132.984 121.219 133.449 122.001C133.506 122.001 133.613 122.001 133.67 122.001C134.192 121.231 134.639 120.414 135.155 119.638C135.387 119.394 135.626 119.162 135.869 118.929Z" fill="#F7F7F7"/>
<path d="M171.107 69.5837C172.309 69.6688 173.505 69.8501 174.706 69.9522C175.477 69.9295 176.532 70.6266 176.158 71.5165C175.727 72.5141 175.132 73.4323 174.65 74.4072C174.332 74.906 174.106 75.7052 173.38 75.5692C173.063 75.3991 172.989 75.1271 173.159 74.753C173.856 73.7214 174.389 72.5934 175.013 71.5165C175.12 71.3522 175.109 71.1084 174.894 71.0518C174.038 70.859 173.148 70.8194 172.275 70.7343C171.827 70.621 171.283 70.6833 170.988 70.2696C170.932 70.0372 170.954 69.7821 171.102 69.5894L171.107 69.5837Z" fill="#F6F6F6"/>
<path d="M172.983 78.8112C173.369 78.6865 173.658 78.7772 173.856 79.0833C173.703 79.7748 173.187 80.3019 172.83 80.897C173.567 81.3845 174.355 81.8039 175.047 82.3651C175.341 82.7051 174.984 83.357 174.531 83.1699C173.754 82.7392 173.029 82.2347 172.264 81.7869C171.804 82.4274 171.425 83.1246 170.949 83.7537C170.268 84.1108 170.047 83.5157 170.11 83.0566C170.597 82.5011 171.034 81.9003 171.368 81.2428C170.881 80.8347 170.138 80.591 169.979 79.9222C169.928 79.7351 170.053 79.4914 170.268 79.5084C170.943 79.4064 171.34 80.1319 171.935 80.3473C172.36 79.8938 172.592 79.2987 172.983 78.8169V78.8112Z" fill="#F5F5F5"/>
<path d="M143.725 67.7133C144.4 67.4639 145.148 67.6566 145.851 67.5999L145.89 67.736C145.17 67.753 144.445 67.7303 143.725 67.7133Z" fill="#686767"/>
<path d="M166.749 76.1416C166.703 75.5918 166.726 75.0477 166.822 74.5149C166.856 75.059 166.834 75.5975 166.749 76.1416Z" fill="#676767"/>
<path d="M114.728 40.127C114.915 39.7133 115.272 39.1465 115.804 39.2995C117.063 40.0023 117.8 41.306 118.633 42.4339C119.211 43.2614 117.783 43.5788 117.675 42.8137C117.431 42.4509 117.114 42.1505 116.859 41.7934C116.592 41.2776 116.156 40.8809 115.714 40.5124C115.64 40.8355 115.493 41.4817 115.419 41.8048C115.249 42.6436 115.113 43.4938 115.136 44.361C115.374 44.7805 114.966 45.506 114.461 45.3359C114.132 45.0185 113.866 44.5707 114.008 44.0776C114.138 42.7456 114.336 41.408 114.733 40.127H114.728Z" fill="#F5F4F4"/>
<path d="M165.332 66.0071C165.53 66.4832 165.394 66.999 165.394 67.4978C165.224 67.0217 165.315 66.4945 165.332 66.0071Z" fill="#656565"/>
<path d="M165.315 74.6622C165.332 74.5205 165.468 74.4865 165.723 74.5546C165.689 74.906 165.626 75.6145 165.592 75.9659C165.417 75.6031 165.881 74.7359 165.32 74.6622H165.315Z" fill="#676666"/>
<path d="M165.49 67.855C165.643 68.2857 165.553 68.7392 165.57 69.1926C165.536 69.1473 165.473 69.0509 165.439 69.0056C165.439 68.7675 165.439 68.5351 165.451 68.3027C165.462 68.1894 165.479 67.9683 165.49 67.855Z" fill="#696969"/>
<path d="M166.715 71.1538H166.856C166.845 71.5392 166.828 71.9303 166.811 72.3214C166.698 71.9417 166.709 71.5336 166.715 71.1538Z" fill="#C1C1C1"/>
<path d="M165.751 71.9869C165.927 72.5424 165.915 73.0129 165.728 73.4096C165.728 72.9902 165.711 72.5651 165.717 72.1626L165.757 71.9869H165.751Z" fill="#D7D7D7"/>
<path d="M99.5543 89.0024H99.696C99.696 89.9433 99.696 90.8899 99.696 91.8364H99.56C99.5486 90.8842 99.5486 89.9433 99.56 89.0024H99.5543Z" fill="#BAB9B9"/>
<path d="M70.8117 50.0744C70.8288 49.5983 71.7923 49.6946 71.6506 50.2104C71.6449 50.7772 71.6449 51.344 71.6506 51.9165C71.5713 52.9084 71.2255 53.889 70.67 54.7165C71.4579 54.9092 72.2061 55.2266 73.0223 55.3513C73.4247 55.408 73.9065 55.459 74.3373 55.459C75.0458 55.3683 74.7907 56.5529 74.1956 56.4453C73.7364 56.4282 73.3454 56.4453 72.9146 56.4396C71.5373 56.3149 70.347 55.4534 68.9583 55.4307C68.4595 55.4023 68.1591 54.6712 68.5502 54.3424C68.7769 53.974 69.27 54.3141 69.6328 54.2914C70.3356 53.4922 70.5794 52.4096 70.6927 51.378C70.7211 50.9303 70.8004 50.5108 70.8004 50.0687L70.8117 50.0744Z" fill="#F7F7F7"/>
<path d="M65.2401 85.8849C65.2854 85.4428 65.9202 85.0971 66.1526 85.6072C66.1526 86.072 66.0109 86.6274 66.2377 87.0752L66.283 87.1772C66.2547 87.6533 66.2093 88.1805 66.3567 88.6566C66.5097 89.4671 66.453 90.3287 66.7478 91.1165C67.0425 91.4906 67.0028 92.1821 66.4077 92.1594C65.6255 91.7967 65.5462 90.7311 65.4328 89.9942C65.3931 89.2631 65.3364 88.5262 65.2231 87.8064C65.2288 87.1602 65.2401 86.5254 65.2288 85.8906L65.2401 85.8849Z" fill="#F7F7F7"/>
<path d="M51.3931 65.0833C51.6652 65.1173 52.0223 65.0039 52.2263 65.259C52.2944 65.8201 52.0733 66.3415 51.8523 66.8347C50.8944 68.6994 49.5057 70.3148 47.9357 71.6865C47.7599 71.8792 47.3802 71.9756 47.4199 72.2986C47.9583 72.4233 48.5251 72.5594 49.0863 72.6387C49.5737 72.7634 50.0725 72.7634 50.5713 72.6387C51.1041 72.463 51.5348 71.9869 52.096 71.8905C52.7421 71.7828 52.7308 72.9845 52.1016 73.0411C51.7616 73.3529 51.3535 73.5399 50.934 73.71C50.8774 73.727 50.7697 73.761 50.713 73.778C50.1122 73.761 49.5227 73.7553 48.9446 73.7666C48.049 73.6079 47.1818 73.3415 46.3146 73.0808C45.2093 73.7156 44.1438 74.5375 42.8344 74.6735C42.1543 74.8719 41.4741 74.6395 40.9073 74.2768C39.6433 73.2679 39.6207 70.7059 41.3438 70.2015C42.8514 70.3148 44.1381 71.199 45.5608 71.6411C45.7705 71.6922 46.0199 71.8395 46.2352 71.7035C46.9381 71.1877 47.5446 70.5642 48.1907 69.9747C49.4433 68.6371 50.7923 67.2201 51.2798 65.4063C51.3081 65.327 51.3591 65.1626 51.3875 65.0833H51.3931ZM41.3551 71.3407C41.015 72.0719 41.0434 73.2452 41.9332 73.5513C42.9705 73.7553 43.968 73.2055 44.8409 72.7011C44.9826 72.3553 44.4838 72.4687 44.3025 72.3156C43.3276 71.9982 42.398 71.3747 41.3551 71.3351V71.3407Z" fill="#F6F6F6"/>
<path d="M73.4134 87.2623C73.7648 86.7522 74.6093 87.302 74.2579 87.8178C73.5834 88.77 72.6255 89.4955 71.781 90.2834C72.6652 90.5951 73.6571 90.3117 74.53 90.5554C74.9268 91.0882 74.2126 91.5077 73.7648 91.6607C73.5211 91.6494 73.0393 91.6267 72.7956 91.6097C71.5713 91.2696 70.3357 90.9579 69.0944 90.7368C68.5616 90.5894 67.8191 89.8583 68.4255 89.3368C69.2134 89.1271 69.8312 89.8469 70.6134 89.7052C71.764 89.1838 72.5972 88.1919 73.4191 87.2623H73.4134Z" fill="#F6F6F6"/>
<path d="M56.4604 50.0404C56.6134 49.6777 57.0442 49.7627 57.3276 49.9214C57.3842 50.5392 57.4919 51.1514 57.4749 51.7748C57.4409 52.1999 57.4409 52.6647 57.5543 53.0898C57.5543 53.8663 57.747 54.6202 57.9737 55.3627C58.3875 55.9522 57.8037 56.3036 57.3616 56.1392C56.8061 55.6064 56.7211 54.7619 56.6304 54.042C56.5851 53.6226 56.6587 53.2315 56.5284 52.8461C56.4944 52.6874 56.4604 52.5287 56.4377 52.3757C56.4547 51.5935 56.5114 50.8169 56.4604 50.0404Z" fill="#F8F8F8"/>
<path d="M76.7518 67.668C77.0069 67.7473 77.3016 67.8607 77.364 68.1668C77.313 68.6996 77.3186 69.2607 77.347 69.8048C77.1033 70.9951 76.7802 72.1627 76.2984 73.2793C75.7769 74.4809 75.2158 75.7165 74.3032 76.6744C73.8611 77.0712 73.1923 76.4194 73.5834 75.9546C74.2012 75.1554 74.683 74.2712 75.0911 73.3416C75.8109 71.868 76.4061 70.2412 76.4117 68.5805C75.9413 68.0251 76.4968 67.9004 76.7518 67.6736V67.668Z" fill="#F5F5F5"/>
<path d="M87.6911 70.3489C88.683 70.3489 89.6126 70.7287 90.6045 70.8024C91.2166 70.9101 91.8628 70.8931 92.5032 70.8874C92.5769 70.9214 92.7186 71.0008 92.7923 71.0348C92.832 71.4995 92.4239 71.7773 92.0158 71.8453C90.6441 71.9927 89.2895 71.5675 87.9575 71.3125C87.5381 71.2275 87.3284 70.6097 87.6968 70.3433L87.6911 70.3489Z" fill="#F5F5F5"/>
<path d="M81.8644 76.5782C81.8871 76.1701 82.6352 75.9207 82.6976 76.4365C82.6749 76.9409 82.6976 77.4737 82.6976 77.9895C82.7203 78.4599 82.5672 78.9077 82.4992 79.3668C82.2612 80.3361 81.9381 81.3393 81.2409 82.0761C80.6344 82.4332 80.4134 81.9401 80.4077 81.532C81.5186 80.1207 81.6433 78.2899 81.8587 76.5782H81.8644Z" fill="#F5F5F5"/>
<path d="M69.5761 60.5206C69.8312 61.6486 69.6498 62.8502 69.5478 63.9951C69.5024 62.8332 69.5138 61.6769 69.5761 60.5206Z" fill="#6D6D6D"/>
<path d="M68.8506 59.1715C69.5194 59.0582 70.466 59.3019 70.5737 60.0898C70.4887 61.3877 70.5 62.6914 70.5624 63.9894C70.5567 64.3124 70.449 64.7035 70.0976 64.8056C69.7065 64.7319 69.4968 64.3634 69.5535 63.9894C69.6555 62.8444 69.8369 61.6428 69.5818 60.5149C69.5648 60.4582 69.5194 60.3392 69.5024 60.2768C68.5219 60.2201 67.5526 60.2768 66.5947 60.4582C66.0053 60.4242 65.4271 60.4128 64.8547 60.4128C63.1033 60.4072 61.3575 60.4128 59.6118 60.4128C59.1526 60.3958 58.7672 60.4128 58.3365 60.4128C57.1915 60.4185 56.0522 60.3732 54.9186 60.4298L55.049 60.6622C57.5599 63.5529 60.1275 66.3926 62.7008 69.2323C63.1656 69.7877 64.0782 70.2412 63.6871 71.1367C62.2927 73.1545 60.3543 74.7189 58.7956 76.6007C57.1008 78.3464 55.3267 80.0128 53.6547 81.7813C54.9243 82.195 56.262 82.3367 57.5713 82.5918C59.8215 83.0396 62.0943 83.476 64.3956 83.5497C65.4328 83.629 66.5437 83.7991 67.581 83.5497C68.0514 83.5157 68.4652 83.493 68.964 83.493C68.6692 81.5205 68.2895 79.5594 67.9267 77.6039C67.9041 77.1392 67.9607 76.7084 67.9437 76.2606C68.1705 75.7958 68.8563 75.9715 68.913 76.476C69.2927 78.9246 69.6895 81.3788 70.2223 83.8047C70.1316 84.0315 70.0976 84.2922 69.9219 84.4792C69.2871 84.6153 68.6409 84.6266 68.0061 84.6946C66.7081 84.6266 65.4045 84.6436 64.1122 84.6776C64.0215 84.6663 63.8401 84.6436 63.7494 84.6266C63.3186 84.5416 62.9616 84.5246 62.5535 84.5246C59.5664 84.1221 56.6077 83.544 53.6547 82.9489C53.2012 82.8355 52.7081 82.7165 52.3964 82.3424C52.1357 81.8493 52.4587 81.4865 52.7025 81.1408C55.0037 78.7659 57.4522 76.5383 59.6174 74.0388C60.598 73.1715 61.4142 72.1456 62.2984 71.1877C62.3721 71.0064 62.7292 70.7966 62.4854 70.6266C59.5041 67.4072 56.619 64.0971 53.6887 60.8323C53.2296 60.3562 53.2409 59.4096 54.0401 59.3699C54.7486 59.3983 55.4854 59.4323 56.2053 59.4266C57.4636 59.4266 58.7275 59.4039 59.9972 59.4606C61.5105 59.591 63.0806 59.676 64.5996 59.472C65.3421 59.4209 66.1016 59.4323 66.8611 59.3189C67.0199 59.2963 67.1842 59.2679 67.3543 59.2452C67.8587 59.3076 68.3292 59.2566 68.845 59.1715H68.8506Z" fill="#F9F9F9"/>
<path d="M59.6061 60.4129C61.3518 60.4129 63.0976 60.4073 64.849 60.4129V60.5546C63.0976 60.5546 61.3518 60.5546 59.6061 60.5546V60.4129Z" fill="#D2D2D2"/>
<path d="M71.6506 50.2104H71.7866C71.6053 50.6526 72.0814 51.7011 71.6506 51.9165C71.6393 51.344 71.6393 50.7773 71.6506 50.2104Z" fill="#686767"/>
<path d="M65.1834 54.8073C65.7615 54.3709 66.1243 54.9944 65.9599 55.4251C65.1494 56.2583 63.8458 56.043 62.8199 56.383C62.3267 56.4964 61.1421 56.6268 61.6012 55.6179C62.7802 55.3231 64.0158 55.1984 65.1834 54.8017V54.8073Z" fill="#F4F4F4"/>
<path d="M83.6952 72.0323C83.5591 71.5448 84.5964 71.8282 84.551 72.2023V73.1489C84.517 73.557 83.7688 73.8347 83.6952 73.3076C83.6555 72.8655 83.6952 72.463 83.6952 72.0379V72.0323Z" fill="#F4F4F4"/>
<path d="M62.1851 89.7957C62.7178 89.6937 63.415 88.8038 63.8968 89.4217C64.2085 89.7447 63.7721 90.0791 63.5454 90.2832C62.5251 90.8897 61.3405 91.1731 60.1729 91.3091C59.7875 91.3034 59.4077 91.2978 59.045 91.3034C58.5632 91.2071 58.4668 90.5553 58.9373 90.3455C59.7875 90.3852 60.6434 90.2945 61.4596 90.0338C61.7033 89.9771 61.947 89.8978 62.1851 89.8014V89.7957Z" fill="#F4F4F4"/>
<path d="M70.6984 51.3838C70.7664 51.0267 70.4377 50.1935 70.8061 50.0745C70.8061 50.5166 70.7211 50.936 70.6984 51.3838Z" fill="#666666"/>
<path d="M64.3899 83.5497C65.4441 83.4987 66.5097 83.4987 67.5753 83.5497C66.5381 83.8048 65.4271 83.6348 64.3899 83.5497Z" fill="#696868"/>
<path d="M54.828 90.9124C54.811 89.4274 54.6693 87.9197 54.8903 86.4517C54.9016 87.9367 55.0207 89.433 54.828 90.9124Z" fill="#676666"/>
<path d="M82.7032 76.4307H82.8393C82.8393 76.8161 82.8393 77.5926 82.8393 77.9837H82.7032C82.7032 77.4679 82.6749 76.9351 82.7032 76.4307Z" fill="#6B6B6B"/>
<path d="M54.8903 86.4519C55.0207 86.0154 55.3381 85.4543 55.8879 85.6527C56.2563 85.9077 55.9219 86.3895 55.8879 86.7353C55.7802 87.2567 55.7405 87.7838 55.7689 88.328C55.7689 89.3255 55.7405 90.3344 55.8029 91.3377C55.7915 91.5191 55.7802 91.7004 55.7802 91.8875C55.5818 92.6697 55.1964 93.4122 54.6239 93.9846C53.9211 94.3247 53.1446 94.013 52.9178 93.2818C52.9349 92.9928 52.9122 92.681 53.0709 92.4259C53.5583 92.3239 53.8304 92.6867 54.0855 93.0438C54.6069 92.4713 54.7373 91.6608 54.8223 90.9239C55.015 89.4446 54.9017 87.9426 54.8846 86.4632L54.8903 86.4519Z" fill="#FAFAFA"/>
<path d="M61.1988 52.6478C62.3834 52.8689 63.6247 52.8859 64.8377 53.0616C65.2231 53.1013 65.4725 53.498 65.3988 53.8721C65.1834 54.0195 64.9284 54.2235 64.6563 54.1215C63.4717 53.8268 62.2134 53.9968 61.0628 53.566C60.6887 53.3677 60.8871 52.8179 61.1988 52.6478Z" fill="#F3F3F3"/>
<path d="M59.0733 88.2146C59.9122 88.2146 60.7454 88.4016 61.5446 88.6567C61.9357 88.8381 61.896 89.2802 61.845 89.6486C61.6636 89.6883 61.4822 89.7166 61.3122 89.7506C60.5753 89.3935 59.7478 89.3029 58.9996 89.0761C58.6029 88.8778 58.7446 88.396 59.0733 88.2146Z" fill="#F3F3F3"/>
<path d="M54.0401 59.37C54.7429 59.1717 55.4741 59.3134 56.2053 59.285V59.4267C55.4854 59.438 54.7486 59.3984 54.0401 59.37Z" fill="#929292"/>
<path d="M59.9972 59.4607C60.2976 59.438 60.598 59.4097 60.9097 59.3927C61.828 59.4607 62.7462 59.421 63.6757 59.3813C63.9818 59.4097 64.2879 59.438 64.5996 59.472C63.0806 59.6761 61.5106 59.5911 59.9972 59.4607Z" fill="#DEDEDE"/>
<path d="M70.5737 60.0898C70.7664 61.3651 70.67 62.7028 70.5624 63.9894C70.5 62.6858 70.4887 61.3822 70.5737 60.0898Z" fill="#969696"/>
<path d="M58.3308 60.4128C58.7559 60.4128 59.147 60.3958 59.6061 60.4128V60.5545C59.1867 60.5602 58.7219 60.5432 58.3308 60.5545V60.4128Z" fill="#9C9C9C"/>
<path d="M83.5591 72.0381H83.6951C83.6951 72.4575 83.6555 72.86 83.6951 73.3021C83.202 73.3021 83.6668 72.3725 83.5591 72.0381Z" fill="#979797"/>
<path d="M55.7745 88.3278C55.7462 87.7894 55.7802 87.2566 55.8935 86.7351C55.9219 87.2679 55.9049 87.7837 55.9219 88.3278H55.7745Z" fill="#979797"/>
<path d="M66.1526 85.6072C66.2887 85.7829 66.2433 86.0266 66.2887 86.2363C66.266 86.5141 66.249 86.7918 66.2433 87.0752C66.0166 86.6274 66.1526 86.072 66.1583 85.6072H66.1526Z" fill="#E4E4E4"/>
<path d="M55.7745 88.3279H55.9219C55.9105 89.3255 55.9672 90.34 55.8142 91.3376C55.7518 90.3344 55.7745 89.3255 55.7802 88.3279H55.7745Z" fill="#C3C3C3"/>
</svg>
