<svg width="268" height="72" viewBox="0 0 268 72" fill="none" xmlns="http://www.w3.org/2000/svg">
<path d="M159.132 1.53996C159.402 1.05996 160.352 0.479966 160.742 1.16997C161.762 3.04997 162.782 5.14996 164.412 6.47996C166.012 5.31996 167.282 3.63997 168.602 2.16997C168.982 1.50997 170.382 1.93998 170.172 2.71998C169.252 4.89998 167.042 6.14996 165.632 7.97996C166.762 9.33996 168.092 10.59 169.612 11.53C170.172 11.82 171.212 12.07 170.882 12.92C170.162 14.07 168.542 13.36 167.732 12.68C166.582 11.57 165.482 10.41 164.372 9.26997C162.942 10.24 161.792 11.61 160.152 12.24C158.852 13.1 158.102 11.17 159.122 10.69C160.482 9.84999 162.032 9.10998 162.952 7.74998C161.692 6.12998 160.442 4.47997 159.462 2.66997C159.332 2.28997 159.222 1.91996 159.132 1.53996Z" fill="#F7F7F7"/>
<path d="M123.192 2.03998C123.992 1.35998 125.252 1.15999 126.182 1.73999C127.702 2.46999 128.862 3.72998 129.922 5.00998C132.682 9.57998 134.292 14.75 135.202 19.99L135.242 20.18C135.202 21.21 135.192 22.25 135.222 23.29C135.042 24.17 134.812 25.04 134.622 25.92C134.192 26.65 133.792 27.82 132.712 27.46C131.472 26.14 133.452 24.57 133.232 23.04C133.402 22.16 133.402 21.28 133.232 20.42C132.842 16.98 131.862 13.62 130.482 10.46C129.672 8.08999 128.512 5.71998 126.612 4.03998C125.902 3.52998 124.982 2.88998 124.122 3.47998C123.412 3.58998 122.532 2.92 123.192 2.03V2.03998Z" fill="#F7F7F7"/>
<path d="M98.9524 19.79C99.3924 19.21 100.302 19.4601 100.612 20.0601C100.842 21.6901 101.112 23.3401 101.172 24.9901C101.152 25.8201 101.072 26.74 101.332 27.57C101.432 28.01 101.572 28.64 101.122 28.95C100.752 29.53 100.092 29.0001 99.7324 28.6901C99.5724 27.8901 99.4324 27.0401 99.4324 26.2501C99.4124 25.3001 99.3524 24.3601 99.2524 23.4301C99.2724 22.2001 98.9724 21 98.9524 19.79Z" fill="#F7F7F7"/>
<path d="M74.1924 44.26C74.9224 43.75 76.2624 43.43 76.6024 44.54C76.4424 45.6 75.0524 45.74 74.4824 46.54C73.1224 48.7299 72.7624 51.39 72.6224 53.93C72.4224 54.86 72.3924 55.85 72.5924 56.81C72.8724 58.84 73.3424 60.9599 74.7224 62.5599C74.6624 62.9599 74.7524 63.44 74.3924 63.72C73.7324 63.88 73.0024 63.57 72.7624 62.92C71.7324 61.38 71.2324 59.6 70.8724 57.81C70.8924 56.52 70.9724 55.27 70.9424 53.99C70.9224 53.29 70.9024 52.61 70.9024 51.93C71.5524 49.25 71.5024 45.8 74.2124 44.25L74.1924 44.26Z" fill="#F7F7F7"/>
<path d="M139.962 0C140.132 0.01 140.462 0.029978 140.632 0.039978C141.352 1.01998 141.192 2.33999 141.392 3.48999C140.992 3.75999 141.452 5.18999 142.112 4.92999C143.142 4.94999 144.192 4.95 145.252 4.94C145.612 5.27 146.092 5.60999 145.922 6.17999C145.452 6.57999 144.842 6.71999 144.262 6.82999C143.612 6.98999 142.182 6.32999 141.932 6.98999C141.962 8.17999 142.292 9.32999 142.422 10.52C142.472 11.83 142.852 13.09 142.902 14.41C142.622 14.77 142.242 15.13 141.752 14.95C141.452 14.65 141.212 14.3 140.992 13.95C140.682 11.98 140.502 9.99998 140.162 8.03998C140.162 7.68998 140.162 7.33999 140.162 6.98999C139.842 7.02999 139.202 7.10999 138.882 7.14999C137.642 7.19999 136.472 7.76 135.242 7.72C134.662 7.29 134.892 6.34998 135.512 6.06998C136.802 5.43998 138.292 5.53998 139.662 5.19998C139.752 3.57998 139.222 1.96998 139.502 0.349976C139.622 0.259976 139.852 0.09 139.972 0H139.962Z" fill="#F6F6F6"/>
<path d="M118.752 14.9C118.032 13.81 119.102 13.2799 119.872 13.5099C121.102 15.2099 122.132 17.06 123.402 18.74C123.562 18.91 123.782 19.46 124.082 19.16C125.502 17.98 126.452 16.35 127.722 15.02C128.752 14.74 129.172 15.99 128.642 16.72C127.492 18.07 126.352 19.4399 125.152 20.7299C125.582 21.7999 126.572 22.48 127.342 23.3C127.842 23.97 128.852 23.8899 129.382 24.5399C129.682 25.6899 128.032 26.08 127.242 25.68C125.702 24.95 125.032 23.18 123.672 22.24C122.312 23.25 120.852 24.73 118.972 24.22C118.532 23.95 118.442 23.02 118.992 22.83C120.402 22.48 121.612 21.71 122.652 20.7C122.222 20.07 121.682 19.52 121.212 18.97C120.432 17.58 119.442 16.33 118.742 14.91L118.752 14.9Z" fill="#F6F6F6"/>
<path d="M152.372 39.44C152.592 36.71 153.312 33.35 156.192 32.25C157.362 32.13 158.382 33.35 158.172 34.49C158.242 37.13 156.422 39.23 154.472 40.77C154.772 41.83 155.272 42.82 155.842 43.76C156.062 44.04 156.322 44.3 156.592 44.56C157.242 45.45 158.552 44.31 159.342 45.06C160.372 46.37 157.902 47.19 156.942 46.98C154.642 46.16 153.442 43.84 152.752 41.66C152.582 40.87 151.532 41.32 151.072 40.82C150.962 39.94 151.772 39.77 152.382 39.43L152.372 39.44ZM156.242 34.33C155.042 35.24 154.622 36.84 154.412 38.27C155.772 37.43 156.382 35.75 156.422 34.21L156.242 34.32V34.33Z" fill="#F6F6F6"/>
<path d="M176.722 34.8199C177.272 34.8899 177.922 35.31 177.632 35.96C176.682 37.61 176.222 39.64 176.962 41.47C178.442 41.68 179.362 40.22 180.492 39.55C181.502 38.84 181.842 39.88 182.222 40.44C182.212 41.13 182.212 41.8299 182.222 42.5399C181.482 46.4699 180.782 50.49 179.082 54.15C178.632 55.23 176.752 55.42 176.422 54.22C175.732 52.84 177.152 52.71 177.832 52.16C177.962 51.78 178.072 51.4099 178.192 51.0399C178.722 49.4699 179.092 47.86 179.522 46.27C179.852 44.95 180.272 43.62 180.192 42.25C179.372 42.64 178.632 43.38 177.672 43.25C176.252 43.55 175.042 42.3599 174.822 41.0699C174.852 40.0799 174.932 39.16 174.882 38.19C175.302 37 175.332 35.3199 176.722 34.8199Z" fill="#F6F6F6"/>
<path d="M162.922 36.6799C164.022 36.7699 164.302 37.8099 163.912 38.7099C164.742 37.9799 166.072 38.0299 166.892 38.7699C168.482 40.5999 169.142 42.9799 169.602 45.2999C169.852 46.2699 169.822 47.8899 168.222 47.2199C167.402 45.6699 167.452 43.7999 166.702 42.2099C166.382 41.3399 166.012 40.4399 165.202 39.9299C164.712 40.6499 164.142 41.3599 163.912 42.2199C163.552 43.0399 163.292 43.9099 162.882 44.7199C160.932 45.4999 161.422 43.1799 161.522 42.2699C162.092 40.4399 161.832 38.3099 162.922 36.6699V36.6799Z" fill="#F6F6F6"/>
<path d="M215.492 41.07C215.882 39.52 217.112 38.08 218.922 38.48C219.832 38.93 220.862 39.59 220.932 40.74C221.602 42.19 220.762 43.64 220.222 44.99C220.812 46.66 221.272 48.51 220.682 50.25C220.292 51.97 218.782 53.26 217.132 53.75C216.712 53.75 215.882 53.75 215.472 53.75C214.512 53.55 213.912 52.51 214.212 51.55C214.592 50.91 215.622 51.1 215.992 51.68C216.362 52.3 216.972 51.68 217.422 51.48C219.392 50.56 219.182 48.08 218.642 46.32C217.112 46.98 215.272 46.3 215.182 44.5C215.162 43.82 215.162 43.15 215.182 42.49C215.162 41.99 215.352 41.54 215.492 41.08V41.07ZM218.242 40.34C218.102 40.39 217.842 40.48 217.712 40.53C217.472 41.59 218.392 42.45 219.172 43.02C219.152 42.08 219.492 40.45 218.242 40.34Z" fill="#F6F6F6"/>
<path d="M131.752 39.54C132.042 39.54 132.332 39.54 132.622 39.57C133.222 39.7 133.922 39.8401 134.182 40.4901C134.592 40.9801 133.992 41.44 133.712 41.82C132.202 40.81 130.272 41.5201 128.962 42.5601C128.502 43.4601 129.932 43.02 130.502 42.86C131.522 42.5 132.512 41.9 133.642 41.98C135.092 42.46 135.242 44.31 135.592 45.57C135.872 47.78 135.132 50.56 132.862 51.45C131.852 51.89 130.612 52.23 129.662 51.51C128.962 51.01 128.912 49.73 129.732 49.29C130.432 48.96 130.742 50.07 131.382 49.98C133.992 49.42 134.252 45.9701 133.122 44.0001C131.902 43.9701 130.952 45.1201 129.672 44.7501C128.232 45.0701 126.482 43.65 127.242 42.08C127.752 40.76 129.242 40.19 130.492 39.73C130.912 39.73 131.362 39.73 131.752 39.55V39.54Z" fill="#F6F6F6"/>
<path d="M57.6924 51.5399C58.2924 51.2499 58.9224 51.2599 59.6124 51.2899C60.7924 51.4899 62.0224 51.5399 63.2224 51.4199C63.7224 51.6399 64.4024 51.9999 64.1224 52.6699C63.4624 53.7399 61.9624 52.98 60.9824 53.24L60.7424 53.21C59.8624 52.99 59.0024 52.97 58.1124 53.03C57.5624 52.72 57.4224 52.2199 57.6924 51.5399Z" fill="#F6F6F6"/>
<path d="M147.642 7.96002C148.322 6.28002 149.912 5.18002 151.602 4.65002C152.282 4.66002 152.982 4.68002 153.692 4.71002C154.562 5.16002 155.702 5.26003 156.362 6.06003C156.692 7.50003 156.772 8.97001 157.012 10.42C156.922 11.35 156.912 12.35 156.992 13.3C156.892 15.23 155.442 16.82 153.672 17.48C152.272 18.23 150.212 18.41 149.362 16.78C149.242 15.89 149.622 14.84 150.692 14.93C150.862 15.26 151.052 15.59 151.252 15.92C152.682 16.25 154.112 15.27 154.742 14.04C154.802 13.91 154.922 13.66 154.982 13.53C155.322 12.27 155.152 10.93 154.982 9.67001C154.942 9.26001 154.912 8.85001 154.872 8.45001C153.722 9.45001 152.742 10.72 151.332 11.39C150.272 11.84 148.812 11.8 148.102 10.79C147.432 10 147.722 8.89003 147.632 7.94003L147.642 7.96002ZM152.882 6.26001C151.312 6.45001 149.122 7.51003 149.452 9.44003C149.892 10.04 150.772 9.70002 151.232 9.30002C152.082 8.43002 153.122 7.66001 153.662 6.54001C153.402 6.43001 153.132 6.34001 152.882 6.26001Z" fill="#F8F8F8"/>
<path d="M85.5224 5.57002C86.8124 4.67002 87.4124 6.53005 86.4924 7.06005C84.8024 8.32005 84.1024 10.36 83.5224 12.3C83.1224 14.33 82.5824 16.35 82.6124 18.4401C82.4324 20.8701 82.1424 23.39 82.5924 25.82C82.7824 27.76 83.2324 29.67 83.8024 31.55C84.1224 32.57 84.4024 33.73 85.3524 34.36C86.3124 35.67 83.9524 36.46 83.5024 35.43C81.7624 32.34 81.1424 28.79 80.5824 25.33C80.6924 22.87 80.6924 20.41 80.6224 17.95C81.3724 14.61 81.2124 10.98 83.1524 8.00005C83.6324 6.94005 84.5624 6.21004 85.5124 5.59004L85.5224 5.57002Z" fill="#F8F8F8"/>
<path d="M53.4924 16.2899C54.4024 15.9099 55.1423 16.8499 54.9223 17.7099C53.7323 18.1099 53.7123 19.5599 54.0723 20.5799C54.3523 21.9399 55.6124 23.2699 57.1524 22.7499C58.4024 22.1799 59.1223 21.0299 59.9823 20.0299C61.2223 19.3199 61.5223 20.6499 61.7623 21.4199C61.7023 22.5099 61.6623 23.6299 61.6623 24.7399C61.6523 25.9899 61.6323 27.2799 61.7323 28.5499C61.6923 29.9599 61.3924 31.3899 60.8924 32.7199C60.2724 34.4999 58.5524 35.4999 56.9024 36.1799C56.4124 36.2599 55.9423 36.3899 55.4723 36.5199C54.5723 36.4899 53.7424 36.4999 52.8624 36.5499C51.7524 36.3799 50.4923 34.8099 51.6023 33.9099C52.3623 33.2899 53.0724 34.3899 53.7124 34.7199C54.8024 34.8099 55.9123 34.4199 56.9223 33.9999C58.7623 33.3799 59.5724 31.3399 59.7424 29.5499C60.0424 27.3599 59.9124 25.1499 59.9024 22.9699C59.7424 23.1099 59.5923 23.2499 59.4523 23.3999C58.3723 24.2099 57.0023 25.0699 55.5923 24.5899C52.1923 23.8299 50.8824 18.5699 53.4924 16.2899Z" fill="#F8F8F8"/>
<path d="M67.9524 22.0399C68.7524 21.3399 69.8824 21.4399 70.8624 21.1799C72.3924 21.2499 73.9324 21.2399 75.4824 21.1999C76.2824 21.5799 76.3323 22.4599 75.6623 22.9999C75.2623 22.9999 74.8724 22.9799 74.4824 22.9599C73.6724 22.7799 72.8924 22.6299 72.1124 22.9199C71.3124 23.0399 70.4924 23.0399 69.7324 23.3299C68.6724 23.5699 67.5824 23.1899 67.9524 22.0499V22.0399Z" fill="#F8F8F8"/>
<path d="M69.4724 24.52C70.1924 24.41 70.8824 24.8 71.6024 24.82C72.5324 24.97 73.5424 25.06 74.4924 24.84C75.6124 24.75 77.3824 23.82 77.9124 25.24C77.5324 26.23 76.3524 26.4 75.4224 26.49C73.9124 26.48 72.4124 26.48 70.9124 26.49C69.9024 26.65 68.4824 25.41 69.4724 24.52Z" fill="#F8F8F8"/>
<path d="M203.512 36.09C205.892 36.58 204.982 32.1999 207.352 33.0199C208.192 33.7099 207.192 34.74 206.932 35.5C207.712 35.41 208.562 35.33 209.352 35.16C210.532 35.19 211.762 35.24 212.972 35.19C213.512 35.43 213.862 36.4999 213.232 36.7899C212.392 36.7399 211.622 36.63 210.842 36.9C209.322 37.18 207.692 37.0399 206.242 37.5399C205.712 39.1999 205.372 40.92 205.352 42.66C205.172 43.41 205.052 44.2699 205.322 45.0399C205.422 45.6799 205.442 47.1299 206.442 46.7999C207.052 46.6499 207.532 47.16 207.672 47.72C207.512 48.16 207.012 48.39 206.692 48.72C206.262 48.71 205.412 48.6899 204.972 48.6799C204.192 48.0899 203.762 47.21 203.592 46.28C203.632 44.56 203.712 42.86 203.602 41.16C203.762 40.03 204.162 38.9299 204.152 37.7899C203.542 37.7499 202.872 37.6 202.632 36.97C202.822 36.59 203.162 36.2999 203.502 36.0699L203.512 36.09Z" fill="#F8F8F8"/>
<path d="M107.422 39.25C106.072 39.02 106.622 36.55 108.092 37.55C110.812 39.23 112.352 42.26 113.522 45.15C114.572 48.47 115.432 51.92 115.502 55.42C115.442 56.1 115.322 56.88 115.622 57.56C115.642 57.93 115.642 58.3 115.642 58.68C115.502 59.33 115.452 60.09 115.482 60.79C115.322 64.28 114.432 67.72 112.932 70.88C112.682 71.24 112.442 71.62 112.122 71.94C111.462 72.06 110.742 71.29 111.072 70.65C112.102 67.76 113.312 64.9 113.492 61.79C113.562 61 113.692 60.29 113.752 59.53C113.862 58.41 114.142 57.25 113.772 56.17C113.672 55.37 113.742 54.65 113.522 53.91C113.382 52.39 113.182 50.87 112.762 49.41C112.542 48.49 112.282 47.58 111.992 46.7C111.312 43.83 109.852 41 107.442 39.23L107.422 39.25Z" fill="#F8F8F8"/>
<path d="M94.8124 15.59C95.5324 15.57 96.0624 16.22 95.8824 16.93C95.3424 17.83 94.1624 17.18 93.4224 17.74C93.0024 18.05 92.1724 18.23 92.4624 18.93C93.8324 20.32 95.4124 21.5501 96.3624 23.3101C96.8924 24.8201 95.9424 26.26 94.6824 26.99C93.1224 27.87 91.2524 28.1701 89.4924 27.9401C88.6924 27.4801 88.8824 26.46 89.2424 25.76C90.1624 24.91 90.5024 26.56 91.2624 26.11C92.4624 25.7 94.1824 25.61 94.6824 24.24C93.7424 21.89 90.2724 20.9201 90.6924 18.0001C91.2124 16.3601 93.2924 15.75 94.8224 15.59H94.8124Z" fill="#F5F5F5"/>
<path d="M227.442 37.99C227.712 37.47 227.652 36.43 228.862 37.27C230.132 38.58 230.512 40.47 231.452 42C233.262 40.94 234.782 39.43 235.972 37.71C236.542 37.81 237.052 38.12 237.172 38.73C236.852 39.58 236.262 40.28 235.672 40.95C234.602 41.91 233.382 42.7 232.402 43.75C232.822 45.04 233.542 46.22 234.322 47.34C234.822 48.07 233.872 49.11 232.992 48.46C231.992 47.51 231.442 46.23 230.862 45.02C229.812 45.24 228.932 45.94 227.912 46.22C227.232 46.44 226.492 45.72 226.712 45.04C227.642 44.21 228.892 43.84 229.952 43.2C229.272 41.4 228.322 39.7 227.452 37.99H227.442Z" fill="#F5F5F5"/>
<path d="M144.982 38.2799C145.732 37.9699 146.302 38.4999 146.252 39.2699C145.392 40.8199 143.922 41.8299 142.632 42.9899C143.452 44.0399 144.462 44.9899 145.712 45.4999C145.772 47.2399 143.502 46.9499 142.692 45.9299C142.202 45.4199 141.772 44.8499 141.352 44.2799C140.582 44.1599 139.922 44.8899 139.182 44.9799C138.072 45.5899 137.442 44.6199 137.722 43.7899C138.272 43.0899 139.272 43.2499 139.932 42.7199C139.362 41.5799 138.442 40.6299 137.942 39.4699C137.722 38.7199 138.492 37.9299 139.372 38.5099C140.062 39.4899 140.512 40.7399 141.432 41.4999C142.882 40.7899 143.902 39.4399 144.992 38.2799H144.982Z" fill="#F5F5F5"/>
<path d="M104.702 49.56C105.112 48.96 106.072 49.1899 106.352 49.8199C106.982 51.2599 107.342 52.81 108.002 54.25C109.242 52.96 110.432 51.5399 111.052 49.8499C111.152 49.3099 111.772 49.55 112.172 49.47C112.402 49.85 112.812 50.22 112.662 50.72C111.892 52.7 110.422 54.2799 109.002 55.8199C108.682 56.4499 109.212 57.05 109.552 57.55C110.212 58.64 111.082 59.5899 111.662 60.7399C111.472 61.3299 111.212 62.0799 110.252 61.4399C109.002 60.3899 108.272 58.89 107.382 57.56C106.592 57.56 105.072 58.22 105.172 56.99C105.022 56.16 106.272 56.13 106.412 55.47C105.982 53.47 104.642 51.65 104.702 49.56Z" fill="#F5F5F5"/>
<path d="M81.6724 49.98C82.6224 49.63 84.1924 49.48 84.4124 50.75C84.5224 51.64 83.3224 51.73 82.6924 51.55C82.2324 51.67 81.2224 51.73 81.4824 52.42C82.5324 53.64 84.5524 54.71 83.8824 56.66C83.1024 57.76 81.8624 58.27 80.6424 58.68L80.4524 58.74C80.0024 58.76 79.0924 58.7999 78.6324 58.8199L78.4424 58.8C77.9624 58.2 77.4724 57.09 78.2324 56.53C78.5624 56.03 79.2324 56.22 79.6324 56.53C80.4824 57.13 81.4124 56.32 82.1924 55.97C81.5924 54.58 80.0424 53.86 79.4324 52.46C78.9424 50.96 80.6024 50.32 81.6824 49.97L81.6724 49.98Z" fill="#F5F5F5"/>
<path d="M57.9124 54.76C58.3924 54.86 58.8724 54.98 59.3624 55.05C61.1224 55.27 62.9924 55.43 64.7424 55.04C65.2224 54.97 65.7024 55.06 66.1424 55.29C66.1024 55.65 66.0324 56.37 65.9924 56.73C63.3624 56.96 60.6823 57.22 58.0923 56.57C57.6023 56.42 57.2124 55.99 57.1724 55.48C57.4124 55.23 57.6624 54.99 57.9124 54.76Z" fill="#F5F5F5"/>
<path d="M205.332 45.0599C205.072 44.2999 205.182 43.4399 205.362 42.6799C205.402 43.4799 205.302 44.2299 205.332 45.0599Z" fill="#BEBEBE"/>
<path d="M43.2024 44.76C43.3324 44.01 44.4224 43.64 44.8924 44.29C44.5024 46.3 45.0724 48.47 46.3524 50.05C47.0624 50.75 48.0924 50.49 48.7224 49.83C49.8624 49.22 50.2724 47.84 51.2224 47.01C52.0724 46.75 52.8224 47.37 52.9924 48.18C52.9324 48.91 52.9224 49.71 52.9224 50.48C52.8824 51.19 52.9224 51.98 52.9224 52.73C52.8924 53.62 52.9224 54.58 52.9424 55.49C52.9424 55.92 52.9524 56.8 52.9624 57.23C52.5624 58.03 52.6424 58.59 53.2124 58.93C53.1924 59.67 53.0224 60.55 53.3624 61.28C53.8324 61.92 53.4824 62.58 52.9024 62.98C52.0924 62.91 51.5424 62.29 51.3524 61.54C51.3524 60.71 51.5124 59.94 51.2724 59.16C51.2024 58.78 51.1524 58.41 51.0924 58.04C51.2124 55.42 51.1924 52.79 51.1524 50.18C50.9924 50.32 50.8424 50.46 50.6924 50.62C49.9324 51.36 49.0524 52.22 47.9324 52.24C46.6324 52.46 45.5624 51.84 44.6924 50.99C43.6824 49.11 42.5124 46.93 43.2124 44.75L43.2024 44.76Z" fill="#F9F9F9"/>
<path d="M196.922 45.84C197.772 45.58 199.072 45.77 198.392 47.18C197.102 47.79 195.632 47.95 194.242 48.08C192.622 47.98 191.022 47.98 189.412 47.99C188.652 47.93 187.882 48.01 187.192 47.69C186.482 46.09 188.152 46.05 189.122 46.29C190.622 46.45 192.242 46.74 193.742 46.32C194.802 46.18 195.872 46.11 196.922 45.84Z" fill="#F9F9F9"/>
<path d="M86.8824 52.9399C87.5724 51.7099 89.4624 52.7699 88.7724 54.1799C88.6524 56.0399 88.6724 57.9199 88.7324 59.7999C88.4124 60.5299 87.1624 60.4199 87.1124 59.5699C87.1124 58.1899 87.3324 56.7999 86.9724 55.4599C86.9524 55.3599 86.8924 55.1599 86.8724 55.0599C86.8724 54.3399 86.8724 53.6399 86.8824 52.9499V52.9399Z" fill="#F9F9F9"/>
<path d="M72.1124 22.91C72.8924 22.62 73.6724 22.77 74.4824 22.95C73.6924 22.97 72.8624 22.89 72.1124 22.91Z" fill="#AEAEAE"/>
<path d="M92.3824 55.68C92.8224 54.39 93.3524 52.65 94.9324 52.48C97.3224 51.98 98.3324 54.61 99.1524 56.31C99.4124 57.67 99.8624 59.06 99.9024 60.47C99.7324 61.08 99.4524 61.85 98.4724 61.22C97.7624 60.4 97.9724 59.19 97.6624 58.24C97.3124 56.76 96.8024 55.04 95.4324 54.23C93.7924 55.07 93.7524 57.5 94.8224 58.85C95.1424 59.28 94.6324 59.68 94.4224 60.03C93.2024 60.06 92.6224 58.81 92.3424 57.82C92.3424 57.09 92.3624 56.38 92.3924 55.69L92.3824 55.68Z" fill="#F4F4F4"/>
<path d="M189.122 46.29C190.652 46.23 192.192 46.23 193.742 46.32C192.242 46.74 190.622 46.45 189.122 46.29Z" fill="#656465"/>
<path d="M191.732 41.5499C192.012 41.4999 192.312 41.4599 192.612 41.4199C193.832 41.4999 195.032 41.4499 196.272 41.4199C197.202 42.0799 196.452 43.4599 195.392 43.2699C194.982 43.2799 194.152 43.2999 193.742 43.3099C192.842 43.2399 192.042 43.2299 191.172 43.2299C190.142 43.2299 189.122 43.2499 188.112 43.2999C187.252 43.2499 187.152 41.9999 187.872 41.6799C189.162 41.7599 190.442 41.7599 191.732 41.5399V41.5499Z" fill="#FAFAFA"/>
<path d="M106.612 18.9299C106.792 17.9299 107.212 16.3999 108.672 16.9899C108.592 17.8099 108.462 18.67 108.422 19.5C109.172 19.3 109.822 18.8399 110.672 18.9899C112.922 18.8499 114.632 20.6099 115.852 22.2999C116.362 23.3999 116.932 24.4899 117.262 25.6699C117.202 26.4299 117.212 27.26 117.232 28.06C117.212 29.06 116.382 29.99 115.412 29.28C115.252 28.09 115.742 26.8 115.232 25.69C115.052 25.29 114.822 24.9099 114.692 24.4899C114.412 23.4199 113.622 22.5699 112.892 21.7899C111.792 20.8499 109.702 20.4899 108.762 21.8199C108.082 23.1999 108.972 24.7399 108.662 26.1999C107.952 27.1399 106.592 26.33 106.602 25.31C106.602 24.34 106.692 23.44 106.682 22.5C106.662 21.3 106.682 20.12 106.622 18.94L106.612 18.9299Z" fill="#F8F7F7"/>
<path d="M115.472 60.8C115.452 60.1 115.492 59.3399 115.632 58.6899C115.662 59.4099 115.512 60.05 115.472 60.8Z" fill="#ADADAD"/>
<path d="M120.182 37.25C120.092 36.52 121.612 35.7399 121.672 36.7299C121.692 38.0799 121.562 39.46 121.842 40.8C121.892 41.94 123.792 40.9399 124.352 41.5399C125.042 41.8799 124.502 42.89 123.912 42.97C123.242 42.95 122.582 42.96 121.932 43C121.882 44.48 121.932 45.98 121.912 47.47C121.892 48.2 120.432 48.2 120.432 47.47C120.352 46.44 120.482 45.4 120.262 44.4L120.222 44.2C120.192 43.79 120.172 43.39 120.132 42.99C119.282 42.93 118.512 42.98 117.682 42.96C117.072 42.95 117.132 42.1799 117.192 41.7599C117.952 41.1599 118.992 41.3 119.922 41.21L120.162 41.19C120.172 39.86 120.182 38.54 120.182 37.24V37.25Z" fill="#FBFBFB"/>
<path d="M72.5824 56.8099C72.3824 55.8499 72.4124 54.8699 72.6124 53.9299C72.7124 54.8999 72.6124 55.8199 72.5824 56.8099Z" fill="#BFBFBF"/>
<path d="M151.602 4.64992C152.252 4.41992 152.892 4.46993 153.612 4.46993L153.692 4.70992C152.982 4.67992 152.282 4.65992 151.602 4.64992Z" fill="#7E7D7D"/>
<path d="M157.012 10.4199C157.232 11.3599 157.182 12.3399 156.992 13.2999C156.902 12.3499 156.922 11.3599 157.012 10.4199Z" fill="#9E9E9E"/>
<path d="M101.482 16.03C102.222 15.7 103.312 16.5 102.712 17.27C102.142 18.14 100.452 16.72 101.482 16.03Z" fill="#E6E5E5"/>
<path d="M133.242 20.4299C133.422 21.2899 133.422 22.1599 133.242 23.0499C133.182 22.1799 133.182 21.2699 133.242 20.4299Z" fill="#989798"/>
<path d="M106.422 22.49H106.682C106.702 23.43 106.612 24.33 106.602 25.3C106.452 24.36 106.392 23.42 106.422 22.49Z" fill="#B1B1B1"/>
<path d="M61.6724 24.74H61.9224C61.9324 26.01 61.9124 27.27 61.7424 28.55C61.6424 27.28 61.6624 25.99 61.6724 24.74Z" fill="#AAAAAA"/>
<path d="M71.6124 24.82C72.5524 24.73 73.5524 24.6501 74.5024 24.8401C73.5524 25.0601 72.5424 24.98 71.6124 24.82Z" fill="#CAC9C9"/>
<path d="M115.232 25.6799C115.732 26.7899 115.252 28.0799 115.412 29.2699C114.722 28.4099 115.432 26.7499 115.232 25.6799Z" fill="#7B7A7A"/>
<path d="M121.672 36.74H121.922C121.952 38.1 121.922 39.45 121.852 40.81C121.572 39.46 121.702 38.08 121.682 36.74H121.672Z" fill="#E0DFDF"/>
<path d="M210.862 36.91C211.632 36.64 212.402 36.74 213.252 36.8C212.542 37.23 211.602 36.83 210.862 36.91Z" fill="#808080"/>
<path d="M203.602 46.2999C203.302 44.6099 203.322 42.8599 203.612 41.1799C203.722 42.8799 203.642 44.5799 203.602 46.2999Z" fill="#878787"/>
<path d="M188.112 43.31C189.122 43.26 190.142 43.24 191.172 43.24V43.5C190.142 43.47 189.092 43.52 188.112 43.31Z" fill="#C7C6C7"/>
<path d="M120.262 44.41C120.482 45.41 120.352 46.44 120.432 47.48H120.182C120.112 46.45 120.142 45.42 120.262 44.41Z" fill="#D6D5D5"/>
<path d="M189.422 47.99C191.032 47.97 192.622 47.98 194.252 48.08C192.682 48.47 191.022 48.13 189.442 48.23V47.99H189.422Z" fill="#ABAAAA"/>
<path d="M88.7324 48.52C89.0724 48.63 90.6324 48.1 90.6724 49.01C90.9324 49.79 90.0624 50.2 89.4224 50.25C88.5624 50.35 88.0024 49.03 88.7324 48.52Z" fill="#ECECEC"/>
<path d="M52.9224 50.49H53.1724C53.1724 51.24 53.1424 51.94 53.1724 52.74H52.9224C52.9224 51.99 52.8824 51.2 52.9224 50.49Z" fill="#8A8A8A"/>
<path d="M52.9224 52.74H53.1724C53.1924 53.67 53.1324 54.55 53.1424 55.5H52.9524C52.9324 54.59 52.9024 53.63 52.9324 52.74H52.9224Z" fill="#A3A3A3"/>
<path d="M70.6724 53.99H70.9224C70.9424 55.26 70.8724 56.51 70.8524 57.8C70.7724 57.53 70.7124 57.26 70.6624 57C70.6824 56.17 70.6424 55.28 70.6624 54.48C70.6624 54.36 70.6624 54.11 70.6624 53.99H70.6724Z" fill="#7D7D7D"/>
<path d="M52.9524 55.5H53.1424C53.1424 55.94 53.1324 56.81 53.1224 57.24H52.9624C52.9624 56.8 52.9524 55.93 52.9424 55.5H52.9524Z" fill="#BBBBBB"/>
<path d="M86.9724 55.4499C87.3224 56.7899 87.1124 58.1799 87.1124 59.5599C87.0224 59.2899 86.9424 59.0199 86.9024 58.7499C86.9324 57.6399 86.9424 56.5299 86.9824 55.4399L86.9724 55.4499Z" fill="#D0CFCF"/>
<path d="M115.502 55.4199C115.742 56.1099 115.582 56.7999 115.622 57.5599C115.322 56.8799 115.442 56.0999 115.502 55.4199Z" fill="#B4B3B3"/>
<path d="M113.762 56.1799C114.132 57.2599 113.852 58.4199 113.742 59.5399C113.712 59.3899 113.662 59.0999 113.632 58.9399C113.662 58.2199 113.602 57.4599 113.632 56.7799C113.662 56.6299 113.732 56.3299 113.762 56.1799Z" fill="#E3E2E2"/>
<path d="M52.9724 57.24H53.1324C53.1524 57.67 53.2024 58.52 53.2224 58.94C52.6524 58.6 52.5724 58.03 52.9724 57.24Z" fill="#DBDBDB"/>
<path d="M51.2724 59.1799C51.5224 59.9599 51.3424 60.7299 51.3524 61.5599C51.1424 60.9599 51.0824 60.3399 51.1724 59.7099C51.1924 59.5699 51.2424 59.3099 51.2724 59.1799Z" fill="#7C7B7B"/>
</svg>
