<svg width="268" height="124" viewBox="0 0 268 124" fill="none" xmlns="http://www.w3.org/2000/svg">
<path d="M177.466 63.8859C176.846 63.8446 176.619 62.8532 177.28 62.7292H178.43C179.641 62.9083 180.915 62.9564 182.051 63.4659V64.2508C182.003 64.299 181.907 64.3954 181.858 64.4435C180.385 64.3403 178.932 64.0442 177.466 63.8928V63.8859Z" fill="#F6F6F6"/>
<path d="M263.849 87.3423C264.64 87.4524 265.411 87.7485 266.231 87.6934C267.078 87.3974 267.498 88.2166 267.986 88.6848C267.973 89.1736 267.986 89.6555 268 90.1444C267.429 92.8501 266.506 95.4663 265.845 98.1444C265.714 98.468 265.329 98.3578 265.06 98.351C264.427 97.7313 264.812 96.8363 264.985 96.1065C265.611 93.8483 266.541 91.6383 266.74 89.2838C266.086 88.7812 265.102 89.1117 264.365 88.8432C263.986 88.6779 263.463 88.6297 263.353 88.1616C263.133 87.7554 263.587 87.5488 263.849 87.3423Z" fill="#F6F6F6"/>
<path d="M181.005 89.2078C181.239 88.6433 182.154 88.8705 182.216 89.4281C182.292 90.3782 182.12 91.3903 182.45 92.306C182.43 92.5951 182.416 92.8843 182.375 93.1734C181.707 93.6141 181.101 92.7603 181.101 92.1338C181.053 91.9273 181.012 91.7276 180.977 91.5211C180.998 90.7431 181.018 89.972 181.005 89.2009V89.2078Z" fill="#F6F6F6"/>
<path d="M136.674 36.4294C137.886 36.0714 138.581 37.3313 139.552 37.7857C140.123 38.3365 141.218 38.4742 141.445 39.3348C141.596 39.8305 140.729 40.1265 140.426 39.8373C139.476 39.2384 138.533 38.6463 137.652 37.9716C137.342 37.3864 136.653 37.827 136.302 37.407C136.185 37.0146 136.337 36.6497 136.674 36.4363V36.4294Z" fill="#F5F5F5"/>
<path d="M156.089 64.113C156.77 64.1543 157.548 64.0511 158.134 64.4848C158.23 64.8841 158.134 65.2903 157.679 65.3729C156.943 65.3523 156.22 65.2766 155.517 65.4349C154.96 65.5175 154.402 65.5451 153.865 65.6896C153.5 65.6828 153.135 65.6483 152.798 65.5175C152.564 64.2645 154.003 64.3747 154.857 64.2576C155.373 64.5055 155.786 64.4573 156.089 64.1199V64.113Z" fill="#F5F5F5"/>
<path d="M181.259 81.5521C182.141 81.3938 181.989 82.6881 182.099 83.2114C182.086 84.0857 182.609 84.8981 182.561 85.7725C181.941 86.4678 180.915 85.3732 181.135 84.664C181.06 83.6795 180.764 82.7088 180.881 81.7174C180.977 81.6761 181.163 81.6003 181.259 81.559V81.5521Z" fill="#F5F5F5"/>
<path d="M139.104 40.3125C139.373 41.3934 139.125 42.5363 139.207 43.6309H139.035C139.022 42.5225 139.035 41.4141 139.104 40.3125Z" fill="#BEBEBE"/>
<path d="M137.879 39.5206C138.533 39.1558 139.028 39.7754 139.104 40.3124C139.035 41.4208 139.022 42.5293 139.035 43.6308C139.035 44.9527 139.028 46.2746 139.035 47.5895C139.022 48.1197 138.96 48.6773 139.166 49.1799C139.187 49.2488 139.235 49.3796 139.256 49.4484C139.283 50.4949 139.035 51.6033 139.331 52.6292C139.366 52.9459 139.393 53.2626 139.428 53.5793C139.393 54.5225 139.324 55.4726 139.51 56.4089C139.538 56.6705 139.565 56.9252 139.607 57.18C139.607 58.0061 139.407 58.8736 139.669 59.686C139.703 59.8857 139.744 60.0784 139.786 60.2781C139.744 60.9941 139.676 61.7308 139.841 62.4399C139.875 62.6946 139.91 62.9494 139.958 63.2041C139.91 63.8031 139.82 64.4296 140.02 65.0217C140.054 65.2764 140.089 65.5311 140.13 65.7859C140.082 66.3298 140.006 66.9012 140.185 67.4313C140.22 67.631 140.261 67.8238 140.302 68.0234C140.261 68.5122 140.206 69.0148 140.357 69.4967C140.378 69.6964 140.405 69.8961 140.44 70.0957C141.073 70.0131 141.934 69.4554 142.464 70.0062C142.767 71.1353 141.218 70.9563 140.591 71.3694C140.557 72.4365 140.798 73.4899 140.818 74.557C141.294 75.1835 142.312 73.9718 142.946 74.4882C143.283 74.6052 143.159 74.9976 143.159 75.273C142.526 75.7687 141.672 75.755 140.949 76.0166C141.3 77.9856 141.245 80.0097 141.672 81.965C141.658 82.4469 141.479 82.9977 141.755 83.4383C142.395 83.8307 143.524 82.5915 144.185 83.4383C144.364 84.7946 141.803 84.1543 141.961 85.4487C141.755 85.9444 141.803 86.3574 142.113 86.681C142.12 86.9013 142.133 87.1216 142.154 87.342C141.927 87.8377 141.968 88.2507 142.278 88.5743C142.292 88.8359 142.299 89.1044 142.34 89.3661C142.67 89.4418 143.008 89.4969 143.325 89.6277C143.497 90.1027 143.393 90.4401 143.022 90.6397C142.113 90.3919 142.471 91.5072 142.595 92.0511C142.732 93.4074 142.87 94.7637 143.035 96.1269C142.781 96.6432 142.815 97.0563 143.132 97.373C143.187 97.4074 143.297 97.4832 143.345 97.5176C144.798 96.4436 146.154 95.2387 147.545 94.0821C152.24 90.2129 156.915 86.323 161.603 82.44C166.733 78.199 171.917 74.0131 176.97 69.6826C178.54 68.526 179.993 67.211 181.507 65.9787C181.659 65.7446 181.962 65.2695 182.113 65.0354C182.402 64.7394 182.884 64.822 183.215 64.5811C187.043 61.4141 190.864 58.2333 194.678 55.0526C195.091 54.7359 195.518 54.3435 196.02 54.1507C196.633 54.1025 196.901 54.8874 196.475 55.3073C191.435 59.5001 186.333 63.631 181.349 67.8857C172.061 75.4796 162.891 83.1973 153.617 90.7981C151.056 92.9324 148.502 95.0597 145.941 97.1871C145.438 97.5038 146.368 97.2973 146.581 97.3248C147.235 97.3592 147.889 97.3248 148.55 97.2215C148.743 97.194 148.949 97.1596 149.156 97.1251C149.851 97.1114 150.609 97.2628 151.318 97.0632C151.428 97.0356 151.634 96.9806 151.745 96.953C152.557 96.9186 153.438 97.1665 154.244 96.8911C154.712 96.8566 155.256 96.8635 155.745 96.8153C155.765 96.2439 155.579 95.7138 155.586 95.1561C155.793 94.8532 156.357 94.8463 156.571 95.1561C156.97 95.5417 156.77 96.1957 156.998 96.657C157.418 96.6708 157.844 96.657 158.278 96.6294C159.152 96.6019 160.082 96.8153 160.956 96.5537C161.149 96.5124 161.349 96.4711 161.548 96.4367C162.299 96.4642 163.077 96.5193 163.848 96.4849C163.834 96.299 163.786 96.12 163.724 95.9479C163.455 95.2525 163.104 94.5572 163.159 93.7861C163.4 93.4281 164.027 93.4831 164.22 93.8756C164.633 94.564 164.777 95.3902 165.053 96.1475L165.101 96.299C166.113 96.2852 167.18 96.4849 168.178 96.2164C168.371 96.1751 168.571 96.1337 168.77 96.0993C169.576 96.12 170.402 96.1957 171.221 96.1475C171.201 96.0649 171.166 95.8997 171.146 95.8171C171.056 94.8945 170.196 93.6002 171.097 92.9255C171.311 92.836 171.511 93.0356 171.71 93.0976C172.013 93.9788 172.089 94.9358 172.419 95.8171L172.481 95.9616C173.5 95.941 174.567 96.1475 175.579 95.8721C175.827 95.8308 176.089 95.7964 176.344 95.7551C177.211 95.7344 178.154 95.9754 179.022 95.6931C179.139 95.6862 179.366 95.6587 179.483 95.6518C180.406 95.6312 181.356 95.6862 182.285 95.5141C182.478 95.4797 182.684 95.4522 182.891 95.4177C183.352 95.4453 183.834 95.459 184.316 95.4659C184.289 95.28 184.261 95.101 184.22 94.922C183.999 94.3506 183.82 93.0632 184.784 93.2559C185.376 93.7516 185.259 94.6122 185.542 95.28C185.796 95.2938 186.058 95.28 186.326 95.2594C187.132 95.2181 188.006 95.4522 188.812 95.1837L188.95 95.1492C189.067 95.1286 189.308 95.0873 189.425 95.0666C190.237 95.0528 191.118 95.2732 191.931 95.0115C192.123 94.9702 192.323 94.9289 192.523 94.8945C193.225 94.9289 193.969 94.984 194.685 94.8463C194.877 94.8188 195.077 94.7912 195.277 94.7637C195.036 93.669 194.712 92.6019 194.437 91.5141C194.726 91.3144 195.194 90.9358 195.463 91.3764C196.151 92.3609 196.185 93.6346 196.571 94.7568C197.005 94.7155 197.39 94.6191 197.858 94.5571C198.554 94.5571 199.318 94.688 200.02 94.4883C200.234 94.4676 200.454 94.4539 200.674 94.4401C201.356 94.4057 202.079 94.4745 202.774 94.3231C202.884 94.3024 203.105 94.2542 203.208 94.2404C203.8 94.3231 204.537 94.447 204.192 93.7172C204.13 93.4349 204.082 93.1527 204.02 92.8704C203.889 91.9685 203.518 91.101 203.607 90.1785C203.683 90.1096 203.834 89.9719 203.91 89.8962C204.241 89.9168 204.564 90.0477 204.736 90.3506C205.032 91.5761 205.204 92.8291 205.521 94.0546C205.631 94.0546 205.845 94.0546 205.948 94.0546C206.705 94.0133 207.525 94.206 208.282 93.9719C208.475 93.9306 208.667 93.8893 208.874 93.8549C209.569 93.848 210.327 93.9926 211.036 93.7929C211.139 93.7654 211.352 93.7103 211.456 93.6828C212.206 93.6484 213.039 93.8756 213.79 93.6208C213.893 93.5933 214.106 93.5382 214.21 93.5038C214.96 93.4762 215.786 93.6966 216.544 93.4487C216.736 93.4143 216.929 93.3799 217.129 93.3454C217.886 93.3041 218.712 93.5244 219.47 93.2766C219.573 93.2491 219.786 93.194 219.896 93.1664C220.764 93.1527 221.7 93.373 222.568 93.1114C222.76 93.07 222.96 93.0287 223.16 92.9943C224.096 93.0356 225.053 93.1182 225.996 92.9255C226.196 92.8979 226.403 92.8704 226.609 92.8428C227.545 92.8566 228.495 92.9392 229.439 92.7534C229.693 92.7258 229.948 92.6914 230.21 92.6501C231.146 92.6914 232.103 92.7602 233.046 92.5812C233.301 92.5468 233.563 92.5193 233.831 92.4917C234.767 92.5124 235.718 92.5881 236.661 92.4091C236.916 92.3816 237.17 92.3471 237.432 92.3058C238.423 92.3334 239.449 92.4573 240.454 92.2508C240.647 92.2095 240.847 92.175 241.046 92.1337C242.038 92.1681 243.064 92.2783 244.069 92.0786C244.317 92.0373 244.578 92.0029 244.833 91.9616C245.879 91.9478 246.981 92.175 248.027 91.9065C248.275 91.8652 248.537 91.8308 248.792 91.7895C249.886 91.7482 251.071 92.058 252.151 91.7206C252.482 91.6862 252.812 91.6725 253.15 91.6656C254.416 91.6518 255.704 91.7619 256.971 91.5623C257.253 91.5347 257.811 91.4866 258.086 91.459C259.305 91.4934 260.551 91.5967 261.776 91.3626C262.417 91.3282 263.188 91.1699 263.518 91.8652C263.277 92.5606 262.554 92.6019 261.955 92.7671C261.17 92.7327 260.42 92.6983 259.663 92.7052C259.146 92.7052 258.706 92.6707 258.244 92.8222C258.176 92.836 258.038 92.8704 257.969 92.8842C257.845 92.8979 257.59 92.9186 257.466 92.9255C256.227 92.8842 254.988 92.8015 253.776 93.0012C253.494 93.0287 252.936 93.0769 252.661 93.1045C251.594 93.1182 250.499 92.8842 249.466 93.1664C249.253 93.1871 249.046 93.2146 248.847 93.2353C248.723 93.2353 248.475 93.2559 248.344 93.2628C247.387 93.2353 246.437 93.1664 245.515 93.3454C245.232 93.3661 244.675 93.4212 244.399 93.4418C243.497 93.4556 242.589 93.2353 241.721 93.5038C241.446 93.5313 240.888 93.5864 240.613 93.6139C239.711 93.6277 238.802 93.4005 237.941 93.6759C237.625 93.7172 237.308 93.7448 236.998 93.7861C236.096 93.7998 235.194 93.5726 234.327 93.848C234.01 93.8893 233.693 93.9169 233.384 93.9582C232.482 93.9651 231.58 93.7516 230.712 94.0201C230.602 94.0339 230.375 94.0683 230.258 94.0821C230.134 94.089 229.886 94.1096 229.762 94.1234C228.922 94.1578 228.062 93.91 227.263 94.1991C226.988 94.2267 226.43 94.2749 226.155 94.3024C225.37 94.33 224.564 94.1096 223.821 94.3644C223.504 94.4057 223.187 94.4332 222.884 94.4745C222.1 94.4952 221.301 94.2886 220.55 94.5365C220.289 94.5778 220.034 94.6122 219.786 94.6535C219.001 94.6742 218.196 94.4539 217.452 94.7155C217.191 94.7499 216.929 94.7775 216.674 94.805C216.007 94.7706 215.346 94.805 214.705 94.8945C214.437 94.922 214.182 94.9496 213.921 94.9771C213.253 94.9427 212.599 94.9771 211.951 95.0735C211.669 95.0942 211.394 95.1079 211.125 95.1286C210.471 95.1148 209.824 95.1492 209.198 95.2456C208.929 95.2732 208.667 95.3007 208.413 95.3282C207.683 95.342 206.953 95.2181 206.258 95.3971C205.321 95.3007 206.21 96.7121 205.439 96.836C204.654 97.0425 204.688 96.0374 204.433 95.5692C204.082 95.2869 203.332 95.7551 202.919 95.6862C202.244 95.6381 201.59 95.6587 200.943 95.762C200.674 95.7895 200.413 95.8171 200.158 95.8446C199.49 95.8102 198.836 95.8446 198.189 95.9341C197.741 95.9341 197.301 95.9616 196.874 95.9961C196.839 96.4573 197.301 97.2628 196.66 97.3592C196.096 97.5038 195.793 96.9255 195.676 96.478C195.662 95.9961 195.125 96.2095 194.815 96.1819C194.148 96.1544 193.494 96.1888 192.846 96.2852C192.578 96.3128 192.323 96.3403 192.068 96.3816C191.339 96.3609 190.609 96.2714 189.907 96.4436C189.59 96.4849 189.273 96.5124 188.97 96.5537C188.234 96.5193 187.518 96.4642 186.808 96.6088C186.561 96.6294 186.065 96.6776 185.824 96.6983C185.845 97.4969 186.209 98.2405 186.154 99.046C185.907 99.3902 185.287 99.342 185.101 98.9496C184.722 98.2542 184.681 97.4212 184.419 96.6845C183.807 96.6776 183.194 96.8153 182.602 96.898C181.755 96.9117 180.901 96.6914 180.096 96.9599C179.882 96.9943 179.669 97.0219 179.462 97.0494L179.318 97.0632C178.423 97.0838 177.514 96.8566 176.653 97.132C176.392 97.1665 176.137 97.2009 175.889 97.2422C174.987 97.2628 174.072 97.0219 173.211 97.2973C172.667 97.3041 173.135 97.8274 173.17 98.1166C173.624 98.5916 173.115 99.2938 172.626 99.0322C171.937 98.8601 171.931 97.9995 171.573 97.5038C170.987 97.2215 170.092 97.2973 169.431 97.4763C169.149 97.5038 168.598 97.5589 168.316 97.5864C167.421 97.552 166.554 97.49 165.679 97.5451C165.707 97.6208 165.762 97.7861 165.796 97.8618C166.037 98.268 166.147 98.7913 165.645 99.046C164.922 99.2181 164.695 98.2887 164.337 97.848C163.69 97.5727 162.753 97.6071 162.023 97.8136C161.707 97.8549 161.39 97.8825 161.087 97.9238C160.247 97.9375 159.393 97.7172 158.588 97.9857C158.292 98.0064 157.7 98.0477 157.404 98.0684C157.583 98.5916 158.319 99.2456 157.734 99.7482C156.729 99.9961 156.392 98.7637 156.02 98.0684C155.524 98.1097 155.029 98.1923 154.547 98.268C153.762 98.2956 152.956 98.0684 152.213 98.3369C151.951 98.3713 151.689 98.4057 151.435 98.4333C150.767 98.3919 150.113 98.4195 149.466 98.5227C149.197 98.5503 148.942 98.5778 148.688 98.6191C148.061 98.5985 147.462 98.4746 146.87 98.6811C146.767 98.7086 146.553 98.7637 146.45 98.7913C145.817 98.7568 145.232 98.6604 144.633 98.8463C143.917 98.7155 142.891 99.1768 143.311 100.12C143.965 107.198 144.522 114.289 145.307 121.353C145.218 121.855 145.727 122.488 145.328 122.95C145.149 123.322 144.66 123.129 144.343 123.191C143.944 122.22 144.089 121.125 143.772 120.127C143.751 119.624 143.875 119.129 143.717 118.654C143.696 118.544 143.655 118.316 143.634 118.199C143.848 117.69 143.806 117.277 143.517 116.96C143.497 116.85 143.455 116.623 143.435 116.506C143.414 116.01 143.565 115.507 143.359 115.039C143.338 114.97 143.297 114.84 143.276 114.771C143.249 114.275 143.373 113.779 143.201 113.311C143.173 113.208 143.118 112.994 143.09 112.891C143.07 112.389 143.201 111.893 143.028 111.418C143.001 111.315 142.946 111.101 142.918 110.998C142.898 110.495 143.028 110 142.856 109.525C142.829 109.421 142.774 109.208 142.746 109.105C142.726 108.547 142.905 107.989 142.67 107.466C142.65 107.397 142.609 107.266 142.588 107.198C142.567 106.64 142.712 106.089 142.512 105.559C142.485 105.456 142.429 105.242 142.402 105.139C142.381 104.636 142.512 104.141 142.34 103.666C142.312 103.562 142.257 103.349 142.23 103.246C142.223 102.688 142.368 102.137 142.168 101.607C142.037 101.215 142.388 100.23 141.817 100.512C140.13 102.034 138.319 103.425 136.578 104.884C132.681 108.168 128.708 111.363 124.839 114.667C124.33 115.191 123.572 114.729 123.49 114.096C126.188 111.597 129.135 109.359 131.951 106.984C135.028 104.471 138.044 101.876 141.156 99.3971C141.948 98.8601 140.633 99.0735 140.178 99.163C135.242 99.5899 130.312 100.051 125.383 100.533C124.584 100.547 123.813 100.664 123.035 100.815C122.54 100.753 121.968 100.981 121.651 100.574C121.417 99.9066 122.154 99.2938 122.836 99.5623C127.242 99.1355 131.662 98.7568 136.047 98.151C136.509 98.151 137.039 98.2474 137.521 98.089C138.34 98.0202 139.194 97.9926 140.006 97.8067C140.516 97.7654 141.156 98.0202 141.645 97.731L141.775 97.6553C141.72 95.4935 141.328 93.3592 141.211 91.2043C140.701 90.5227 139.524 91.3489 138.849 91.1492C138.209 91.28 138.147 90.2955 138.629 90.0752C139.318 89.669 140.399 90.1234 141.032 89.5795C140.86 88.113 140.757 86.6397 140.543 85.1733C139.868 85.3729 139.331 85.0287 139.125 84.4435C139.359 83.8652 140.316 84.1543 140.392 83.5898C140.571 83.101 140.522 82.6879 140.247 82.3574C140.233 82.2335 140.213 81.9925 140.199 81.8755C140.412 81.366 140.364 80.9529 140.068 80.6362C140.061 80.5123 140.034 80.2713 140.027 80.1543C140.233 79.6448 140.192 79.2318 139.896 78.9151C139.882 78.8393 139.861 78.6879 139.855 78.6121C140.061 78.1027 140.02 77.6896 139.731 77.3729C139.682 76.8359 139.985 75.9753 139.235 76.2162C138.67 76.2025 138.161 76.1887 137.624 76.1818C137.466 75.9271 137.431 75.631 137.473 75.3419C137.81 75.1009 138.23 75.0321 138.629 74.9219C139.125 74.8875 140.137 75.3143 139.49 74.1371C139.469 74.0751 139.435 73.958 139.414 73.8961L139.325 73.6276C139.29 73.1319 139.435 72.6293 139.256 72.1611C139.242 71.6241 138.664 71.9821 138.388 72.0854C137.865 72.2713 137.039 72.6913 136.633 72.168C136.502 71.0114 138.01 70.9907 138.787 70.5845C139.152 70.5157 138.966 70.1026 138.994 69.8479C138.973 69.2971 139.097 68.7325 138.911 68.2024C138.884 68.0991 138.836 67.8788 138.815 67.7756C138.794 67.1697 138.946 66.5501 138.746 65.9718C138.719 65.8685 138.664 65.6482 138.636 65.5449C138.636 64.8289 138.739 64.0922 138.574 63.3831C138.533 63.1835 138.491 62.9838 138.457 62.791C138.443 62.075 138.595 61.3315 138.395 60.6292C138.368 60.5259 138.312 60.3125 138.285 60.2024C138.244 59.3762 138.498 58.5087 138.223 57.7032C138.182 57.4416 138.154 57.1869 138.127 56.9321C138.14 55.9889 138.216 55.0319 138.044 54.1025C138.009 53.7858 137.982 53.4691 137.941 53.1524C137.989 51.9269 138.01 50.7083 137.996 49.4897C137.996 47.5964 137.996 45.7031 137.996 43.8098C137.892 42.7771 138.202 41.6687 137.865 40.6704C137.734 40.3193 137.445 39.7892 137.865 39.5275L137.879 39.5206Z" fill="#F9F9F9"/>
<path d="M164.543 63.4589C164.764 63.1422 165.197 63.273 165.535 63.2593C165.61 63.2662 165.769 63.2799 165.851 63.2937C167.125 63.514 168.426 63.4176 169.721 63.3832C170.313 63.4245 170.251 64.051 170.044 64.4503C169.294 64.5605 168.53 64.7464 167.779 64.5605C167.38 64.4297 166.987 64.4021 166.609 64.4641C166.051 64.4641 165.562 64.4641 165.032 64.4641C164.536 64.5329 164.054 63.7894 164.55 63.4658L164.543 63.4589Z" fill="#F9F9F9"/>
<path d="M146.147 65.0426C146.595 64.8842 147.097 64.7672 147.455 65.1734C147.566 65.7173 146.967 66.2612 146.437 66.1786C145.17 66.1717 143.91 66.1786 142.657 66.1786C142.299 66.1028 141.92 65.5865 142.251 65.2698C142.581 64.7534 143.283 64.9875 143.807 65.0219C144.557 65.1252 145.383 65.2835 146.147 65.0495V65.0426Z" fill="#F9F9F9"/>
<path d="M139.035 43.6309H139.207C139.207 44.9458 139.207 46.2677 139.207 47.5896H139.035C139.035 46.2746 139.035 44.9527 139.035 43.6309Z" fill="#A6A5A5"/>
<path d="M137.83 43.803H138.003C138.003 45.6963 138.003 47.5896 138.003 49.4829H137.83C137.824 47.5896 137.824 45.6963 137.83 43.803Z" fill="#AEAEAE"/>
<path d="M139.035 47.5896H139.208C139.208 48.1197 139.146 48.643 139.166 49.18C138.96 48.6774 139.015 48.1197 139.035 47.5896Z" fill="#D2D2D2"/>
<path d="M258.272 92.7949C258.733 92.6503 259.174 92.6779 259.69 92.6779V92.8569C259.208 92.8431 258.733 92.8225 258.272 92.7949Z" fill="#AFAFAF"/>
<path d="M138.581 63.3762C138.746 64.0785 138.636 64.8151 138.643 65.538C138.43 64.8358 138.574 64.0853 138.581 63.3762Z" fill="#666565"/>
<path d="M149.5 98.4951C150.147 98.3987 150.801 98.3643 151.469 98.4056C150.808 98.502 150.154 98.5295 149.5 98.4951Z" fill="#666565"/>
<path d="M138.402 60.6223C138.602 61.3246 138.443 62.0681 138.464 62.7841C138.292 62.075 138.381 61.3383 138.402 60.6223Z" fill="#686767"/>
<path d="M140.089 80.6223C140.385 80.9321 140.426 81.3521 140.219 81.8616C139.896 81.538 139.855 81.1249 140.089 80.6223Z" fill="#686767"/>
<path d="M143.028 96.113C143.304 96.4504 143.338 96.8704 143.125 97.3592C142.801 97.0425 142.774 96.6294 143.028 96.113Z" fill="#686767"/>
<path d="M149.149 97.1043C149.844 96.9253 150.581 97.0286 151.311 97.0423C150.608 97.242 149.851 97.0974 149.149 97.1043Z" fill="#686767"/>
<path d="M154.856 64.2506C155.173 63.9684 155.586 63.9202 156.089 64.1129C155.779 64.4503 155.373 64.4985 154.856 64.2506Z" fill="#676767"/>
<path d="M166.602 64.4571C166.98 64.3951 167.373 64.4296 167.772 64.5535C167.414 64.705 166.932 64.7531 166.588 64.5673L166.602 64.4502V64.4571Z" fill="#C6C6C6"/>
<path d="M143.813 65.015C144.577 64.9944 145.376 64.8842 146.154 65.0425C145.397 65.2766 144.571 65.1183 143.813 65.015Z" fill="#8E8D8E"/>
<path d="M142.657 66.1783C143.91 66.1783 145.176 66.1783 146.436 66.1783V66.3435C145.17 66.3435 143.903 66.3642 142.65 66.3366V66.1714L142.657 66.1783Z" fill="#6E6D6D"/>
<path d="M181.7 70.3022C182.099 70.0819 182.657 70.0337 182.87 70.5363C183.242 72.0784 183.559 73.6482 183.566 75.2454C183.469 75.39 183.366 75.5277 183.263 75.6654C182.671 75.7549 182.354 75.1903 182.333 74.6809C182.148 73.2213 181.838 71.7755 181.7 70.3091V70.3022Z" fill="#F4F4F4"/>
<path d="M139.435 73.8892C139.455 73.9511 139.496 74.0682 139.51 74.1301C140.157 75.3005 139.145 74.8806 138.65 74.915C138.877 74.8461 139.111 74.7979 139.345 74.736C139.386 74.4537 139.407 74.1714 139.435 73.8892Z" fill="#656465"/>
<path d="M139.923 78.8945C140.213 79.2112 140.261 79.6243 140.054 80.1338C139.731 79.8102 139.689 79.404 139.923 78.8945Z" fill="#6F6D6E"/>
<path d="M140.268 82.3438C140.55 82.6742 140.598 83.0873 140.412 83.5761C140.068 83.2801 140.02 82.867 140.268 82.3438Z" fill="#656565"/>
<path d="M208.867 93.8341C209.569 93.6688 210.292 93.7584 211.029 93.7721C210.327 93.9718 209.569 93.8272 208.867 93.8341Z" fill="#656565"/>
<path d="M176.344 95.7277C177.211 95.4661 178.12 95.6795 179.022 95.6657C178.161 95.948 177.218 95.707 176.344 95.7277Z" fill="#656565"/>
<path d="M158.271 96.6019C159.125 96.2852 160.048 96.5537 160.95 96.5262C160.082 96.7809 159.146 96.5744 158.271 96.6019Z" fill="#656565"/>
<path d="M142.877 109.504C143.049 109.979 142.918 110.474 142.939 110.977C142.767 110.502 142.836 109.992 142.877 109.504Z" fill="#656565"/>
<path d="M142.154 87.3352C142.457 87.645 142.498 88.0581 142.278 88.5676C141.968 88.2371 141.927 87.8309 142.154 87.3352Z" fill="#686667"/>
<path d="M192.516 94.8671C193.218 94.7018 193.948 94.7845 194.678 94.8189C193.962 94.9566 193.218 94.9015 192.516 94.8671Z" fill="#666666"/>
<path d="M142.533 105.545C142.726 106.076 142.581 106.626 142.608 107.184C142.381 106.668 142.498 106.082 142.533 105.545Z" fill="#666666"/>
<path d="M165.046 96.1202C165.314 96.1271 165.583 96.1271 165.858 96.1271C166.319 96.1271 166.794 96.1271 167.276 96.1133C167.572 96.1339 167.869 96.1546 168.178 96.1821C167.18 96.4575 166.106 96.251 165.101 96.2647L165.053 96.1133L165.046 96.1202Z" fill="#696868"/>
<path d="M169.459 97.4488C170.127 97.2698 171.015 97.1871 171.6 97.4763C170.877 97.4763 170.161 97.4763 169.459 97.4488Z" fill="#6A6969"/>
<path d="M158.615 97.9651C159.421 97.7035 160.275 97.9238 161.115 97.9031C160.309 98.1785 159.428 97.9375 158.615 97.9651Z" fill="#6A6969"/>
<path d="M162.058 97.7931C162.788 97.5865 163.717 97.5452 164.371 97.8275C163.6 97.8344 162.815 97.8275 162.058 97.7931Z" fill="#676666"/>
<path d="M152.247 98.3165C152.991 98.0549 153.796 98.2752 154.581 98.2477C153.831 98.5024 153.005 98.2821 152.247 98.3165Z" fill="#676666"/>
<path d="M146.911 98.6533C147.497 98.4467 148.103 98.5707 148.729 98.5913C148.151 98.8048 147.49 98.6671 146.911 98.6533Z" fill="#6A6A6A"/>
<path d="M142.698 107.445C142.932 107.962 142.753 108.526 142.774 109.084C142.588 108.561 142.664 107.982 142.698 107.445Z" fill="#6A6A6A"/>
<path d="M140.199 99.1495C140.653 99.06 141.961 98.8465 141.176 99.3835C140.867 99.2527 140.529 99.2045 140.199 99.1495Z" fill="#797979"/>
<path d="M142.189 101.593C142.381 102.123 142.237 102.674 142.251 103.232C142.058 102.702 142.147 102.13 142.189 101.593Z" fill="#6B6B6B"/>
<path d="M143.386 115.019C143.593 115.48 143.441 115.982 143.462 116.485C143.304 116.01 143.352 115.5 143.386 115.019Z" fill="#6B6A6A"/>
<path d="M143.538 116.939C143.827 117.256 143.868 117.669 143.655 118.179C143.338 117.848 143.297 117.435 143.538 116.939Z" fill="#6D6C6C"/>
<path d="M143.738 118.626C143.903 119.101 143.779 119.597 143.793 120.1C143.634 119.625 143.696 119.108 143.738 118.626Z" fill="#6E6E6E"/>
<path d="M102.65 6.12302C103.841 5.5447 105.417 6.10237 106.037 7.26588C107.441 9.56538 106.663 12.6979 104.77 14.488C104.006 15.0387 105.197 14.784 105.686 14.846C106.264 15.0112 106.849 15.025 107.448 14.8873C108.233 14.8184 108.97 14.4948 109.775 14.5155C110.14 14.7427 110.264 15.1351 109.934 15.4656C109.128 15.9613 108.171 16.1059 107.255 16.2573C106.946 16.2573 106.319 16.2504 106.009 16.2436C105.686 16.216 105.362 16.2023 105.039 16.1747C103.985 16.1472 102.877 15.6928 101.865 16.1747C101.438 16.3262 100.922 16.4157 100.522 16.1747C100.095 15.9338 99.5515 15.4449 99.9645 14.9492C100.77 13.9716 102.25 14.9699 103.111 14.13C104.357 13.4346 105.08 12.0921 105.39 10.7427C105.548 10.1368 105.548 9.53096 105.39 8.93887C105.231 7.96813 104.515 7.03869 103.469 7.08C103.132 7.38292 102.946 7.97501 102.292 7.58946C101.775 7.23146 102.071 6.24006 102.65 6.12302Z" fill="#F7F7F7"/>
<path d="M88.5014 15.2177C90.0987 14.7633 91.8336 14.9079 93.4791 14.6807C94.319 14.1781 94.5807 14.9698 94.5325 15.5206C94.3328 15.6308 94.1331 15.734 93.9403 15.8511C93.3345 15.913 92.7493 16.0094 92.1503 16.0989C91.5789 16.0576 91.035 15.9475 90.5118 16.1747C89.782 16.0714 87.9713 16.7254 88.5083 15.2177H88.5014Z" fill="#F7F7F7"/>
<path d="M18.8969 22.3571C18.9382 21.827 19.6817 21.71 19.9571 22.1093C20.1981 23.6583 19.2204 25.1041 19.4958 26.667C19.9158 27.1627 20.5492 27.6584 21.2514 27.3073C22.0569 26.9493 22.3392 26.0198 22.4425 25.2143C22.532 24.5534 22.5664 23.8993 22.5389 23.2453C22.773 22.7289 23.4614 22.5706 23.7299 23.1558C24.0879 25.3795 24.3909 27.6171 24.9761 29.7995C24.9623 30.729 25.3547 31.6033 25.3065 32.5396C25.1 32.8426 24.5354 32.8426 24.322 32.5396C24.0122 32.2161 23.9502 31.7479 23.8332 31.3348C23.785 31.0525 23.7368 30.7634 23.6473 30.4949C23.4821 29.5173 23.427 28.4983 23.0759 27.5758C22.5664 28.0095 22.0294 28.4226 21.3891 28.6498L20.1292 28.6704C19.2342 28.4019 18.587 27.7685 18.2359 26.9286C18.2222 26.364 18.2428 25.8477 18.2359 25.3038C18.4631 24.3193 18.7385 23.3554 18.9037 22.364L18.8969 22.3571Z" fill="#F7F7F7"/>
<path d="M55.7715 52.1819C56.1158 51.1974 57.2655 50.9426 58.1468 50.5984C58.8077 50.6604 59.4549 50.6122 60.1227 50.6053C60.46 50.7085 60.7905 50.8462 61.1141 50.9977C61.6649 51.5003 61.4032 52.237 61.3344 52.891C61.9884 52.8222 62.6563 52.4297 63.2965 52.7533C63.3792 52.9599 63.6546 53.249 63.3929 53.4487C62.8077 54.1991 61.7131 54.0683 60.9007 54.3712C59.7234 54.626 58.5667 54.984 57.4652 55.4797C57.1829 55.8308 57.1554 56.237 57.3895 56.6845C57.0934 57.3248 56.7905 58.0752 56.0745 58.3437C54.8765 59.101 52.9901 57.8342 53.596 56.3884C53.9953 55.5072 54.9591 55.1905 55.7302 54.7086C55.7853 53.8893 55.386 52.9736 55.7647 52.1819H55.7715ZM58.25 51.9134C57.2105 52.0166 56.4394 53.07 57.0039 54.0889C57.8783 53.9513 58.7802 53.6759 59.5168 53.1802C59.6614 52.7395 59.9781 52.4022 60.2466 52.0442C59.744 51.5141 58.849 51.9822 58.25 51.9134ZM55.9643 56.1819C55.5099 56.3884 54.7044 56.5055 54.9247 57.1802C55.5994 57.3798 56.0745 56.7396 56.1433 56.1337L55.9643 56.1819Z" fill="#F7F7F7"/>
<path d="M115.724 0.071324C116.784 -0.148987 118.154 0.119517 118.67 1.17977C119.132 2.41902 118.395 3.61696 117.576 4.4982C118.395 4.85621 119.407 5.20733 119.758 6.10923C119.634 6.57739 120.061 7.34159 119.6 7.74091C118.588 9.06277 116.991 9.86829 115.345 9.9991C114.925 9.82009 114.305 9.79944 114.175 9.2762C113.954 8.82181 114.526 8.31234 114.973 8.49823C115.889 8.79427 116.736 8.30545 117.514 7.88549C117.899 7.49994 118.643 7.25209 118.567 6.61181C117.879 5.68926 116.564 5.79253 115.689 5.15914C115.269 4.29854 116.185 3.98185 116.667 3.58942C116.997 3.16945 117.369 2.75637 117.569 2.26067C117.7 1.55842 116.942 0.973223 116.261 1.28992C115.999 1.59973 115.441 1.7512 115.187 1.37254C114.815 0.704718 115.4 0.42933 115.731 0.0644391L115.724 0.071324Z" fill="#F6F6F6"/>
<path d="M37.5752 11.7616C38.1466 11.5344 38.5941 12.0163 38.3876 12.5809C37.4444 14.3984 36.2258 16.0508 35.1243 17.772C35.8196 18.7565 37.0175 19.2315 37.9952 19.8993C38.2774 20.1747 38.2155 20.5396 38.0227 20.8494C36.9487 21.0835 36.1776 20.2023 35.3239 19.7685C35.0416 19.4794 34.7731 19.1764 34.4427 18.9355C33.4857 20.0783 32.9143 21.5241 31.8265 22.5637C31.3652 22.7221 31.0003 22.4811 30.8764 22.0267C31.4891 20.5465 32.7766 19.383 33.4031 17.951C32.5907 16.9045 31.6406 15.9131 30.78 14.8873C30.3049 14.6463 30.5252 14.1644 30.6974 13.827C31.3032 13.4897 31.6268 14.0335 31.9779 14.3296C32.6113 15.2659 33.4237 16.0645 34.1948 16.8907C35.317 15.1833 36.4737 13.4897 37.5752 11.7616Z" fill="#F6F6F6"/>
<path d="M54.2913 27.6307C55.083 27.1487 55.5443 27.7615 55.4755 28.4155C56.3567 28.6496 57.4307 28.3398 58.1812 28.9801C58.1949 29.2555 58.2775 29.6203 57.9884 29.7925C56.6596 29.937 55.3584 29.6066 54.0572 29.4689C54.2706 30.2537 55.2138 30.6944 55.4273 31.5481C55.9574 32.7529 55.0211 34.5842 53.5477 34.2951C52.8799 34.3915 51.9161 33.8613 52.0124 33.1178C52.3842 32.7391 52.873 32.7185 53.3205 32.987C53.8989 33.3725 54.5667 32.4775 54.1949 31.9336C53.6716 31.1281 53.0796 30.3914 52.6114 29.5584C52.0951 29.3312 51.861 28.6771 52.3842 28.3123C53.1071 28.3673 53.6785 27.9198 54.2982 27.6444L54.2913 27.6307Z" fill="#F6F6F6"/>
<path d="M40.928 30.7908C41.6302 30.0955 42.6836 30.364 43.558 30.5086C43.9779 30.8184 44.391 31.1351 44.7215 31.5551C44.8041 31.7616 44.9005 31.9681 44.9831 32.1816C44.9693 32.6635 44.9693 33.1454 44.9762 33.6411C44.6733 34.5017 44.1019 35.2246 43.5924 35.975C45.0244 36.4983 46.4702 37.4759 46.663 39.1076C46.4633 40.5396 45.0588 41.4209 43.737 41.6894C42.7456 41.951 41.5063 41.1248 41.8024 40.0026C42.2567 39.6033 42.7731 39.8649 43.1173 40.2505C43.9573 40.3744 45.1965 39.9131 45.2791 38.9424C44.9487 37.9441 43.8265 37.4966 42.9315 37.1523C42.3463 37.0353 41.4237 36.7668 41.8919 35.8993C42.7111 34.8528 44.0537 33.7651 43.7025 32.2711C43.2757 31.7823 42.6354 31.2384 41.9263 31.6446C41.527 31.7547 40.9211 32.1196 40.6526 31.6652C40.57 31.3416 40.6182 30.9767 40.9211 30.7908H40.928Z" fill="#F6F6F6"/>
<path d="M16.5629 41.0491C16.8314 40.519 17.6369 40.4983 17.7746 41.1317C17.7746 41.834 17.6989 42.5707 17.8572 43.2798C17.9399 43.8925 18.0156 44.5053 18.0776 45.1318C18.2634 46.7703 18.4906 48.4433 19.0552 50.0062C19.2962 50.4881 18.711 50.8599 18.2772 50.8323C17.5887 50.2815 17.4717 49.3315 17.272 48.5397C16.9209 46.0612 16.4941 43.5621 16.5698 41.0491H16.5629Z" fill="#F6F6F6"/>
<path d="M34.6491 42.9358C35.3651 43.0184 37.1964 42.3781 36.6663 43.8928C35.6611 44.4711 34.3875 44.1819 33.279 44.3196C32.501 44.3334 31.6956 44.1406 30.952 44.3885C29.9606 44.4436 28.983 44.5606 28.0053 44.7052C27.3238 45.132 26.6766 44.4091 26.8831 43.7895C27.489 43.28 28.4459 43.5967 29.1482 43.28C29.3478 43.2456 29.5475 43.2112 29.7472 43.1836C30.2222 43.1699 30.7386 43.2869 31.2136 43.1217C31.4683 43.0804 31.7231 43.046 31.9778 43.0184C32.8659 43.1148 33.7541 43.0735 34.6422 42.9427L34.6491 42.9358Z" fill="#F6F6F6"/>
<path d="M135.159 3.8855C135.579 3.8855 135.903 4.27104 135.855 4.69789C135.214 6.26761 135.696 8.23664 136.522 9.68244C137.548 9.72374 137.927 8.45695 138.877 8.27795C139.07 8.4363 139.29 8.58088 139.462 8.78054C139.455 9.25558 139.455 9.7444 139.462 10.2332C138.829 13.5585 138.436 16.9321 138.003 20.2918C137.727 20.815 137.032 20.4364 136.812 20.0302C136.812 19.7204 136.812 19.087 136.812 18.7772C137.376 16.0715 137.631 13.2969 138.072 10.5637C137.39 10.8184 136.529 11.142 135.875 10.6532C134.739 9.86832 134.664 8.36745 134.381 7.14886C134.402 6.47415 134.464 5.83387 134.402 5.16605C134.402 5.06278 134.416 4.86313 134.423 4.75986C134.602 4.4225 134.719 3.96123 135.159 3.8855Z" fill="#F8F8F8"/>
<path d="M18.2842 6.27435C18.8832 5.61342 19.8608 5.48949 20.7007 5.51014C21.5751 5.70292 22.4288 6.21239 22.7317 7.10052C22.9245 8.684 21.5613 9.77867 20.4804 10.6875C21.3823 11.0317 22.4082 11.3346 22.8901 12.2572C23.4684 13.2142 23.372 14.5429 22.5252 15.3209C21.5613 16.03 20.3221 16.1815 19.1586 16.271C18.0983 16.2021 17.0381 16.2021 15.9847 16.2503H15.8539C15.5441 15.8923 15.2549 15.2314 15.8126 14.9698C17.1482 14.9491 18.5252 15.1488 19.8539 14.9009C20.687 14.7839 21.7885 14.598 22.0364 13.6341C21.6577 11.8579 19.551 12.0575 18.2635 11.5274L18.2773 10.7425C19.3169 9.6341 20.9761 9.15905 21.5269 7.60999C21.4305 7.26575 21.2171 6.96971 20.8729 6.85267C20.4873 6.58416 19.8883 6.48778 19.6267 6.90086C19.3307 7.90603 17.7541 7.30706 18.2842 6.27435Z" fill="#F8F8F8"/>
<path d="M73.2724 10.4191C72.8386 9.89582 73.768 9.11785 74.1605 9.70994C75.4342 11.1626 76.0194 13.4277 77.9953 14.1437C79.1244 14.0404 79.5168 12.7186 79.5374 11.7478C79.4961 11.1626 79.6889 9.83386 80.701 10.3778C81.2793 10.9216 80.8593 11.7272 80.8593 12.395C80.7354 13.0835 80.7423 13.7926 80.7492 14.5086C80.5426 14.9768 80.5839 15.383 80.88 15.7203L80.9006 15.8718C80.9006 17.0146 80.8937 18.1781 80.9213 19.3279C80.9213 19.6308 80.9282 20.2298 80.935 20.5258C80.6597 21.0697 80.7216 21.4622 81.1072 21.7031C81.0934 22.4054 81.1072 23.1145 81.1485 23.8305C80.8662 24.1816 80.1364 24.3951 79.9161 23.9131C79.7371 23.0388 79.7096 22.1369 79.6476 21.2556C79.6889 19.6721 79.8266 18.0818 79.5925 16.5189C79.565 16.2986 79.5512 16.0783 79.5374 15.8649C79.5374 15.5757 79.5375 15.2866 79.5237 15.0043C78.7182 15.3761 77.6923 15.6101 76.9006 15.0731C75.2552 13.9372 74.2913 12.0989 73.2792 10.426L73.2724 10.4191Z" fill="#F8F8F8"/>
<path d="M0.177321 43.0597C0.810716 42.1509 2.07063 42.0339 3.06891 41.7998C3.72985 41.8893 4.37701 41.8273 5.04483 41.8136C6.29096 41.8136 7.28924 42.7155 7.74363 43.8308C7.7987 44.0787 7.88822 44.3265 7.97083 44.5812C7.96395 45.0563 7.95705 45.5451 7.95705 46.0339C7.70232 47.2181 6.9519 48.1613 6.20835 49.0838C7.31679 49.6002 8.57669 49.7586 9.78152 49.9995C10.408 50.0546 11.1378 50.2749 11.7574 49.9926C12.2187 49.6209 13.1206 49.9789 12.9141 50.6329C12.7901 51.1148 12.1636 51.1975 11.7574 51.3833C11.0896 51.3352 10.4424 51.3283 9.77463 51.3765C8.22557 51.0942 6.70405 50.688 5.19629 50.2611C4.63174 50.0546 4.03965 50.2542 3.46822 50.3093C3.15841 50.3162 2.53879 50.3369 2.22898 50.3506C1.79524 50.0959 1.34773 49.7861 1.21692 49.2697C1.33396 48.9117 1.56116 48.595 1.86409 48.3747C2.33913 48.3747 2.82105 48.3747 3.30986 48.3954C3.88129 48.4711 4.55601 48.8635 5.00352 48.2439C5.79526 47.7482 6.29784 46.9083 6.587 46.0477C6.71781 45.5451 6.79355 45.0563 6.61454 44.5812C6.49062 43.7069 5.7333 43.101 4.87271 43.0459C4.26685 42.8876 3.66788 42.8807 3.06891 43.0322C2.44929 43.1217 1.80899 43.2938 1.3064 43.6862C1.06544 43.8996 0.927748 44.354 0.535319 44.2852C0.00519522 44.175 -0.160037 43.4866 0.170429 43.0735L0.177321 43.0597Z" fill="#F8F8F8"/>
<path d="M44.7629 51.6656C44.6321 51.0804 45.5064 50.9702 45.7818 51.3558C45.7818 51.9134 45.7474 52.5399 45.8989 53.0976C46.2156 54.6604 46.4083 56.2921 47.1106 57.7448C47.3653 58.1854 47.0142 58.7293 46.4978 58.5503C45.7474 58.2336 45.5753 57.3111 45.3618 56.6019C45.1966 55.521 44.8111 54.4814 44.7629 53.3936C44.7491 52.7947 44.7629 52.2508 44.7629 51.6656Z" fill="#F8F8F8"/>
<path d="M57.5409 6.78396C58.2087 6.48103 58.9523 7.3967 58.4015 7.99567C57.5822 8.80807 57.6029 10.1024 56.9213 11.0181C56.3361 11.4036 55.7922 10.8941 55.9643 10.3778C56.2604 9.44146 56.6872 8.54645 56.9557 7.60324C56.997 7.24524 57.3 7.02493 57.534 6.78396H57.5409Z" fill="#F5F5F5"/>
<path d="M124.137 10.598C125.624 10.3158 127.159 10.2538 128.591 9.7168C128.963 9.77876 129.452 10.0404 129.238 10.4879C128.991 10.7702 128.715 11.0455 128.35 11.1557C126.037 11.6583 123.669 11.8924 121.355 12.395C118.643 12.7874 115.944 13.345 113.273 13.9578C112.908 13.9027 112.66 13.6273 112.57 13.2831C112.763 12.8562 113.204 12.5671 113.665 12.4913C117.121 11.6927 120.639 11.197 124.137 10.5912V10.598Z" fill="#F5F5F5"/>
<path d="M64.9695 15.748C65.5272 15.5896 66.0435 15.2729 66.6219 15.1834C67.1933 15.032 67.331 15.9407 66.9317 16.1886C65.7544 16.8702 64.4325 17.2557 63.1519 17.6963C61.0934 18.2127 59.1519 19.3005 56.9901 19.3143C56.8662 19.0251 56.9144 18.7291 57.0177 18.4468C58.3395 17.6826 59.8748 17.4691 61.2862 16.9321C62.553 16.6568 63.744 16.1542 64.9695 15.7549V15.748Z" fill="#F5F5F5"/>
<path d="M27.4339 17.6549C28.2119 17.4209 28.6594 18.7703 27.7368 18.8253C23.069 19.3623 18.525 20.6636 13.988 21.8271C13.2995 21.7307 13.2445 20.8494 13.8228 20.5534C18.2634 19.2178 22.8349 18.2746 27.4339 17.6549Z" fill="#F5F5F5"/>
<path d="M61.0659 21.0904C60.4119 20.6636 61.0108 19.8512 61.6029 19.7686C61.9127 19.7823 62.5324 19.8099 62.8422 19.8167C63.3929 19.9958 64.164 20.0646 64.3293 20.7393C64.8387 21.6687 64.2535 22.7014 63.7854 23.5138C63.4756 24.1404 62.5668 24.2849 62.3258 24.939C63.3723 25.1937 64.3637 25.6206 65.4033 25.9097C66.0091 26.1782 66.8697 25.7583 67.2828 26.4054C67.3517 26.9011 66.8697 27.2936 66.4016 27.3418C65.0728 27.4726 63.868 26.8116 62.6494 26.3917C61.5547 26.0405 60.4876 25.6068 59.3654 25.3658C59.1313 25.1455 58.7182 24.8977 58.9248 24.519C59.0349 23.9958 59.6545 24.0302 60.0745 23.9476C61.5547 23.9889 63.1795 22.9562 63.3172 21.414C62.8146 20.5741 61.7406 21.4002 61.059 21.0835L61.0659 21.0904Z" fill="#F5F5F5"/>
<path d="M84.1778 36.5121C84.2605 36.0853 84.3981 35.3211 85.1692 35.8581C85.6856 36.3813 86.0298 37.0491 86.5599 37.5655C87.152 38.2884 87.7166 39.0664 88.467 39.6516C89.4653 38.5569 90.2983 37.3176 91.2691 36.1954C91.7923 36.0095 92.3087 36.6774 92.0333 37.1455C91.214 38.3572 90.2295 39.4519 89.362 40.6154C90.5875 41.9304 92.0264 43.0251 93.4653 44.106C93.4722 44.2368 93.4997 44.4984 93.5135 44.6292C93.1142 44.939 92.5703 45.0905 92.1572 44.7118C90.8285 43.8237 89.6443 42.7359 88.4877 41.6481C87.2002 42.7015 86.0987 44.106 84.5289 44.76C83.8474 44.7531 83.7923 43.8306 84.3086 43.5208C85.4377 42.6602 86.5875 41.7789 87.4618 40.6498C86.498 39.1696 85.1279 37.9923 84.1778 36.5052V36.5121Z" fill="#F5F5F5"/>
<path d="M119.269 15.4239C118.746 15.1279 118.953 14.5014 119.428 14.3017C119.972 14.3017 120.488 14.2673 121.052 14.2811C121.796 14.5427 122.636 14.8319 123.049 15.5548C123.593 16.3603 123.689 17.3586 123.937 18.2742C124.343 18.7011 125.376 18.3293 126.03 18.4257C126.457 18.6253 126.76 19.2725 126.202 19.5204C125.686 19.4997 125.218 19.4653 124.743 19.5961C124.364 19.6167 123.958 19.6443 124.137 20.1331C124.095 21.2415 124.082 22.3638 124.137 23.486C123.765 24.1469 122.994 23.6925 122.863 23.1004L122.836 22.9696C122.739 21.9369 123.187 20.7665 122.774 19.8026C122.23 19.5135 121.376 19.9059 120.715 19.8921C120.219 19.8715 119.737 19.8715 119.256 19.8715C118.897 19.72 118.911 19.3276 118.959 19.004C119.235 18.7768 119.586 18.6529 119.93 18.5634C120.791 18.4945 121.768 18.8525 122.601 18.5014C122.877 18.0677 122.354 17.2622 122.25 16.7183C122.037 15.9334 121.218 15.6443 120.515 15.4584C120.075 15.2243 119.662 15.2174 119.276 15.4308L119.269 15.4239Z" fill="#F9F9F9"/>
<path d="M55.9919 44.2986C56.102 44.2849 56.3223 44.2504 56.4325 44.2367C58.4635 44.2986 60.4945 44.278 62.5324 44.2229C63.7647 44.4708 65.0384 44.4914 66.2639 44.7943C66.8147 44.8632 66.8078 45.6825 66.4085 45.9785C65.5066 45.951 64.6253 45.6412 63.7234 45.6343L63.5651 45.6136C62.8009 45.4553 62.0367 45.4897 61.2656 45.4828L61.1348 45.4621C60.4876 45.414 59.6132 44.994 59.0487 45.4828C58.1675 45.5241 57.2724 45.3382 56.4187 45.593C56.164 45.6274 55.9024 45.6618 55.6545 45.7031C55.145 45.6687 54.6562 45.593 54.1881 45.7651C54.0848 45.7926 53.8714 45.8477 53.7681 45.8683C53.2586 45.8339 52.7767 45.772 52.3017 45.9372C49.1003 46.4054 45.7887 46.5155 42.7663 47.7685C42.3739 47.8993 41.7267 48.0508 41.6785 47.5276C41.5753 46.7358 42.5116 46.4329 43.1037 46.1988C45.0176 45.5035 47.0693 45.3176 49.059 44.9251C49.5753 45.1799 49.9884 45.1455 50.2982 44.8219C51.5443 44.7117 52.7905 44.5878 54.0297 44.4019C54.6838 44.4363 55.3447 44.4019 55.9987 44.2986H55.9919Z" fill="#F9F9F9"/>
<path d="M22.4356 25.2073C22.353 24.5188 22.3805 23.8648 22.532 23.2383C22.5595 23.8923 22.532 24.5464 22.4356 25.2073Z" fill="#949494"/>
<path d="M54.188 45.7653C54.663 45.5931 55.1449 45.6689 55.6544 45.7033C55.1794 45.8685 54.6561 45.7515 54.188 45.7653Z" fill="#686767"/>
<path d="M29.0587 48.2642C29.6095 48.2228 30.1396 48.2435 30.6904 48.3605C30.1534 48.395 29.5682 48.4087 29.0587 48.2642Z" fill="#686767"/>
<path d="M91.6409 11.3072C92.0609 11.2108 92.4877 11.1971 92.9214 11.2453C93.2794 11.7203 93.004 12.5602 92.2674 12.4226C90.5531 12.8356 88.8457 13.2969 87.1176 13.6274C86.5393 13.5172 86.3947 12.7048 86.9868 12.4776C88.4946 11.9819 90.0987 11.7272 91.6409 11.3072Z" fill="#F4F4F4"/>
<path d="M119.93 18.5569C120.791 18.2953 121.706 18.5156 122.601 18.4949C121.768 18.846 120.791 18.488 119.93 18.5569Z" fill="#676666"/>
<path d="M52.2948 45.9372C52.7698 45.772 53.2518 45.8339 53.7612 45.8684C53.2862 46.0405 52.763 45.9165 52.2948 45.9372Z" fill="#676666"/>
<path d="M18.229 26.9219C17.9192 26.44 18.1602 25.7997 18.229 25.2971C18.2428 25.841 18.2152 26.3505 18.229 26.9219Z" fill="#6A6A6A"/>
<path d="M80.9421 20.519H81.0523C81.0661 20.8151 81.1005 21.4003 81.1143 21.6963C80.7287 21.4554 80.6667 21.0629 80.9421 20.519Z" fill="#D4D4D4"/>
<path d="M80.7494 14.5017H80.8871C80.8871 14.8046 80.8871 15.4105 80.8871 15.7134C80.5911 15.3761 80.5429 14.9699 80.7563 14.5017H80.7494Z" fill="#D7D7D7"/>
<path d="M6.62152 44.5603C6.80052 45.0353 6.7248 45.5242 6.59399 46.0267C6.59399 45.531 6.60775 45.0422 6.62152 44.5603Z" fill="#6D6C6C"/>
<path d="M59.0486 45.4829C59.6131 44.9941 60.4806 45.414 61.1347 45.4622C60.4393 45.4622 59.7439 45.4622 59.0486 45.4829Z" fill="#E9E9E9"/>
<path d="M105.397 8.9458C105.548 9.54477 105.548 10.1437 105.397 10.7496C105.362 10.1506 105.369 9.52412 105.397 8.9458Z" fill="#757575"/>
<path d="M80.7492 14.5018C80.7492 13.7927 80.7355 13.0835 80.8594 12.3882C80.8732 13.0904 80.8801 13.7927 80.8869 14.5018H80.7492Z" fill="#ABABAB"/>
<path d="M105.693 14.8457C106.285 14.8457 106.849 14.8457 107.455 14.887C106.856 15.0247 106.271 15.0109 105.693 14.8457Z" fill="#CCCCCC"/>
<path d="M119.269 15.4241C119.648 15.2106 120.061 15.2175 120.509 15.4516C120.089 15.6719 119.675 15.665 119.269 15.4241Z" fill="#D1D1D1"/>
<path d="M15.9915 16.2575C17.0449 16.2093 18.1051 16.2093 19.1654 16.2782C18.1327 16.5536 17.0311 16.3608 15.9915 16.2575Z" fill="#ADACAC"/>
<path d="M50.2775 17.4277C50.6837 17.1936 51.1312 17.3038 51.4686 17.6205C51.5443 18.5637 50.3257 18.8459 49.5822 18.7977C48.1432 18.7909 46.7112 18.7771 45.2792 18.7977C44.7353 18.7771 44.219 18.8115 43.6888 18.839C43.0899 18.8184 43.0279 17.944 43.5236 17.7306C45.4375 17.71 47.379 17.9165 49.2861 17.6618C49.6166 17.5998 49.9539 17.5516 50.2775 17.4346V17.4277Z" fill="#FBFBFB"/>
<path d="M43.6888 18.8391C44.219 18.8185 44.7353 18.7841 45.2792 18.7978V18.9768C44.756 18.9768 44.1914 18.9562 43.6888 18.8391Z" fill="#757474"/>
<path d="M45.7819 51.3558L45.954 51.3145C45.954 51.8859 46.0228 52.5193 45.8989 53.0976C45.7543 52.5331 45.7887 51.9134 45.7819 51.3558Z" fill="#757474"/>
<path d="M45.2793 18.7978C46.7113 18.7771 48.1433 18.7978 49.5823 18.7978V18.9561C48.1571 18.9699 46.7182 18.9561 45.2793 18.9699V18.7909V18.7978Z" fill="#BFBFBF"/>
<path d="M124.756 19.5894C125.232 19.4586 125.7 19.4931 126.216 19.5137C125.803 19.8304 125.218 19.555 124.756 19.5894Z" fill="#BFBFBF"/>
<path d="M80.9283 19.321H81.0592C81.0592 19.624 81.0591 20.2229 81.0523 20.519H80.9421C80.9421 20.2161 80.9352 19.6171 80.9283 19.321Z" fill="#A2A1A2"/>
<path d="M3.06897 41.7998C3.71613 41.6414 4.39083 41.6827 5.04488 41.8136C4.37706 41.8342 3.72302 41.8962 3.06897 41.7998Z" fill="#9E9D9D"/>
<path d="M3.06897 43.0113C3.66794 42.8599 4.26691 42.8599 4.87276 43.0251C4.27379 43.0664 3.66106 43.0113 3.06897 43.0113Z" fill="#868686"/>
<path d="M74.4085 42.9286C75.097 42.8254 75.4481 43.7479 75.0144 44.2505C73.9335 44.8288 73.6718 43.3004 74.4085 42.9286Z" fill="#EAE9EA"/>
<path d="M49.0519 44.932C49.3342 44.8838 49.9056 44.7875 50.1879 44.7393L50.2843 44.8288C49.9814 45.1523 49.5683 45.1868 49.045 44.932H49.0519Z" fill="#676667"/>
<path d="M28.4047 47.1903C28.6939 46.6878 29.3066 47.0182 29.7541 47.0595C31.7163 47.3005 33.7128 47.211 35.6888 47.1422L35.8402 47.1697C35.9986 47.5002 36.0399 47.8857 35.8196 48.2093C35.5993 48.2781 35.3858 48.3607 35.1724 48.4434C34.1122 48.3952 33.0519 48.3952 31.9917 48.4365C31.551 48.4021 31.1242 48.3745 30.6905 48.3607C30.1397 48.2506 29.6096 48.2231 29.0588 48.2644C28.6526 48.1198 27.9916 47.6447 28.4047 47.1903Z" fill="#FAF9F9"/>
<path d="M9.78156 51.3693C10.4425 51.3211 11.0896 51.328 11.7643 51.3762C11.1378 51.6309 10.4149 51.445 9.78156 51.3693Z" fill="#7D7C7C"/>
<path d="M44.5907 53.3936C44.632 52.9599 44.7215 52.0993 44.7628 51.6655C44.7628 52.2438 44.749 52.7946 44.7628 53.3936H44.5976H44.5907Z" fill="#747373"/>
<path d="M72.1984 75.349C72.2328 74.6881 73.2518 74.6949 73.3344 75.3283C73.4927 76.602 73.5203 77.9239 73.658 79.2182C74.5117 78.1924 75.2552 77.0495 76.3843 76.2853C76.8249 76.0237 77.2793 75.7827 77.72 75.528C78.5255 75.2526 79.3034 75.5762 79.1657 76.4505C79.0487 76.5676 78.9317 76.6777 78.8146 76.7879C77.2793 76.8499 76.1365 78.1373 75.2896 79.3077C74.8077 79.948 74.133 80.5951 74.1468 81.442C74.0091 82.2268 74.3671 83.1907 73.7888 83.8447L73.6442 83.8929C72.7974 83.8929 72.3499 82.8258 72.6115 82.1098C72.8111 81.0702 72.5082 80.0513 72.3636 79.0254C72.6321 78.4884 72.6046 78.0753 72.281 77.8C72.2535 77.6829 72.2053 77.4488 72.1777 77.3387C72.1915 76.664 72.2535 76.0168 72.1915 75.349H72.1984Z" fill="#F7F7F7"/>
<path d="M39.2481 79.8724C39.317 79.8724 39.4615 79.8724 39.5304 79.8724C39.8402 79.8586 40.4667 79.8311 40.7765 79.8242C41.4168 80.1271 42.0502 80.492 42.6354 80.9051C43.3721 81.869 43.971 82.943 44.2464 84.1341C44.1914 84.7812 44.1845 85.4628 44.2189 86.1169C43.9779 86.943 43.558 87.7072 43.0967 88.4301C42.4564 89.3114 41.4375 89.7451 40.5631 90.3441C41.2929 90.5024 42.0158 90.6126 42.78 90.5919C43.2206 90.6264 43.7507 90.7021 44.2258 90.7159C44.2946 90.7296 44.4323 90.7503 44.508 90.7572C45.1345 90.8742 45.8437 91.005 46.484 90.7709C47.0141 90.8122 48.0124 90.3785 48.157 91.0876C48.3497 91.8243 47.4203 91.8863 46.9246 92.0446C46.7112 92.079 46.5046 92.1135 46.2981 92.1479C45.6716 92.1203 45.1139 92.1135 44.508 92.1272C43.0278 91.9482 41.527 91.8794 40.0605 91.6109C40.1569 92.8364 40.4323 94.0687 40.9211 95.1978C40.8316 95.9138 40.1156 96.0791 39.5786 95.6866C39.1517 94.3097 38.9865 92.8777 38.6216 91.4938C38.298 91.2942 37.94 91.1358 37.6784 90.8673C37.2034 90.0962 37.9607 89.9861 38.3187 89.6556C38.3187 88.8983 37.9951 88.1685 37.8781 87.4318C37.8368 87.1702 37.7541 86.6539 37.7128 86.3923C37.5614 85.3114 37.2584 84.258 37.1138 83.1771C37.1138 82.8673 37.0932 82.2408 37.0863 81.9241C37.2791 81.5867 37.94 81.4008 38.1121 81.8414C38.6147 84.2855 38.9452 86.764 39.5717 89.1806C41.0863 88.8019 42.3876 87.6246 42.8488 86.1237C42.9796 85.4215 43.1036 84.6504 42.8764 83.9619C42.5252 82.7571 41.706 81.6349 40.5631 81.091C39.8815 80.7812 38.9108 81.8621 38.36 81.2218C38.1259 80.554 38.8075 80.2098 39.2481 79.8862V79.8724Z" fill="#F7F7F7"/>
<path d="M81.1968 96.2095C81.1899 95.3214 82.1744 95.1286 82.8766 95.0667C83.4756 95.2181 84.0952 95.3352 84.5978 95.7345C85.2794 96.3266 85.2106 97.3799 85.0453 98.1717C84.5427 99.9479 82.9593 101.139 81.3345 101.848C83.0832 102.303 84.8319 102.86 86.6564 102.977C87.5858 103.108 88.5565 103.198 89.4998 102.991C89.8646 102.929 90.2295 102.757 90.6151 102.784C90.9524 102.998 91.0832 103.37 90.9869 103.755C90.5531 104.079 90.0092 104.21 89.4998 104.361C88.5359 104.313 87.6064 104.258 86.6564 104.347C84.1572 103.975 81.6787 103.432 79.3173 102.55C78.6632 102.42 78.0091 102.385 77.362 102.447C76.6804 102.227 75.5995 101.786 75.8955 100.912C76.6184 99.6863 78.1331 100.767 79.1314 101.029C80.9489 100.829 82.7803 99.8515 83.7097 98.2267C83.8956 97.7173 84.0608 97.077 83.7097 96.6088C83.2622 96.4092 82.7114 96.0305 82.2846 96.4574C81.9335 96.8636 81.2863 96.7259 81.1899 96.1958L81.1968 96.2095Z" fill="#F7F7F7"/>
<path d="M89.3414 72.3541C90.7321 71.8309 92.2881 73.0357 92.0334 74.5228C91.6272 76.0581 89.9748 76.5469 88.6048 76.8017C88.653 77.8481 89.5824 78.7294 90.4843 79.1769C91.5377 79.7483 92.7907 79.4798 93.9267 79.3559C94.5532 79.2182 94.6289 80.2234 94.1401 80.423C91.5514 81.8 87.8543 80.1339 87.2829 77.2354C87.3311 76.1063 85.2588 76.2715 85.8302 74.8808C85.7132 74.4677 86.2226 74.4058 86.5118 74.3645C86.9937 74.3645 86.8079 75.3077 87.338 75.2113C87.6134 74.0546 88.0677 72.7259 89.3277 72.3541H89.3414ZM89.8509 73.5521C89.0523 73.8068 88.8939 74.7156 88.6048 75.4041C89.2795 75.5004 89.8578 75.1149 90.443 74.8395C90.8836 74.2681 90.6771 73.2836 89.8509 73.5521Z" fill="#F6F6F6"/>
<path d="M51.2001 86.7157C52.5908 86.0342 54.2501 86.2132 55.7234 86.5849C56.701 86.4197 57.2449 88.2097 56.1021 88.2579C55.5237 87.8999 54.9661 87.418 54.2156 87.5626C53.6029 87.4249 52.997 87.4249 52.3981 87.5626C52.0401 87.6176 51.7371 87.8173 51.4136 87.955C50.8628 87.8448 50.6631 86.9911 51.2001 86.7157Z" fill="#F6F6F6"/>
<path d="M50.6906 90.158C51.3653 89.9032 52.1157 90.1098 52.8386 90.0685C52.1157 90.2131 51.4066 90.1786 50.6906 90.158Z" fill="#666565"/>
<path d="M42.8763 83.948C43.1035 84.6365 42.9796 85.4076 42.8488 86.1098C42.835 85.3869 42.8419 84.664 42.8763 83.948Z" fill="#676666"/>
<path d="M52.3981 87.5625C52.9902 87.4248 53.596 87.4248 54.2156 87.5625C53.5891 87.5969 53.0039 87.6658 52.3981 87.5625Z" fill="#6B6B6B"/>
<path d="M87.9438 89.0427C88.1986 89.0083 88.4533 88.9739 88.7149 88.9395C89.6925 88.9876 90.6908 89.0014 91.6891 89.0014C92.5497 89.0083 93.3896 89.0014 94.2709 89.0014C94.7322 88.9876 95.2003 88.9739 95.6891 88.967C95.758 88.967 95.9025 88.9808 95.9783 88.9877C96.3019 89.3319 96.5979 90.0341 96.1298 90.3646C95.7993 90.3715 95.4895 90.2269 95.1797 90.1787C93.9611 89.9515 92.6943 89.9722 91.4826 90.1512C91.1659 90.1925 90.8492 90.22 90.5462 90.2613C89.7614 90.2751 88.9628 90.0754 88.2192 90.3233C87.9576 90.3577 87.7028 90.3921 87.455 90.4403C86.7252 90.4334 85.9885 90.2957 85.3001 90.5092C85.0178 90.5298 84.7355 90.5436 84.467 90.5574C83.7028 90.5918 82.9317 90.4403 82.2088 90.6675C82.0092 90.7088 81.8095 90.7433 81.6168 90.7846C80.887 90.7777 80.1503 90.6331 79.4618 90.8534C79.1864 90.8741 78.911 90.8878 78.6425 90.8947C77.9885 90.8878 77.3482 90.9291 76.7217 91.0186C74.2294 91.1908 71.7234 91.418 69.2931 92.0032C68.5013 92.6779 67.985 91.4662 68.5358 91.0944C70.2432 89.9928 72.3981 90.2682 74.3052 89.8138C74.8766 89.8138 75.5444 89.9653 76.1158 89.7381C76.226 89.7174 76.4394 89.6761 76.5496 89.6555C77.2036 89.6968 77.8715 89.6555 78.5324 89.5384C78.6357 89.5178 78.8422 89.4833 78.9524 89.4627C79.7028 89.4351 80.5221 89.6279 81.2794 89.4076C81.4722 89.3594 81.6718 89.3181 81.8715 89.2837C82.739 89.263 83.6822 89.4971 84.5428 89.2286C84.7906 89.1873 85.0453 89.1529 85.307 89.1185C86.1951 89.2148 87.0763 89.1804 87.9713 89.0427H87.9438Z" fill="#FAFAFA"/>
<path d="M52.8317 90.0686C53.0244 90.0341 53.231 90.0066 53.4306 89.9722C54.4289 90.0135 55.4272 90.0135 56.4393 89.9859C56.5976 90.041 56.756 90.1099 56.9143 90.1787C57.0382 91.0255 56.2396 91.2045 55.5856 91.294C54.4634 91.3078 53.3067 91.0324 52.2189 91.3422C51.9435 91.3698 51.379 91.418 51.0967 91.4455C50.422 91.4042 49.7817 91.3835 49.1208 91.4455C48.8385 91.2252 48.453 90.4816 48.9487 90.3233C49.4031 90.3026 49.947 90.4334 50.4082 90.2338C50.4702 90.2131 50.6079 90.1718 50.6699 90.1512C51.379 90.1649 52.095 90.2063 52.8179 90.0617L52.8317 90.0686Z" fill="#FAFAFA"/>
<path d="M72.288 77.7998C72.6116 78.0821 72.6391 78.4883 72.3706 79.0253C72.3293 78.7499 72.2398 78.1991 72.1985 77.9237L72.288 77.7998Z" fill="#6E6E6E"/>
<path d="M37.1071 83.1563C36.7628 82.881 36.6733 82.1718 37.0795 81.9033C37.0864 82.2131 37.1002 82.8396 37.1071 83.1563Z" fill="#767676"/>
<path d="M80.887 79.8931C82.1262 79.2597 82.4498 81.7244 81.2037 81.5936C80.4739 81.394 80.5634 80.437 80.887 79.8931Z" fill="#EFEFEF"/>
<path d="M91.6959 88.8224C92.5565 88.8224 93.4034 88.8018 94.2777 88.8224V88.9945C93.3965 88.9945 92.5565 89.0083 91.6959 88.9945V88.8224Z" fill="#989797"/>
<path d="M91.4757 90.1372C92.6874 89.9582 93.9542 89.9307 95.1728 90.1648C93.9405 90.2267 92.6943 90.1923 91.4757 90.1372Z" fill="#8B8B8B"/>
<path d="M48.9625 90.3302C49.3963 90.0479 49.8989 90.2338 50.4221 90.2407C49.9608 90.4404 49.4169 90.3096 48.9625 90.3302Z" fill="#BEBDBD"/>
<path d="M44.5012 90.7431C45.1622 90.7155 45.7955 90.7224 46.4771 90.7568C45.8369 90.9909 45.1277 90.8601 44.5012 90.7431Z" fill="#B4B4B4"/>
<path d="M86.6632 104.354C87.6064 104.272 88.5427 104.32 89.5066 104.368C88.5703 104.582 87.5858 104.485 86.6632 104.354Z" fill="#767576"/>
</svg>
