<svg width="268" height="72" viewBox="0 0 268 72" fill="none" xmlns="http://www.w3.org/2000/svg">
<path d="M157.132 1.56005C157.402 1.08005 158.352 0.490027 158.742 1.19003C159.762 3.07003 160.782 5.17006 162.412 6.50006C164.012 5.34006 165.272 3.67003 166.602 2.19003C166.982 1.53003 168.382 1.96005 168.162 2.74005C167.242 4.92005 165.032 6.17006 163.622 8.00006C164.752 9.36005 166.082 10.61 167.602 11.55C168.152 11.84 169.192 12.09 168.872 12.94C168.152 14.09 166.542 13.39 165.732 12.7C164.582 11.59 163.482 10.43 162.372 9.29003C160.942 10.26 159.792 11.63 158.152 12.26C156.852 13.12 156.102 11.19 157.122 10.71C158.482 9.87005 160.032 9.13004 160.952 7.77004C159.692 6.15004 158.442 4.50003 157.462 2.69003C157.332 2.31003 157.222 1.94005 157.142 1.56005H157.132Z" fill="#F7F7F7"/>
<path d="M121.192 2.06002C121.992 1.38002 123.252 1.18 124.182 1.76C125.702 2.49 126.862 3.75002 127.922 5.03002C130.682 9.60002 132.292 14.77 133.202 20.01L133.242 20.2C133.202 21.23 133.192 22.27 133.222 23.31C133.042 24.19 132.812 25.06 132.622 25.94C132.192 26.67 131.792 27.84 130.712 27.48C129.472 26.16 131.452 24.6 131.232 23.06C131.402 22.18 131.402 21.3 131.232 20.45C130.842 17.01 129.862 13.65 128.482 10.49C127.672 8.12001 126.512 5.75 124.612 4.07C123.902 3.56 122.982 2.92 122.122 3.51C121.412 3.62 120.532 2.95002 121.192 2.06002Z" fill="#F7F7F7"/>
<path d="M96.9524 19.8098C97.3924 19.2298 98.3024 19.4798 98.6124 20.0798C98.8424 21.7098 99.1124 23.3598 99.1724 25.0098C99.1524 25.8398 99.0724 26.7598 99.3324 27.5898C99.4324 28.0298 99.5724 28.6598 99.1224 28.9698C98.7524 29.5498 98.0924 29.0198 97.7324 28.7098C97.5724 27.9098 97.4324 27.0598 97.4324 26.2698C97.4124 25.3198 97.3524 24.3798 97.2524 23.4498C97.2724 22.2198 96.9724 21.0198 96.9524 19.8098Z" fill="#F7F7F7"/>
<path d="M72.1924 44.2801C72.9224 43.7701 74.2624 43.4501 74.6024 44.5601C74.4424 45.6201 73.0524 45.7501 72.4824 46.5601C71.1224 48.7501 70.7624 51.4101 70.6224 53.9501C70.4224 54.8801 70.3924 55.8601 70.5924 56.8301C70.8724 58.8601 71.3424 60.9801 72.7224 62.5801C72.6624 62.9701 72.7524 63.4601 72.3924 63.7401C71.7324 63.9001 71.0024 63.5901 70.7624 62.9401C69.7324 61.4001 69.2324 59.6201 68.8724 57.8301C68.8924 56.5401 68.9724 55.2901 68.9424 54.0101C68.9224 53.3101 68.9024 52.6301 68.9024 51.9501C69.5524 49.2701 69.5024 45.8201 72.2124 44.2701L72.1924 44.2801Z" fill="#F7F7F7"/>
<path d="M137.962 0.019989C138.132 0.029989 138.462 0.0499976 138.632 0.0599976C139.352 1.04 139.192 2.35998 139.392 3.50998C138.992 3.77998 139.452 5.20998 140.102 4.94998C141.132 4.96998 142.182 4.96999 143.242 4.95999C143.602 5.27999 144.082 5.62998 143.912 6.19998C143.442 6.59998 142.832 6.73998 142.252 6.84998C141.602 7.00998 140.182 6.34998 139.922 7.00998C139.952 8.19998 140.282 9.34998 140.412 10.54C140.462 11.85 140.842 13.11 140.892 14.43C140.612 14.79 140.232 15.15 139.742 14.97C139.442 14.67 139.202 14.32 138.982 13.97C138.682 12 138.502 10.02 138.152 8.04999C138.152 7.69999 138.152 7.35 138.152 7C137.832 7.04 137.192 7.11999 136.872 7.14999C135.632 7.19999 134.462 7.76 133.232 7.72C132.652 7.29 132.882 6.34998 133.502 6.06998C134.792 5.43998 136.282 5.53999 137.652 5.20999C137.742 3.58999 137.212 1.97999 137.492 0.359985C137.612 0.269985 137.842 0.09 137.962 0V0.019989Z" fill="#F6F6F6"/>
<path d="M116.752 14.93C116.032 13.84 117.102 13.31 117.872 13.54C119.102 15.24 120.132 17.09 121.402 18.77C121.562 18.94 121.782 19.49 122.082 19.19C123.502 18.01 124.452 16.38 125.722 15.05C126.752 14.77 127.172 16.02 126.642 16.75C125.492 18.1 124.352 19.47 123.152 20.76C123.582 21.83 124.572 22.51 125.342 23.33C125.842 24 126.852 23.91 127.382 24.56C127.682 25.71 126.032 26.1 125.242 25.7C123.702 24.97 123.032 23.2 121.672 22.26C120.312 23.27 118.852 24.75 116.972 24.24C116.532 23.97 116.442 23.04 116.992 22.85C118.402 22.5 119.612 21.73 120.652 20.72C120.222 20.09 119.682 19.54 119.212 18.99C118.432 17.6 117.442 16.35 116.742 14.93H116.752Z" fill="#F6F6F6"/>
<path d="M150.372 39.4599C150.592 36.7299 151.312 33.3699 154.192 32.2699C155.362 32.1499 156.382 33.3699 156.172 34.5099C156.242 37.1499 154.422 39.2499 152.472 40.7899C152.772 41.8499 153.272 42.8399 153.842 43.7799C154.062 44.0599 154.322 44.3199 154.592 44.5799C155.242 45.4699 156.552 44.3399 157.342 45.0899C158.372 46.3999 155.902 47.2199 154.942 47.0099C152.642 46.1899 151.452 43.8699 150.752 41.6899C150.582 40.8999 149.532 41.3499 149.072 40.8499C148.962 39.9699 149.772 39.7999 150.382 39.4599H150.372ZM154.242 34.3499C153.042 35.2599 152.622 36.8599 152.412 38.2899C153.772 37.4499 154.382 35.7699 154.422 34.2299L154.242 34.3399V34.3499Z" fill="#F6F6F6"/>
<path d="M174.722 34.8398C175.272 34.9098 175.922 35.3298 175.632 35.9798C174.682 37.6298 174.232 39.6598 174.962 41.4898C176.442 41.6998 177.362 40.2398 178.492 39.5698C179.502 38.8598 179.832 39.8998 180.212 40.4598C180.202 41.1498 180.202 41.8498 180.212 42.5598C179.472 46.4898 178.772 50.5098 177.072 54.1698C176.622 55.2498 174.742 55.4498 174.422 54.2398C173.732 52.8598 175.142 52.7298 175.832 52.1798C175.962 51.7998 176.072 51.4298 176.192 51.0598C176.722 49.4898 177.092 47.8798 177.522 46.2898C177.842 44.9698 178.272 43.6398 178.182 42.2698C177.372 42.6598 176.622 43.3998 175.662 43.2698C174.242 43.5698 173.032 42.3798 172.812 41.0898C172.842 40.0998 172.922 39.1798 172.872 38.2098C173.292 37.0198 173.312 35.3398 174.702 34.8398H174.722Z" fill="#F6F6F6"/>
<path d="M160.922 36.71C162.022 36.8 162.302 37.84 161.912 38.74C162.742 38.01 164.072 38.06 164.892 38.8C166.482 40.63 167.132 43.01 167.602 45.33C167.852 46.3 167.822 47.92 166.222 47.25C165.402 45.7 165.452 43.84 164.702 42.24C164.382 41.37 164.012 40.47 163.212 39.97C162.722 40.69 162.152 41.3999 161.922 42.2599C161.562 43.0799 161.302 43.9499 160.892 44.7599C158.942 45.5399 159.432 43.22 159.532 42.31C160.102 40.48 159.842 38.35 160.932 36.71H160.922Z" fill="#F6F6F6"/>
<path d="M213.492 41.1C213.882 39.55 215.112 38.11 216.922 38.51C217.832 38.96 218.862 39.62 218.932 40.77C219.602 42.22 218.762 43.67 218.222 45.02C218.812 46.69 219.272 48.54 218.682 50.28C218.292 52 216.782 53.29 215.132 53.78C214.722 53.78 213.892 53.78 213.472 53.78C212.512 53.58 211.912 52.54 212.212 51.58C212.592 50.94 213.622 51.13 213.992 51.71C214.362 52.33 214.972 51.71 215.412 51.51C217.382 50.58 217.172 48.11 216.632 46.35C215.102 47.01 213.262 46.33 213.172 44.53C213.152 43.85 213.152 43.18 213.172 42.52C213.152 42.02 213.342 41.57 213.482 41.11L213.492 41.1ZM216.232 40.37C216.102 40.42 215.832 40.51 215.702 40.56C215.462 41.62 216.382 42.48 217.162 43.05C217.142 42.11 217.472 40.48 216.232 40.37Z" fill="#F6F6F6"/>
<path d="M129.752 39.5601C130.042 39.5601 130.332 39.5601 130.622 39.5901C131.222 39.7201 131.922 39.8601 132.182 40.5001C132.592 40.9901 131.992 41.45 131.712 41.83C130.202 40.82 128.272 41.53 126.962 42.57C126.502 43.47 127.932 43.0301 128.502 42.8701C129.522 42.5101 130.512 41.9101 131.642 41.9901C133.092 42.4701 133.242 44.32 133.592 45.58C133.872 47.79 133.132 50.5701 130.862 51.4601C129.852 51.8901 128.612 52.2301 127.662 51.5201C126.962 51.0201 126.912 49.74 127.732 49.3C128.432 48.98 128.742 50.0801 129.382 49.9901C131.992 49.4301 132.252 45.98 131.122 44.01C129.902 43.98 128.952 45.13 127.672 44.76C126.232 45.07 124.482 43.6601 125.242 42.0901C125.752 40.7701 127.242 40.2001 128.492 39.7401C128.912 39.7401 129.362 39.7401 129.752 39.5601Z" fill="#F6F6F6"/>
<path d="M55.6924 51.5598C56.2924 51.2698 56.9224 51.2798 57.6124 51.3098C58.7924 51.5098 60.0224 51.5598 61.2224 51.4398C61.7224 51.6598 62.4024 52.0198 62.1224 52.6898C61.4624 53.7598 59.9624 52.9998 58.9824 53.2598L58.7424 53.2298C57.8624 53.0098 57.0024 52.9798 56.1124 53.0498C55.5624 52.7398 55.4224 52.2398 55.6924 51.5598Z" fill="#F6F6F6"/>
<path d="M145.642 7.97992C146.322 6.29992 147.912 5.19992 149.602 4.66992C150.282 4.67992 150.982 4.69992 151.692 4.72992C152.562 5.16992 153.702 5.27993 154.362 6.07993C154.682 7.51993 154.762 8.97991 155.002 10.4399C154.922 11.3699 154.902 12.3699 154.982 13.3199C154.882 15.2499 153.432 16.8399 151.662 17.4999C150.262 18.2499 148.202 18.4299 147.352 16.7999C147.232 15.9099 147.612 14.8599 148.682 14.9499C148.852 15.2799 149.042 15.6199 149.242 15.9399C150.672 16.2699 152.102 15.2899 152.732 14.0599C152.792 13.9299 152.902 13.6799 152.962 13.5499C153.302 12.2899 153.132 10.9499 152.962 9.68991C152.922 9.27991 152.892 8.86994 152.852 8.46994C151.702 9.46994 150.722 10.7399 149.312 11.4099C148.252 11.8599 146.792 11.8199 146.082 10.8099C145.412 10.0199 145.702 8.90993 145.612 7.95993L145.642 7.97992ZM150.872 6.27994C149.302 6.46994 147.112 7.52993 147.442 9.45993C147.872 10.0599 148.762 9.72992 149.222 9.31992C150.072 8.44992 151.112 7.67994 151.652 6.55994C151.392 6.44994 151.132 6.35994 150.872 6.27994Z" fill="#F8F8F8"/>
<path d="M83.5224 5.60005C84.8124 4.70005 85.4124 6.56007 84.4924 7.09007C82.8024 8.35007 82.1024 10.3901 81.5224 12.3301C81.1224 14.3601 80.5824 16.3801 80.6124 18.4701C80.4324 20.9001 80.1424 23.4201 80.5924 25.8501C80.7824 27.7901 81.2324 29.7001 81.8024 31.5701C82.1224 32.5901 82.4024 33.7501 83.3524 34.3801C84.3124 35.6901 81.9524 36.4801 81.5024 35.4501C79.7624 32.3601 79.1424 28.8101 78.5824 25.3501C78.6924 22.8901 78.6924 20.4301 78.6224 17.9701C79.3724 14.6301 79.2124 10.9901 81.1524 8.02007C81.6324 6.96007 82.5624 6.23006 83.5124 5.61006L83.5224 5.60005Z" fill="#F8F8F8"/>
<path d="M51.4924 16.3099C52.4024 15.9299 53.1424 16.8699 52.9224 17.7299C51.7324 18.1299 51.7124 19.5799 52.0724 20.5999C52.3524 21.9599 53.6124 23.2999 55.1524 22.7699C56.4024 22.1999 57.1224 21.0499 57.9824 20.0499C59.2224 19.3399 59.5224 20.6699 59.7624 21.4399C59.7024 22.5299 59.6624 23.6499 59.6624 24.7599C59.6524 26.0099 59.6324 27.2999 59.7324 28.5699C59.6924 29.9799 59.3924 31.4099 58.8924 32.7399C58.2724 34.5199 56.5524 35.5199 54.9024 36.1999C54.4124 36.2799 53.9424 36.4099 53.4724 36.5399C52.5724 36.4999 51.7424 36.5199 50.8624 36.5599C49.7524 36.3899 48.4924 34.8199 49.6024 33.9199C50.3624 33.2999 51.0724 34.3999 51.7124 34.7299C52.8024 34.8199 53.9124 34.4299 54.9224 34.0099C56.7624 33.3899 57.5724 31.3499 57.7424 29.5599C58.0424 27.3699 57.9124 25.1599 57.9024 22.9799C57.7424 23.1199 57.5924 23.2599 57.4524 23.4099C56.3724 24.2199 55.0024 25.0799 53.5924 24.5999C50.1924 23.8399 48.8824 18.5799 51.4924 16.2999V16.3099Z" fill="#F8F8F8"/>
<path d="M65.9524 22.06C66.7524 21.36 67.8824 21.46 68.8624 21.2C70.3924 21.28 71.9324 21.26 73.4824 21.22C74.2824 21.6 74.3324 22.48 73.6624 23.02C73.2624 23.02 72.8724 22.9999 72.4824 22.9799C71.6724 22.7899 70.8924 22.6499 70.1124 22.9399C69.3124 23.0599 68.4924 23.0599 67.7324 23.3499C66.6724 23.5899 65.5824 23.2099 65.9524 22.0699V22.06Z" fill="#F8F8F8"/>
<path d="M67.4724 24.5499C68.1924 24.4399 68.8824 24.8199 69.6024 24.8499C70.5324 25.0099 71.5424 25.09 72.4924 24.87C73.6124 24.78 75.3824 23.8599 75.9124 25.2699C75.5324 26.2599 74.3524 26.4299 73.4224 26.5199C71.9124 26.5099 70.4124 26.5099 68.9124 26.5199C67.9024 26.6799 66.4824 25.4399 67.4724 24.5499Z" fill="#F8F8F8"/>
<path d="M201.512 36.1199C203.882 36.6099 202.982 32.2299 205.352 33.0499C206.182 33.7399 205.192 34.7698 204.932 35.5398C205.712 35.4498 206.562 35.3698 207.352 35.1898C208.532 35.2198 209.762 35.2699 210.972 35.2199C211.512 35.4599 211.852 36.5298 211.232 36.8198C210.392 36.7698 209.622 36.6599 208.852 36.9299C207.332 37.2099 205.702 37.0699 204.252 37.5799C203.722 39.2299 203.382 40.9598 203.372 42.6998C203.192 43.4498 203.072 44.3099 203.342 45.0799C203.442 45.7199 203.462 47.1599 204.462 46.8399C205.072 46.6899 205.552 47.1998 205.692 47.7598C205.532 48.1998 205.032 48.4298 204.712 48.7598C204.282 48.7598 203.432 48.7299 203.002 48.7199C202.222 48.1299 201.792 47.2498 201.632 46.3198C201.672 44.5998 201.752 42.8998 201.632 41.1998C201.792 40.0698 202.182 38.9699 202.182 37.8299C201.572 37.7899 200.902 37.6398 200.662 37.0098C200.852 36.6298 201.182 36.3499 201.532 36.1099L201.512 36.1199Z" fill="#F8F8F8"/>
<path d="M105.422 39.2801C104.072 39.0501 104.622 36.58 106.092 37.58C108.812 39.26 110.352 42.29 111.522 45.17C112.572 48.49 113.432 51.94 113.502 55.44C113.442 56.12 113.322 56.9 113.622 57.58C113.642 57.95 113.642 58.32 113.642 58.7C113.502 59.35 113.452 60.1101 113.482 60.8101C113.322 64.3001 112.432 67.7401 110.932 70.9001C110.682 71.2601 110.442 71.65 110.122 71.96C109.462 72.08 108.742 71.31 109.072 70.67C110.102 67.78 111.312 64.9201 111.492 61.8101C111.562 61.0201 111.692 60.31 111.752 59.55C111.862 58.43 112.142 57.27 111.772 56.2C111.672 55.4 111.742 54.68 111.522 53.94C111.382 52.42 111.182 50.91 110.762 49.44C110.542 48.52 110.282 47.61 109.992 46.73C109.312 43.86 107.852 41.03 105.442 39.27L105.422 39.2801Z" fill="#F8F8F8"/>
<path d="M92.8124 15.61C93.5324 15.6 94.0624 16.24 93.8824 16.95C93.3424 17.85 92.1624 17.2 91.4224 17.76C91.0024 18.07 90.1724 18.25 90.4624 18.95C91.8324 20.34 93.4124 21.57 94.3624 23.33C94.8924 24.84 93.9424 26.28 92.6824 27.01C91.1224 27.89 89.2524 28.19 87.4924 27.96C86.6924 27.5 86.8824 26.48 87.2424 25.78C88.1624 24.93 88.5024 26.58 89.2624 26.13C90.4624 25.72 92.1824 25.63 92.6824 24.26C91.7424 21.91 88.2724 20.94 88.6924 18.02C89.2124 16.38 91.2924 15.77 92.8224 15.61H92.8124Z" fill="#F5F5F5"/>
<path d="M225.442 38.0101C225.702 37.4901 225.652 36.4501 226.862 37.2901C228.132 38.6001 228.512 40.4901 229.442 42.0201C231.252 40.9501 232.762 39.4401 233.962 37.7301C234.532 37.8301 235.042 38.1401 235.162 38.7501C234.842 39.6001 234.252 40.3001 233.662 40.9701C232.602 41.9301 231.372 42.7201 230.392 43.7701C230.812 45.0601 231.522 46.2401 232.312 47.3501C232.812 48.0801 231.862 49.1201 230.982 48.4701C229.982 47.5201 229.432 46.2401 228.852 45.0301C227.812 45.2601 226.922 45.9501 225.902 46.2301C225.222 46.4501 224.482 45.7301 224.702 45.0501C225.632 44.2201 226.882 43.8501 227.942 43.2101C227.262 41.4001 226.312 39.7101 225.442 38.0001V38.0101Z" fill="#F5F5F5"/>
<path d="M142.982 38.3C143.722 37.99 144.302 38.52 144.252 39.29C143.392 40.84 141.922 41.85 140.632 43.01C141.452 44.06 142.462 45.01 143.712 45.53C143.772 47.27 141.502 46.98 140.692 45.96C140.202 45.45 139.772 44.88 139.352 44.32C138.582 44.2 137.922 44.92 137.182 45.02C136.072 45.63 135.442 44.66 135.722 43.83C136.272 43.13 137.272 43.29 137.932 42.76C137.362 41.62 136.442 40.67 135.942 39.51C135.722 38.76 136.492 37.97 137.372 38.55C138.052 39.53 138.512 40.78 139.432 41.54C140.882 40.83 141.902 39.48 142.982 38.32V38.3Z" fill="#F5F5F5"/>
<path d="M102.702 49.5801C103.112 48.9801 104.072 49.2101 104.352 49.8401C104.982 51.2801 105.342 52.8301 106.002 54.2701C107.242 52.9801 108.432 51.5601 109.052 49.8701C109.152 49.3301 109.772 49.5701 110.172 49.4901C110.402 49.8701 110.812 50.2401 110.662 50.7401C109.892 52.7201 108.422 54.3001 107.002 55.8401C106.682 56.4701 107.212 57.0701 107.552 57.5701C108.212 58.6601 109.082 59.6101 109.662 60.7601C109.472 61.3501 109.212 62.1001 108.252 61.4601C107.002 60.4101 106.272 58.9101 105.382 57.5801C104.592 57.5801 103.072 58.2401 103.172 57.0101C103.022 56.1801 104.272 56.1501 104.412 55.4901C103.982 53.4901 102.642 51.6701 102.702 49.5801Z" fill="#F5F5F5"/>
<path d="M79.6724 50.0101C80.6224 49.6601 82.1924 49.5101 82.4124 50.7801C82.5224 51.6701 81.3224 51.7601 80.6924 51.5801C80.2324 51.7001 79.2224 51.7601 79.4824 52.4501C80.5324 53.6701 82.5524 54.7401 81.8824 56.6901C81.1024 57.7901 79.8624 58.2901 78.6424 58.7101L78.4524 58.7701C78.0024 58.7901 77.0924 58.8301 76.6324 58.8501L76.4424 58.8301C75.9624 58.2401 75.4724 57.1201 76.2324 56.5601C76.5624 56.0701 77.2324 56.2501 77.6324 56.5601C78.4824 57.1701 79.4124 56.3501 80.1924 56.0101C79.5924 54.6101 78.0424 53.9001 77.4324 52.5001C76.9424 51.0001 78.6024 50.3601 79.6824 50.0101H79.6724Z" fill="#F5F5F5"/>
<path d="M55.9124 54.79C56.3924 54.89 56.8724 55.01 57.3624 55.08C59.1224 55.3 60.9924 55.46 62.7424 55.07C63.2224 55 63.7024 55.09 64.1424 55.32C64.1024 55.68 64.0324 56.4 63.9924 56.76C61.3624 56.99 58.6824 57.25 56.0924 56.61C55.6024 56.46 55.2124 56.0201 55.1724 55.5201C55.4124 55.2701 55.6624 55.03 55.9124 54.8V54.79Z" fill="#F5F5F5"/>
<path d="M203.332 45.08C203.072 44.31 203.182 43.46 203.362 42.7C203.402 43.5 203.312 44.25 203.332 45.08Z" fill="#BEBEBE"/>
<path d="M41.2024 44.7899C41.3324 44.0399 42.4224 43.6699 42.8924 44.3199C42.5024 46.3399 43.0724 48.4999 44.3524 50.0899C45.0624 50.7899 46.0924 50.5299 46.7224 49.8699C47.8624 49.2599 48.2724 47.8899 49.2224 47.0599C50.0724 46.7999 50.8224 47.4099 50.9924 48.2299C50.9324 48.9599 50.9224 49.7599 50.9224 50.5299C50.8824 51.2399 50.9224 52.0299 50.9224 52.7799C50.8924 53.6699 50.9224 54.6299 50.9424 55.5399C50.9424 55.9699 50.9524 56.8499 50.9624 57.2799C50.5624 58.0799 50.6424 58.6399 51.2124 58.9799C51.1924 59.7199 51.0224 60.5999 51.3624 61.3299C51.8324 61.9699 51.4824 62.6299 50.9024 63.0399C50.0924 62.9699 49.5424 62.3499 49.3524 61.5899C49.3524 60.7599 49.5124 59.9899 49.2724 59.2099C49.2024 58.8299 49.1524 58.4599 49.0924 58.0899C49.2124 55.4699 49.1924 52.8399 49.1524 50.2299C48.9924 50.3699 48.8424 50.5099 48.6924 50.6699C47.9324 51.4099 47.0524 52.2699 45.9324 52.2899C44.6324 52.5099 43.5624 51.8899 42.6924 51.0399C41.6824 49.1599 40.5124 46.9799 41.2124 44.7999L41.2024 44.7899Z" fill="#F9F9F9"/>
<path d="M194.922 45.86C195.762 45.6 197.072 45.79 196.392 47.2C195.102 47.81 193.632 47.97 192.242 48.1C190.622 48 189.022 48 187.422 48.02C186.662 47.95 185.892 48.03 185.202 47.72C184.502 46.12 186.162 46.08 187.132 46.31C188.632 46.47 190.252 46.76 191.752 46.34C192.812 46.2 193.882 46.13 194.932 45.86H194.922Z" fill="#F9F9F9"/>
<path d="M84.8824 52.96C85.5724 51.73 87.4624 52.7899 86.7724 54.1999C86.6524 56.0599 86.6724 57.9399 86.7324 59.8199C86.4124 60.5399 85.1624 60.4399 85.1124 59.5799C85.1124 58.1999 85.3324 56.81 84.9724 55.47C84.9524 55.37 84.8924 55.1699 84.8724 55.0699C84.8724 54.3499 84.8724 53.65 84.8824 52.96Z" fill="#F9F9F9"/>
<path d="M70.1124 22.9299C70.8924 22.6399 71.6724 22.7899 72.4824 22.9699C71.6924 22.9799 70.8624 22.9099 70.1124 22.9299Z" fill="#AEAEAE"/>
<path d="M90.3824 55.7099C90.8224 54.4199 91.3524 52.6799 92.9324 52.5099C95.3224 52.0099 96.3324 54.6399 97.1524 56.3399C97.4124 57.6999 97.8624 59.0899 97.9024 60.4999C97.7324 61.1099 97.4524 61.8799 96.4724 61.2499C95.7624 60.4299 95.9724 59.2199 95.6624 58.2699C95.3124 56.7899 94.8024 55.0699 93.4324 54.2599C91.7924 55.0999 91.7524 57.5299 92.8224 58.8799C93.1424 59.3099 92.6324 59.7099 92.4224 60.0599C91.2024 60.0899 90.6224 58.8399 90.3424 57.8499C90.3424 57.1199 90.3624 56.4199 90.3924 55.7199L90.3824 55.7099Z" fill="#F4F4F4"/>
<path d="M187.122 46.3099C188.652 46.2499 190.192 46.2499 191.742 46.3399C190.242 46.7599 188.622 46.4699 187.122 46.3099Z" fill="#656465"/>
<path d="M189.732 41.5699C190.012 41.5199 190.312 41.4799 190.602 41.4399C191.812 41.5199 193.022 41.4699 194.252 41.4399C195.182 42.0999 194.432 43.4799 193.382 43.2899C192.972 43.2999 192.152 43.32 191.742 43.33C190.842 43.26 190.042 43.25 189.172 43.25C188.142 43.25 187.122 43.2699 186.112 43.3199C185.252 43.2699 185.152 42.02 185.872 41.7C187.162 41.78 188.442 41.78 189.732 41.56V41.5699Z" fill="#FAFAFA"/>
<path d="M104.612 18.9498C104.792 17.9498 105.212 16.4198 106.672 17.0098C106.592 17.8298 106.462 18.6899 106.422 19.5199C107.172 19.3199 107.822 18.8598 108.672 19.0098C110.922 18.8698 112.632 20.6298 113.852 22.3198C114.362 23.4198 114.932 24.5098 115.262 25.6898C115.202 26.4498 115.212 27.2899 115.232 28.0799C115.212 29.0799 114.382 30.0099 113.412 29.2999C113.252 28.1099 113.742 26.8199 113.232 25.7099C113.052 25.3099 112.822 24.9298 112.692 24.5098C112.412 23.4398 111.622 22.5899 110.892 21.8099C109.792 20.8699 107.702 20.5099 106.762 21.8399C106.082 23.2199 106.972 24.7599 106.662 26.2199C105.952 27.1599 104.592 26.3498 104.602 25.3299C104.602 24.3598 104.692 23.4599 104.682 22.5199C104.662 21.3199 104.682 20.1399 104.622 18.9599L104.612 18.9498Z" fill="#F8F7F7"/>
<path d="M113.472 60.8199C113.452 60.1199 113.492 59.36 113.632 58.71C113.662 59.43 113.512 60.0699 113.472 60.8199Z" fill="#ADADAD"/>
<path d="M118.182 37.28C118.092 36.55 119.612 35.77 119.672 36.76C119.692 38.11 119.562 39.49 119.842 40.83C119.892 41.97 121.792 40.97 122.352 41.57C123.042 41.91 122.502 42.92 121.912 43C121.242 42.98 120.582 42.99 119.932 43.03C119.882 44.51 119.932 46.01 119.912 47.5C119.892 48.23 118.432 48.23 118.432 47.5C118.352 46.47 118.482 45.43 118.262 44.43L118.222 44.23C118.192 43.82 118.172 43.42 118.132 43.02C117.282 42.96 116.512 43.01 115.682 42.99C115.072 42.98 115.132 42.21 115.192 41.79C115.952 41.19 116.992 41.33 117.922 41.24L118.162 41.22C118.172 39.89 118.182 38.57 118.182 37.27V37.28Z" fill="#FBFBFB"/>
<path d="M70.5824 56.83C70.3824 55.87 70.4124 54.88 70.6124 53.95C70.7124 54.92 70.6124 55.84 70.5824 56.83Z" fill="#BFBFBF"/>
<path d="M149.602 4.66994C150.242 4.43994 150.892 4.48994 151.612 4.48994L151.682 4.72993C150.972 4.69993 150.282 4.67994 149.592 4.66994H149.602Z" fill="#7E7D7D"/>
<path d="M155.012 10.4399C155.222 11.3799 155.182 12.3599 154.992 13.3199C154.912 12.3699 154.922 11.3799 155.012 10.4399Z" fill="#9E9E9E"/>
<path d="M99.4824 16.05C100.222 15.72 101.312 16.52 100.712 17.29C100.142 18.16 98.4524 16.74 99.4824 16.05Z" fill="#E6E5E5"/>
<path d="M131.242 20.46C131.422 21.32 131.422 22.1899 131.242 23.0699C131.182 22.2099 131.182 21.3 131.242 20.46Z" fill="#989798"/>
<path d="M104.422 22.52H104.682C104.702 23.46 104.612 24.36 104.602 25.33C104.452 24.39 104.392 23.45 104.422 22.52Z" fill="#B1B1B1"/>
<path d="M59.6724 24.76H59.9224C59.9324 26.03 59.9124 27.29 59.7424 28.57C59.6424 27.3 59.6624 26.01 59.6724 24.76Z" fill="#AAAAAA"/>
<path d="M69.6124 24.8501C70.5524 24.7601 71.5524 24.6801 72.5024 24.8701C71.5524 25.0901 70.5424 25.0101 69.6124 24.8501Z" fill="#CAC9C9"/>
<path d="M113.232 25.7C113.732 26.81 113.252 28.0999 113.412 29.2899C112.722 28.4299 113.432 26.77 113.232 25.7Z" fill="#7B7A7A"/>
<path d="M119.672 36.76H119.922C119.952 38.12 119.922 39.47 119.852 40.83C119.572 39.48 119.702 38.1 119.682 36.76H119.672Z" fill="#E0DFDF"/>
<path d="M208.862 36.94C209.632 36.67 210.402 36.77 211.242 36.83C210.532 37.26 209.592 36.86 208.862 36.94Z" fill="#808080"/>
<path d="M201.602 46.3199C201.302 44.6299 201.322 42.88 201.602 41.2C201.712 42.9 201.632 44.6099 201.602 46.3199Z" fill="#878787"/>
<path d="M186.112 43.33C187.122 43.28 188.142 43.26 189.172 43.26V43.52C188.142 43.49 187.092 43.54 186.112 43.33Z" fill="#C7C6C7"/>
<path d="M118.262 44.4399C118.482 45.4299 118.352 46.4699 118.432 47.5099H118.182C118.112 46.4799 118.142 45.4499 118.262 44.4399Z" fill="#D6D5D5"/>
<path d="M187.422 48.02C189.022 48 190.622 48 192.242 48.1C190.672 48.49 189.012 48.15 187.432 48.25V48.01L187.422 48.02Z" fill="#ABAAAA"/>
<path d="M86.7324 48.5401C87.0724 48.6501 88.6324 48.1301 88.6724 49.0301C88.9324 49.8101 88.0624 50.2201 87.4224 50.2701C86.5624 50.3701 86.0024 49.0501 86.7324 48.5401Z" fill="#ECECEC"/>
<path d="M50.9224 50.52H51.1724C51.1724 51.27 51.1424 51.97 51.1724 52.77H50.9224C50.9224 52.03 50.8824 51.23 50.9224 50.52Z" fill="#8A8A8A"/>
<path d="M50.9224 52.76H51.1724C51.1924 53.69 51.1324 54.57 51.1424 55.52H50.9524C50.9324 54.61 50.9024 53.65 50.9324 52.76H50.9224Z" fill="#A3A3A3"/>
<path d="M68.6724 54.02H68.9224C68.9424 55.29 68.8724 56.54 68.8524 57.83C68.7724 57.56 68.7124 57.29 68.6624 57.03C68.6824 56.2 68.6424 55.31 68.6624 54.51C68.6624 54.39 68.6624 54.14 68.6624 54.02H68.6724Z" fill="#7D7D7D"/>
<path d="M50.9524 55.52H51.1424C51.1424 55.96 51.1324 56.83 51.1224 57.26H50.9624C50.9624 56.83 50.9524 55.95 50.9424 55.52H50.9524Z" fill="#BBBBBB"/>
<path d="M84.9724 55.47C85.3224 56.81 85.1124 58.2 85.1124 59.58C85.0224 59.31 84.9424 59.04 84.9024 58.77C84.9324 57.66 84.9424 56.55 84.9824 55.46L84.9724 55.47Z" fill="#D0CFCF"/>
<path d="M113.502 55.45C113.742 56.14 113.582 56.83 113.622 57.59C113.322 56.91 113.442 56.13 113.502 55.45Z" fill="#B4B3B3"/>
<path d="M111.762 56.21C112.132 57.29 111.852 58.44 111.742 59.56C111.712 59.41 111.662 59.12 111.632 58.97C111.662 58.25 111.602 57.49 111.632 56.81C111.662 56.66 111.732 56.36 111.762 56.21Z" fill="#E3E2E2"/>
<path d="M50.9724 57.27H51.1324C51.1524 57.7 51.2024 58.55 51.2224 58.97C50.6524 58.63 50.5724 58.06 50.9724 57.27Z" fill="#DBDBDB"/>
<path d="M49.2724 59.2C49.5224 59.98 49.3424 60.75 49.3524 61.58C49.1424 60.98 49.0824 60.3599 49.1724 59.7299C49.1924 59.5899 49.2424 59.33 49.2724 59.2Z" fill="#7C7B7B"/>
</svg>
