<svg width="486" height="183" viewBox="0 0 486 183" fill="none" xmlns="http://www.w3.org/2000/svg">
<g clip-path="url(#clip0_10_34)">
<path d="M149.09 8.88993C150.82 8.04993 153.11 8.85993 154.01 10.5599C156.05 13.8999 154.92 18.4499 152.17 21.0499C151.06 21.8499 152.79 21.4799 153.5 21.5699C154.34 21.8099 155.19 21.8299 156.06 21.6299C157.2 21.5199 158.27 21.0599 159.44 21.0899C159.97 21.4199 160.15 21.9899 159.67 22.4699C158.5 23.1999 157.11 23.3999 155.78 23.6199C155.33 23.6199 154.42 23.6099 153.97 23.6099C153.5 23.5699 153.03 23.5399 152.56 23.5199C151.03 23.4799 149.42 22.8199 147.95 23.5199C147.33 23.7399 146.58 23.8599 146 23.5199C145.38 23.1699 144.59 22.4499 145.19 21.7399C146.36 20.3199 148.51 21.7699 149.76 20.5499C151.57 19.5399 152.62 17.5899 153.07 15.6299C153.3 14.7499 153.3 13.8699 153.07 13.0099C152.84 11.5999 151.8 10.2599 150.28 10.3099C149.79 10.7399 149.52 11.6099 148.57 11.0499C147.82 10.5399 148.25 9.08993 149.09 8.91993V8.88993Z" fill="#F7F7F7"/>
<path d="M128.54 22.11C130.86 21.45 133.38 21.66 135.77 21.33C136.99 20.6 137.37 21.75 137.3 22.55C137.01 22.71 136.72 22.86 136.44 23.03C135.56 23.12 134.71 23.26 133.84 23.39C133.01 23.33 132.22 23.17 131.46 23.5C130.4 23.35 127.77 24.3 128.55 22.11H128.54Z" fill="#F7F7F7"/>
<path d="M27.44 32.48C27.5 31.71 28.58 31.54 28.98 32.12C29.33 34.37 27.91 36.47 28.31 38.74C28.92 39.46 29.84 40.19 30.86 39.67C32.03 39.15 32.44 37.8 32.59 36.63C32.72 35.67 32.77 34.72 32.73 33.77C33.07 33.02 34.07 32.79 34.46 33.64C34.98 36.87 35.42 40.12 36.27 43.29C36.25 44.64 36.82 45.91 36.75 47.27C36.45 47.71 35.63 47.71 35.32 47.27C34.87 46.8 34.78 46.12 34.61 45.52C34.54 45.11 34.47 44.7 34.34 44.3C34.1 42.88 34.02 41.4 33.51 40.06C32.77 40.69 31.99 41.3 31.06 41.62L29.23 41.65C27.93 41.26 26.99 40.34 26.48 39.12C26.46 38.3 26.49 37.55 26.48 36.76C26.81 35.33 27.21 33.93 27.45 32.49L27.44 32.48Z" fill="#F7F7F7"/>
<path d="M81 75.8C81.5 74.37 83.17 74 84.45 73.5C85.41 73.58 86.35 73.51 87.32 73.51C87.81 73.66 88.29 73.86 88.76 74.08C89.56 74.81 89.18 75.88 89.08 76.83C90.03 76.73 91 76.16 91.93 76.63C92.05 76.93 92.45 77.35 92.07 77.63C91.22 78.72 89.63 78.53 88.45 78.97C86.74 79.34 85.06 79.87 83.46 80.58C83.05 81.09 83.01 81.68 83.35 82.33C82.92 83.26 82.48 84.35 81.44 84.75C79.7 85.85 76.96 84.01 77.84 81.91C78.42 80.63 79.82 80.17 80.94 79.47C81.02 78.28 80.44 76.95 80.99 75.8H81ZM84.6 75.41C83.09 75.56 81.97 77.09 82.79 78.57C84.06 78.37 85.37 77.98 86.44 77.25C86.65 76.61 87.11 76.12 87.5 75.6C86.77 74.83 85.47 75.51 84.6 75.41ZM81.28 81.61C80.62 81.92 79.45 82.08 79.77 83.06C80.75 83.35 81.44 82.41 81.54 81.54L81.28 81.61Z" fill="#F7F7F7"/>
<path d="M168.08 0.0999354C169.62 -0.220065 171.61 0.169935 172.36 1.70994C173.03 3.50994 171.96 5.24994 170.77 6.52994C171.96 7.04994 173.43 7.55994 173.94 8.87994C173.76 9.55994 174.38 10.6699 173.71 11.2499C172.24 13.1699 169.92 14.3399 167.53 14.5299C166.92 14.2699 166.02 14.2399 165.83 13.4799C165.51 12.8199 166.34 12.0799 166.99 12.3499C168.32 12.7799 169.55 12.0699 170.68 11.4599C171.24 10.8999 172.32 10.5399 172.21 9.60993C171.21 8.26993 169.3 8.41994 168.03 7.50994C167.42 6.25994 168.75 5.79994 169.45 5.22994C169.93 4.61994 170.47 4.01994 170.76 3.29994C170.95 2.27994 169.85 1.42994 168.86 1.88994C168.48 2.33994 167.67 2.55994 167.3 2.00994C166.76 1.03994 167.61 0.639935 168.09 0.109935L168.08 0.0999354Z" fill="#F6F6F6"/>
<path d="M54.57 17.0901C55.4 16.7601 56.05 17.4601 55.75 18.2801C54.38 20.9201 52.61 23.3201 51.01 25.8201C52.02 27.2501 53.76 27.9401 55.18 28.9101C55.59 29.3101 55.5 29.8301 55.22 30.2901C53.66 30.6301 52.54 29.3501 51.3 28.7201C50.89 28.3001 50.5 27.8601 50.02 27.5101C48.63 29.1701 47.8 31.2701 46.22 32.7801C45.55 33.0101 45.02 32.6601 44.84 32.0001C45.73 29.8501 47.6 28.1601 48.51 26.0801C47.33 24.5601 45.95 23.1201 44.7 21.6301C44.01 21.2801 44.33 20.5801 44.58 20.0901C45.46 19.5901 45.93 20.3901 46.44 20.8301C47.36 22.1901 48.54 23.3501 49.66 24.5501C51.29 22.0701 52.97 19.6001 54.57 17.1001V17.0901Z" fill="#F6F6F6"/>
<path d="M78.85 40.14C80 39.45 80.67 40.33 80.57 41.29C81.85 41.62 83.41 41.18 84.5 42.1C84.52 42.5 84.64 43.03 84.22 43.28C82.29 43.49 80.4 43.01 78.51 42.8C78.82 43.94 80.19 44.58 80.5 45.82C81.27 47.57 79.91 50.23 77.77 49.81C76.8 49.95 75.4 49.18 75.54 48.1C76.08 47.55 76.79 47.52 77.44 47.92C78.28 48.48 79.25 47.18 78.71 46.39C77.95 45.22 77.09 44.14 76.41 42.94C75.66 42.61 75.32 41.66 76.08 41.13C77.13 41.2 77.96 40.55 78.86 40.15L78.85 40.14Z" fill="#F6F6F6"/>
<path d="M59.44 44.7299C60.46 43.7199 61.99 44.1099 63.26 44.3199C63.87 44.7699 64.47 45.2299 64.95 45.8299C65.07 46.1299 65.21 46.4299 65.33 46.7399C65.31 47.4399 65.31 48.1499 65.32 48.8599C64.88 50.1099 64.05 51.1599 63.31 52.2499C65.39 53.0099 67.49 54.4299 67.77 56.8099C67.48 58.8899 65.44 60.1699 63.52 60.5599C62.08 60.9399 60.28 59.7399 60.71 58.1099C61.37 57.5299 62.12 57.9099 62.62 58.4699C63.84 58.6499 65.64 57.9799 65.76 56.5699C65.28 55.1199 63.65 54.4699 62.35 53.9699C61.5 53.7999 60.16 53.4099 60.84 52.1499C62.03 50.6299 63.98 49.0499 63.47 46.8799C62.85 46.1699 61.92 45.3799 60.89 45.9599C60.31 46.1199 59.43 46.6499 59.04 45.9899C58.92 45.5199 58.99 44.9899 59.43 44.7199L59.44 44.7299Z" fill="#F6F6F6"/>
<path d="M24.05 59.6301C24.44 58.8601 25.61 58.8301 25.81 59.7501C25.81 60.7701 25.7 61.8401 25.93 62.8701C26.05 63.7601 26.16 64.6601 26.25 65.5601C26.52 67.9501 26.85 70.3701 27.67 72.6401C28.02 73.3401 27.17 73.8801 26.54 73.8401C25.54 73.0401 25.37 71.6601 25.08 70.5101C24.57 66.9001 23.95 63.2701 24.06 59.6301H24.05Z" fill="#F6F6F6"/>
<path d="M50.32 62.3701C51.36 62.4901 54.02 61.5601 53.25 63.7601C51.79 64.6001 49.94 64.1801 48.33 64.3801C47.2 64.4001 46.03 64.1201 44.95 64.4801C43.51 64.5601 42.09 64.7301 40.67 64.9401C39.68 65.5601 38.74 64.5101 39.04 63.6101C39.92 62.8701 41.31 63.3301 42.33 62.8701C42.62 62.8201 42.91 62.7701 43.2 62.7201C43.89 62.7001 44.64 62.8701 45.33 62.6301C45.7 62.5701 46.07 62.5201 46.44 62.4801C47.73 62.6201 49.02 62.5601 50.31 62.3701H50.32Z" fill="#F6F6F6"/>
<path d="M196.31 5.6499C196.92 5.6499 197.39 6.2099 197.32 6.8299C196.39 9.1099 197.09 11.9699 198.29 14.0699C199.77 14.1299 200.33 12.2899 201.71 12.0299C201.99 12.2599 202.31 12.4699 202.56 12.7599C202.55 13.4499 202.55 14.1599 202.56 14.8699C201.64 19.6999 201.07 24.5999 200.44 29.4799C200.04 30.2399 199.03 29.6899 198.72 29.0999C198.72 28.6499 198.72 27.7299 198.72 27.2799C199.54 23.3499 199.91 19.3199 200.55 15.3499C199.56 15.7099 198.31 16.1899 197.36 15.4799C195.72 14.3399 195.61 12.1599 195.19 10.3799C195.22 9.3999 195.31 8.4699 195.22 7.4999C195.22 7.3499 195.24 7.0599 195.25 6.9099C195.51 6.4199 195.68 5.7499 196.32 5.6499H196.31Z" fill="#F8F8F8"/>
<path d="M26.55 9.12011C27.42 8.16011 28.84 7.98011 30.06 8.01011C31.33 8.29011 32.57 9.04011 33.01 10.3301C33.29 12.6301 31.31 14.2201 29.74 15.5401C31.05 16.0401 32.54 16.4801 33.24 17.8201C34.08 19.2101 33.94 21.1401 32.71 22.2701C31.31 23.3001 29.51 23.5201 27.82 23.6501C26.28 23.5501 24.74 23.5501 23.21 23.6201H23.02C22.57 23.1001 22.15 22.1401 22.96 21.7601C24.9 21.7301 26.9 22.0201 28.83 21.6601C30.04 21.4901 31.64 21.2201 32 19.8201C31.45 17.2501 28.39 17.5301 26.52 16.7601L26.54 15.6101C28.05 14.0001 30.46 13.3101 31.26 11.0601C31.12 10.5601 30.81 10.1301 30.31 9.96011C29.75 9.56011 28.88 9.43011 28.5 10.0401C28.07 11.5001 25.78 10.6301 26.55 9.12011Z" fill="#F8F8F8"/>
<path d="M106.42 15.14C105.79 14.38 107.14 13.26 107.71 14.11C109.56 16.22 110.41 19.51 113.28 20.55C114.92 20.4 115.49 18.48 115.52 17.07C115.46 16.22 115.74 14.29 117.21 15.07C118.05 15.86 117.44 17.03 117.44 18C117.26 19 117.27 20.04 117.28 21.07C116.98 21.75 117.04 22.33 117.47 22.83L117.5 23.05C117.5 24.71 117.49 26.39 117.53 28.07C117.53 28.51 117.54 29.38 117.55 29.81C117.15 30.6 117.24 31.17 117.8 31.52C117.78 32.54 117.8 33.57 117.86 34.61C117.45 35.12 116.39 35.43 116.07 34.73C115.81 33.46 115.77 32.15 115.68 30.87C115.74 28.57 115.94 26.26 115.6 23.99C115.56 23.67 115.54 23.35 115.52 23.04C115.52 22.62 115.52 22.2 115.5 21.79C114.33 22.33 112.84 22.67 111.69 21.89C109.3 20.24 107.9 17.57 106.43 15.14H106.42Z" fill="#F8F8F8"/>
<path d="M0.249994 62.54C1.16999 61.22 2.99999 61.05 4.44999 60.71C5.40999 60.84 6.34999 60.75 7.31999 60.72C9.12999 60.72 10.58 62.03 11.24 63.65C11.32 64.01 11.45 64.38 11.57 64.74C11.56 65.43 11.55 66.14 11.55 66.85C11.18 68.57 10.09 69.94 9.00999 71.28C10.62 72.03 12.45 72.26 14.2 72.61C15.11 72.69 16.17 73.01 17.07 72.6C17.74 72.06 19.05 72.58 18.75 73.53C18.57 74.23 17.66 74.35 17.07 74.62C16.1 74.55 15.16 74.54 14.19 74.61C11.94 74.2 9.72999 73.61 7.53999 72.99C6.71999 72.68 5.85999 72.98 5.02999 73.06C4.57999 73.07 3.67999 73.1 3.22999 73.12C2.59999 72.75 1.94999 72.3 1.75999 71.55C1.92999 71.03 2.25999 70.56 2.69999 70.24C3.38999 70.24 4.08999 70.24 4.79999 70.27C5.62999 70.38 6.60999 70.95 7.25999 70.05C8.40999 69.33 9.13999 68.11 9.55999 66.86C9.74999 66.13 9.85999 65.42 9.59999 64.73C9.41999 63.46 8.31999 62.58 7.06999 62.5C6.18999 62.27 5.31999 62.26 4.44999 62.49C3.54999 62.62 2.61999 62.87 1.88999 63.44C1.53999 63.75 1.33999 64.41 0.769994 64.31C-6.25849e-06 64.15 -0.240006 63.14 0.239994 62.55L0.249994 62.54Z" fill="#F8F8F8"/>
<path d="M65.01 75.0499C64.82 74.1999 66.09 74.0399 66.49 74.5999C66.49 75.4099 66.44 76.3199 66.66 77.1299C67.12 79.3999 67.4 81.7699 68.42 83.8799C68.79 84.5199 68.28 85.3099 67.53 85.0499C66.44 84.5899 66.19 83.2499 65.88 82.2199C65.64 80.6499 65.08 79.1399 65.01 77.5599C64.99 76.6899 65.01 75.8899 65.01 75.0499Z" fill="#F8F8F8"/>
<path d="M83.57 9.8501C84.54 9.4101 85.62 10.7401 84.82 11.6101C83.63 12.8001 83.66 14.6801 82.67 16.0001C81.82 16.5601 81.03 15.8201 81.28 15.0701C81.71 13.7101 82.33 12.4101 82.72 11.0401C82.78 10.5201 83.22 10.2001 83.56 9.8501H83.57Z" fill="#F5F5F5"/>
<path d="M180.3 15.4001C182.46 14.9901 184.69 14.9001 186.77 14.1201C187.31 14.2101 188.02 14.5901 187.71 15.2401C187.35 15.6401 186.95 16.0401 186.42 16.2101C183.06 16.9401 179.62 17.2801 176.26 18.0101C172.32 18.5801 168.4 19.3901 164.52 20.2801C163.99 20.2001 163.63 19.8001 163.5 19.3001C163.78 18.6801 164.42 18.2601 165.09 18.1501C170.11 16.9901 175.22 16.2701 180.3 15.3901V15.4001Z" fill="#F5F5F5"/>
<path d="M94.36 22.88C95.17 22.65 95.92 22.19 96.76 22.06C97.59 21.84 97.79 23.16 97.21 23.52C95.5 24.51 93.58 25.07 91.72 25.71C88.73 26.46 85.91 28.04 82.77 28.06C82.59 27.64 82.66 27.21 82.81 26.8C84.73 25.69 86.96 25.38 89.01 24.6C90.85 24.21 92.58 23.47 94.36 22.89V22.88Z" fill="#F5F5F5"/>
<path d="M39.84 25.6499C40.97 25.3099 41.62 27.2699 40.28 27.3499C33.5 28.1299 26.9 30.0199 20.31 31.7099C19.31 31.5699 19.23 30.2899 20.07 29.8599C26.52 27.9199 33.16 26.5499 39.84 25.6499Z" fill="#F5F5F5"/>
<path d="M88.69 30.64C87.74 30.02 88.61 28.84 89.47 28.72C89.92 28.74 90.82 28.78 91.27 28.79C92.07 29.05 93.19 29.15 93.43 30.13C94.17 31.47 93.32 32.98 92.64 34.16C92.19 35.07 90.87 35.28 90.52 36.23C92.04 36.6 93.48 37.22 94.99 37.64C95.87 38.03 97.12 37.42 97.72 38.37C97.82 39.09 97.12 39.66 96.44 39.73C94.51 39.92 92.76 38.96 90.99 38.35C89.4 37.84 87.85 37.21 86.22 36.86C85.88 36.54 85.28 36.18 85.58 35.63C85.74 34.87 86.64 34.92 87.25 34.8C89.4 34.86 91.76 33.36 91.96 31.12C91.23 29.9 89.67 31.11 88.68 30.64H88.69Z" fill="#F5F5F5"/>
<path d="M122.26 53.0401C122.38 52.4201 122.58 51.3101 123.7 52.1001C124.45 52.8601 124.95 53.8301 125.72 54.5801C126.58 55.6301 127.4 56.7601 128.49 57.6101C129.94 56.0201 131.15 54.2201 132.56 52.5901C133.32 52.3201 134.07 53.2901 133.67 53.9701C132.48 55.7301 131.05 57.3101 129.79 59.0101C131.57 60.9201 133.66 62.5101 135.75 64.0801C135.76 64.2701 135.8 64.6501 135.82 64.8401C135.24 65.2901 134.45 65.5101 133.85 64.9601C131.92 63.6801 130.2 62.0901 128.52 60.5101C126.65 62.0401 125.05 64.0801 122.77 65.0301C121.78 65.0201 121.7 63.6801 122.45 63.2301C124.09 61.9801 125.76 60.7001 127.03 59.0601C125.63 56.9101 123.64 55.2001 122.26 53.0401Z" fill="#F5F5F5"/>
<path d="M173.23 22.4101C172.47 21.9801 172.77 21.0701 173.46 20.7801C174.25 20.7801 175 20.7301 175.82 20.7501C176.9 21.1301 178.12 21.5501 178.72 22.6001C179.51 23.7701 179.65 25.2101 180.01 26.5501C180.6 27.1701 182.1 26.6301 183.05 26.7701C183.67 27.0601 184.11 28.0001 183.3 28.3601C182.55 28.3301 181.87 28.2801 181.18 28.4701C180.63 28.5001 180.04 28.5401 180.3 29.2501C180.24 30.8601 180.22 32.4901 180.3 34.1201C179.76 35.0801 178.64 34.4201 178.45 33.5501L178.41 33.3701C178.27 31.8701 178.92 30.1701 178.32 28.7701C177.53 28.3501 176.29 28.9201 175.33 28.9001C174.61 28.8801 173.91 28.8701 173.21 28.8701C172.69 28.6501 172.71 28.0901 172.78 27.6101C173.18 27.2801 173.69 27.1001 174.19 26.9701C175.44 26.8701 176.86 27.3901 178.07 26.8801C178.47 26.2501 177.71 25.0801 177.56 24.2901C177.25 23.1501 176.06 22.7301 175.04 22.4601C174.4 22.1201 173.8 22.1101 173.24 22.4201L173.23 22.4101Z" fill="#F9F9F9"/>
<path d="M81.32 64.35C81.48 64.33 81.8 64.28 81.96 64.26C84.91 64.35 87.86 64.32 90.82 64.24C92.61 64.6 94.46 64.63 96.24 65.07C97.04 65.17 97.03 66.36 96.45 66.79C95.14 66.75 93.86 66.3 92.55 66.29L92.32 66.26C91.21 66.03 90.1 66.08 88.98 66.07L88.79 66.04C87.85 65.97 86.58 65.36 85.76 66.07C84.48 66.13 83.18 65.87 81.94 66.23C81.57 66.28 81.19 66.33 80.83 66.39C80.09 66.34 79.38 66.23 78.7 66.48C78.55 66.52 78.24 66.6 78.09 66.63C77.35 66.58 76.65 66.49 75.96 66.73C71.31 67.41 66.5 67.57 62.11 69.39C61.54 69.58 60.6 69.8 60.53 69.04C60.38 67.89 61.74 67.45 62.6 67.12C65.38 66.11 68.36 65.84 71.25 65.27C72 65.64 72.6 65.59 73.05 65.12C74.86 64.96 76.67 64.78 78.47 64.51C79.42 64.56 80.38 64.51 81.33 64.36L81.32 64.35Z" fill="#F9F9F9"/>
<path d="M32.58 36.62C32.46 35.62 32.5 34.67 32.72 33.76C32.76 34.71 32.72 35.67 32.58 36.62Z" fill="#949494"/>
<path d="M78.7 66.4799C79.39 66.2299 80.09 66.3399 80.83 66.3899C80.14 66.6299 79.38 66.4599 78.7 66.4799Z" fill="#686767"/>
<path d="M42.2 70.1099C43 70.0499 43.77 70.0799 44.57 70.2499C43.79 70.2999 42.94 70.3199 42.2 70.1099Z" fill="#686767"/>
<path d="M133.1 16.43C133.71 16.29 134.33 16.27 134.96 16.34C135.48 17.03 135.08 18.25 134.01 18.06C131.52 18.66 129.04 19.32 126.53 19.81C125.69 19.65 125.48 18.47 126.34 18.14C128.53 17.42 130.86 17.05 133.1 16.44V16.43Z" fill="#F4F4F4"/>
<path d="M174.19 26.96C175.44 26.58 176.77 26.9 178.07 26.87C176.86 27.38 175.44 26.86 174.19 26.96Z" fill="#676666"/>
<path d="M75.95 66.7301C76.64 66.4901 77.34 66.5801 78.08 66.6301C77.39 66.8801 76.63 66.7001 75.95 66.7301Z" fill="#676666"/>
<path d="M26.47 39.1C26.02 38.4 26.37 37.47 26.47 36.74C26.49 37.53 26.45 38.28 26.47 39.1Z" fill="#6A6A6A"/>
<path d="M117.56 29.8101H117.72C117.74 30.2401 117.79 31.0901 117.81 31.5201C117.25 31.1701 117.16 30.6001 117.56 29.8101Z" fill="#D4D4D4"/>
<path d="M117.28 21.0701H117.48C117.48 21.5101 117.48 22.3901 117.48 22.8301C117.05 22.3301 116.98 21.7501 117.29 21.0701H117.28Z" fill="#D7D7D7"/>
<path d="M9.61001 64.73C9.87001 65.43 9.76001 66.14 9.57001 66.86C9.57001 66.14 9.59001 65.43 9.61001 64.73Z" fill="#6D6C6C"/>
<path d="M85.76 66.0601C86.58 65.3501 87.84 65.9601 88.79 66.0301C87.78 66.0301 86.77 66.0301 85.76 66.0601Z" fill="#E9E9E9"/>
<path d="M153.08 12.99C153.3 13.86 153.3 14.73 153.08 15.61C153.03 14.74 153.04 13.83 153.08 12.99Z" fill="#757575"/>
<path d="M117.28 21.07C117.28 20.04 117.26 19 117.44 18C117.46 19.02 117.47 20.04 117.48 21.07H117.28Z" fill="#ABABAB"/>
<path d="M153.51 21.5701C154.37 21.5701 155.19 21.5701 156.07 21.6301C155.2 21.8301 154.35 21.8101 153.51 21.5701Z" fill="#CCCCCC"/>
<path d="M173.23 22.4099C173.78 22.0999 174.38 22.1099 175.03 22.4499C174.42 22.7699 173.82 22.7599 173.23 22.4099Z" fill="#D1D1D1"/>
<path d="M23.22 23.6201C24.75 23.5501 26.29 23.55 27.83 23.65C26.33 24.05 24.73 23.7701 23.22 23.6201Z" fill="#ADACAC"/>
<path d="M73.02 25.3199C73.61 24.9799 74.26 25.1399 74.75 25.5999C74.86 26.9699 73.09 27.3799 72.01 27.3099C69.92 27.2999 67.84 27.2799 65.76 27.3099C64.97 27.2899 64.22 27.3299 63.45 27.3699C62.58 27.3399 62.49 26.0699 63.21 25.7599C65.99 25.7399 68.81 26.0299 71.58 25.6699C72.06 25.5799 72.55 25.5099 73.02 25.3399V25.3199Z" fill="#FBFBFB"/>
<path d="M63.45 27.37C64.22 27.34 64.97 27.29 65.76 27.31V27.56C65 27.56 64.18 27.53 63.45 27.36V27.37Z" fill="#757474"/>
<path d="M66.49 74.6L66.74 74.54C66.74 75.37 66.84 76.29 66.66 77.13C66.45 76.31 66.5 75.41 66.49 74.6Z" fill="#757474"/>
<path d="M65.76 27.3099C67.84 27.2899 69.92 27.3099 72.01 27.3099V27.5399C69.94 27.5599 67.85 27.5399 65.76 27.5599V27.3099Z" fill="#BFBFBF"/>
<path d="M181.2 28.4599C181.89 28.2699 182.57 28.3199 183.32 28.3499C182.72 28.8099 181.87 28.4099 181.2 28.4599Z" fill="#BFBFBF"/>
<path d="M117.54 28.0701H117.73C117.73 28.5101 117.73 29.3801 117.72 29.8101H117.56C117.56 29.3701 117.55 28.5001 117.54 28.0701Z" fill="#A2A1A2"/>
<path d="M4.45 60.7199C5.39 60.4899 6.37 60.5499 7.32 60.7299C6.35 60.7599 5.4 60.8499 4.45 60.7199Z" fill="#9E9D9D"/>
<path d="M4.45 62.4799C5.32 62.2599 6.19 62.2599 7.07 62.4899C6.2 62.5499 5.31 62.4699 4.45 62.4799Z" fill="#868686"/>
<path d="M108.07 62.36C109.07 62.21 109.58 63.55 108.95 64.28C107.38 65.12 107 62.9 108.07 62.36Z" fill="#EAE9EA"/>
<path d="M71.24 65.27C71.65 65.2 72.48 65.06 72.89 64.99L73.03 65.12C72.59 65.59 71.99 65.64 71.23 65.27H71.24Z" fill="#676667"/>
<path d="M41.25 68.55C41.67 67.81 42.56 68.3 43.21 68.36C46.06 68.71 48.96 68.58 51.83 68.48L52.05 68.52C52.28 69 52.34 69.56 52.02 70.03C51.7 70.13 51.39 70.26 51.08 70.37C49.54 70.3 48 70.3 46.46 70.36C45.82 70.31 45.2 70.27 44.57 70.25C43.77 70.09 43 70.05 42.2 70.11C41.61 69.9 40.65 69.2 41.25 68.55Z" fill="#FAF9F9"/>
<path d="M14.2 74.62C15.16 74.55 16.1 74.56 17.08 74.63C16.17 75 15.12 74.73 14.2 74.62Z" fill="#7D7C7C"/>
<path d="M64.76 77.5601C64.82 76.9301 64.95 75.6801 65.01 75.0601C65.01 75.9001 64.99 76.7001 65.01 77.5701H64.77L64.76 77.5601Z" fill="#747373"/>
</g>
<g clip-path="url(#clip1_10_34)">
<path d="M193.38 83.4C194.26 83.28 195.15 83.22 196.02 83C198.22 83.16 200.43 83.05 202.64 83C204.12 83.12 205.57 83.4 207.03 83.64C207.76 83.8 208.51 84.01 209.26 84.14C213.64 85.36 217.89 87.15 221.65 89.74C223.88 90.85 225.46 92.87 227.47 94.3C227.81 94.66 228.16 95.01 228.54 95.34C228.81 95.95 229.33 96.38 229.82 96.83L230.06 97.06C230.63 97.83 231.19 98.61 231.82 99.35C231.97 99.52 232.13 99.7 232.29 99.87C232.37 100.35 232.73 100.71 233.04 101.06C237.28 107.28 239.7 114.57 240.66 122C240.63 122.85 240.43 123.8 240.76 124.63C240.91 126.33 240.8 128.04 240.76 129.76C240.62 130.72 240.59 131.71 240.54 132.7C240.37 134.07 239.97 135.41 239.77 136.78C239.65 137.25 239.57 137.72 239.51 138.21C238.86 140.43 238.29 142.7 237.31 144.81C236.41 146.14 238.91 146.66 238.57 148.04C238.16 149.7 236.02 149.34 234.88 150.12C231.78 155.54 227.69 160.41 222.79 164.29C219.38 166.81 215.63 168.81 211.75 170.5C208.54 171.56 205.25 172.36 201.9 172.88C201.1 172.82 200.27 172.68 199.52 173C198.06 173.07 196.6 173.05 195.14 173.01C194.43 172.87 193.74 172.83 193.03 172.85C184.25 171.79 175.79 167.9 169.49 161.66C165.26 157.69 162.1 152.72 159.66 147.49C158.77 144.98 157.82 142.49 157.25 139.88C156.6 137.41 156.52 134.85 156 132.37C156.1 130.16 156.16 127.95 156.03 125.75C156.07 125.45 156.12 125.16 156.18 124.87C156.41 123.93 156.42 122.96 156.49 122.01C157.04 117.63 158.51 113.45 160.14 109.37C161.69 106.34 163.29 103.31 165.37 100.6C169.27 95.16 174.58 90.85 180.4 87.61C184.48 85.55 188.85 84.1 193.36 83.38L193.38 83.4ZM196.59 84.82V85.06C195.33 85.04 194.1 85.38 192.83 85.35L192.87 85.59C187.89 86.32 183.12 88.17 178.86 90.84C169.36 96.56 162.55 106.21 159.58 116.82C158.98 119.96 157.94 123.09 158.09 126.32H157.85C157.81 128.15 157.85 129.98 157.85 131.82H158.09C158.63 147.18 168.28 162.12 182.59 168.09C186.03 169.44 189.61 170.72 193.34 170.81C193.58 171.46 195.03 170.8 195.65 171.02L195.58 171.29C196.75 171.38 197.92 171.29 199.1 171.3L199.04 171.03C199.75 170.9 201.38 171.53 201.58 170.81C210.48 169.94 219.14 165.71 225.35 159.33C227.93 157.06 229.95 154.2 231.88 151.37C232.53 150.64 230.74 150.65 231.08 149.83C231.21 148.52 233.09 149.01 233.54 148.13C232.03 147.36 230.34 147.04 228.66 146.96C226.81 146.75 225.17 145.73 223.3 145.59C217.95 144.04 212.61 142.24 207.31 140.42C206.76 140.65 206.24 140.47 205.75 140.18C202.93 139.26 199.98 138.72 197.05 138.32C197.79 139.1 199.09 139.21 200.07 139.59C201.13 139.31 201.79 140.71 201.02 141.29C198.23 141.77 195.99 139.66 193.63 138.67C192.42 139.52 191.28 140.47 190.06 141.31C189.34 141.77 188.61 142.5 187.63 142.05C187.19 141.75 187.15 140.9 187.63 140.63C189.12 139.82 190.4 138.72 191.79 137.77V137.37C190.64 136.52 189.61 135.53 188.61 134.52C187.83 133.33 188.77 133.36 189.32 133.09C190.94 133.7 191.68 135.7 193.39 136.17C193.49 136.21 193.7 136.28 193.8 136.32C193.86 135.48 193.79 134.59 193.75 133.77C194.92 124.21 196.64 114.7 197.33 105.09L197.54 105.07C197.58 102.8 198.29 100.58 198.29 98.31C198.34 98.24 198.45 98.1 198.51 98.03C198.88 94.34 200.04 90.76 200.33 87.09C200.4 86.71 200.53 85.95 200.6 85.57C200.97 85.81 200.95 84.62 200.56 84.84C199.23 84.82 197.9 84.82 196.56 84.84L196.59 84.82ZM202.39 85.37C202.19 87.09 202.04 88.81 201.68 90.51C202.78 91.76 203.65 93.19 204.59 94.57C208.28 100.26 212.62 105.66 215.12 112.03L215.27 112.01C216.3 114.68 217.51 117.28 218.45 119.99C219.89 123.84 221.61 127.59 222.95 131.49C224.81 136.02 226.75 140.51 228.64 145.02C229.68 145.23 230.73 145.37 231.8 145.4C232.74 145.64 233.61 146.22 234.59 146.34C234.37 144.87 231.38 144.83 232.1 142.87C232.32 142.73 232.54 142.61 232.77 142.51C231.18 138.34 229.57 134.16 227.94 130C226.57 126.12 224.77 122.39 223.4 118.51C222.39 116.2 221.64 113.65 220.34 111.56C220.38 110.82 219.82 110.23 219.57 109.58C216.07 102.06 211.26 95.24 206.22 88.67C205.25 87.53 204.33 86.36 203.54 85.09C203.14 85.09 202.59 84.93 202.37 85.39L202.39 85.37ZM206.05 85.57C208.9 89.16 211.85 92.71 214.29 96.6C219.94 104.42 223.57 113.42 227.01 122.38C229.97 129.45 232.5 136.68 235.39 143.77C235.88 143.99 235.83 143.45 235.93 143.14C236.46 141.27 237.33 139.52 237.62 137.58C237.88 136.37 238.59 134.72 237.13 134C235.35 131.18 234.47 127.95 233.21 124.89C231.71 120.92 230.24 116.94 228.62 113.02C226.3 107.64 224.15 102.14 220.93 97.21C219.25 94.26 217.02 91.64 215.51 88.6C212.61 87.01 209.33 85.96 206.04 85.56L206.05 85.57ZM218.56 90.06C218.61 90.71 219.09 91.18 219.49 91.65C221.41 94.58 223.36 97.51 225.07 100.57C229.46 109.01 232.62 117.99 236.04 126.84C236.71 128.5 237.21 130.23 238.07 131.82C238.38 132.85 238.7 132.09 238.57 131.57H238.82C238.81 130.87 238.79 129.47 238.77 128.76L239.03 128.83C239.03 127.89 239.04 126 239.05 125.06L238.78 125.12C238.78 124.42 238.81 123.02 238.82 122.32H238.57C237.49 109.24 229.95 96.69 218.55 90.07L218.56 90.06ZM201.12 92.79C200.9 95.06 200.36 97.28 200.11 99.55C202.34 103.13 204.86 106.55 206.91 110.25C210.01 116.26 213.32 122.16 216.02 128.38C218.19 133.45 221.09 138.24 223.03 143.37C223.96 143.71 225.05 143.98 226.07 144.08C225.21 141.74 224.18 139.46 223.23 137.15C221.56 133.69 220.47 130 218.94 126.48C217.42 122.93 216.2 119.28 214.7 115.73C211.84 108.47 207.46 101.97 203.09 95.56C202.35 94.71 202.04 93.46 201.12 92.79ZM199.62 102.56C199.53 103.57 199.28 104.59 199.38 105.62C198.89 107.24 198.91 108.97 198.67 110.64C198.51 111.1 199.04 111.31 199.25 111.65C199.69 112.45 200.14 113.26 200.6 114.06C206.42 121.93 209.42 131.41 214.91 139.49C215.47 140.11 216.18 140.63 216.42 141.48C217.79 141.98 219.24 142.25 220.6 142.79C220.59 142.68 220.56 142.45 220.54 142.34C218.17 137.02 215.37 131.91 213.05 126.57C211.4 123.1 209.71 119.66 207.82 116.32C205.83 112.26 203.75 108.22 201.07 104.56C200.58 103.98 200.56 102.51 199.61 102.56H199.62ZM198.39 114.04C197.84 116.86 197.69 119.75 197.14 122.58C196.54 123.96 198.3 124.15 198.58 125.33C201.35 129.65 203.85 134.13 206.86 138.29C209 138.78 211.03 139.64 213.1 140.34C211.92 138.21 210.53 136.2 209.34 134.08C205.99 127.25 202.98 120.14 198.4 114.05L198.39 114.04ZM196.62 125.79C196.36 128.72 195.66 131.63 195.84 134.6C196.56 133.89 197.77 133.46 197.92 132.38C198.34 131.35 200.15 131.69 200.08 132.8C199.52 134.37 197.77 134.99 196.81 136.26C199.24 136.65 201.63 137.26 204.07 137.59C201.98 134.39 199.96 131.16 198.07 127.84C197.55 127.18 197.35 126.25 196.63 125.79H196.62Z" fill="#F7F7F7"/>
<path d="M208.63 143.84C209.1 143.76 209.66 143.75 209.89 144.26C209.85 145.28 209.84 146.3 209.85 147.34C210.12 147.31 210.38 147.25 210.64 147.18C211.1 147.04 211.55 146.87 212.02 146.74C212.79 146.74 213.57 146.81 214.35 146.82C215.01 146.95 215.76 146.96 216.33 147.37C216.96 148.33 216.11 148.57 215.58 148.86C215.18 148.83 214.79 148.81 214.4 148.78C213.61 148.6 212.8 148.47 212.03 148.73C211.22 148.93 210.3 149.05 209.66 149.63C209.58 150.51 209.64 152.28 208.37 152.32C206.64 151.92 206.88 149.68 207.88 148.62C208.24 147.89 208.05 147.05 208.05 146.27C208.13 145.42 208.05 144.5 208.65 143.85L208.63 143.84Z" fill="#F8F8F8"/>
<path d="M193.03 172.87C193.74 172.85 194.43 172.89 195.14 173.03C194.43 173.07 193.72 172.94 193.03 172.87Z" fill="#666565"/>
<path d="M199.52 173.01C200.28 172.68 201.1 172.83 201.9 172.89C201.14 173.18 200.31 172.99 199.52 173.01Z" fill="#656565"/>
<path d="M195.65 171.02C196.69 171.06 197.73 171.02 198.78 171.01L199.04 171.03L199.1 171.3C197.92 171.3 196.75 171.38 195.58 171.29L195.65 171.02Z" fill="#D4D4D4"/>
<path d="M238.8 125.12L239.07 125.06C239.07 126 239.06 127.89 239.05 128.83L238.79 128.76C238.86 127.64 238.81 126.5 238.76 125.39L238.79 125.12H238.8Z" fill="#D6D6D6"/>
<path d="M212.02 148.72C212.8 148.46 213.6 148.59 214.39 148.77C213.6 148.79 212.8 148.71 212.02 148.72Z" fill="#6F6F6F"/>
</g>
<g clip-path="url(#clip2_10_34)">
<path d="M297.07 19.7299C297.64 19.2699 298.08 19.9799 298.06 20.4099C297.55 20.9899 296.74 21.2099 296.22 21.7799C295.04 22.8799 294.36 24.3699 293.68 25.7999C293.68 25.8699 293.67 26.0099 293.66 26.0799C294.31 25.7599 294.74 26.3199 294.56 26.8299C294.2 27.2699 293.61 27.3599 293.09 27.5099C292.81 28.6399 292.5 29.7699 292.42 30.9399C292.17 31.4099 291.51 31.3899 291.26 30.9399C291.16 29.7499 291.68 28.6399 291.85 27.4899C290.92 27.5399 290.03 27.2199 289.12 27.1799C288.17 28.2599 287.53 29.6699 286.17 30.3499C285.83 30.8099 285.09 30.2799 285.33 29.8099C285.5 29.1499 286.45 29.2099 286.67 28.5499C287.06 27.9899 287.59 27.4999 287.88 26.8699C287.74 26.5299 287.18 26.5299 287.06 26.1499C286.82 25.8499 287.06 25.5399 287.31 25.3599C287.92 25.1599 288.22 26.1299 288.9 25.7599C290.46 23.8599 292.3 22.0599 294.59 21.0599C295.45 20.6799 296.22 20.1299 297.08 19.7399L297.07 19.7299ZM290 26.2299C290.26 26.2299 290.51 26.2299 290.77 26.2399C291.15 26.2699 291.92 26.3399 292.3 26.3799L292.25 26.2299C292.69 25.0699 293.27 23.9699 293.81 22.8599C292.3 23.6499 290.99 24.8499 289.99 26.2299H290Z" fill="#F7F7F7"/>
<path d="M312.72 43.77C314.62 43.77 316.52 43.81 318.42 43.74C318.84 43.8 318.92 44.37 318.64 44.65C317.58 45.09 316.4 44.67 315.31 44.97C314.59 45.17 313.81 45.32 313.18 45.75C313.01 45.84 312.83 45.96 312.89 46.19C314.23 46.69 316.31 46.5 316.99 48.07C317.23 49.46 315.43 50.39 314.26 49.88C313.62 49.68 312.53 49.23 312.75 48.39C313.22 47.85 313.9 48.52 314.38 48.71C314.7 48.87 315.24 49.04 315.5 48.69C315.72 48.53 315.92 48.24 315.59 48.07C314.35 47.62 312.93 47.63 311.84 46.79C311.31 46 311.83 45.01 312.67 44.78C312.64 44.44 312.48 44.07 312.7 43.76L312.72 43.77Z" fill="#F7F7F7"/>
<path d="M286.99 18.8001C287.98 18.0001 289.08 17.0601 290.46 17.2501C291.07 17.3401 291.09 18.3701 290.47 18.4301C290.05 18.2301 289.59 18.3601 289.2 18.5701C286.71 20.0001 285.16 22.6201 284.3 25.2901C283.68 26.9201 283.35 28.6401 283.07 30.3601C282.96 30.6401 282.87 31.1101 283.06 31.4301C283.16 31.9901 283.6 32.3601 283.87 32.8301C283.83 33.7301 282.61 33.4501 282.39 32.8001C282.2 32.3501 281.91 31.9101 281.92 31.4101C281.92 31.1501 281.92 30.6401 281.92 30.3901C282.44 26.1701 283.83 21.8001 286.99 18.8101V18.8001Z" fill="#F6F6F6"/>
<path d="M274.59 23.03C274.73 22.54 275.52 22.63 275.56 23.14C275.56 23.55 275.46 24.03 275.61 24.45C275.69 24.91 275.93 25.37 276.43 25.47C277.22 25.24 277.5 24.39 277.99 23.82C278.38 23.67 278.91 23.95 278.86 24.4C278.46 27.5 278.04 30.61 277.66 33.71C277.54 34.44 277.85 35.31 277.33 35.93C277.2 35.94 277.06 35.96 276.93 35.98C276.85 35.95 276.69 35.9 276.61 35.88C276.35 35.54 276.34 34.99 276.43 34.63C276.74 31.82 277.18 29.03 277.49 26.23C277 26.36 276.57 26.72 276.02 26.48C274.62 26.14 274.19 24.24 274.58 23.03H274.59Z" fill="#F6F6F6"/>
<path d="M298.58 37.38C299.59 37.3 300.55 37.77 301.57 37.72C302.36 37.85 303.17 37.88 303.96 37.69C304.52 37.67 305.4 37.47 305.3 38.3C304.49 39.21 302.96 38.77 301.91 38.91C300.76 38.51 299.31 38.86 298.37 37.99C298.4 37.77 298.4 37.54 298.58 37.4V37.38Z" fill="#F6F6F6"/>
<path d="M297.8 16.21C298.35 15.67 299.22 16.29 299.66 16.73C300.69 18.19 300.72 20.06 301.04 21.77C301.01 22.18 301 22.6 300.99 23.03C300.99 24.09 300.98 25.16 300.99 26.23C300.99 26.64 301.01 27.06 301.03 27.49C300.67 29.65 300.41 31.84 299.67 33.91C299.54 34.26 299.23 34.52 298.84 34.5C298.46 34.33 298.43 33.79 298.62 33.46C299.15 31.5 299.68 29.52 299.81 27.48C299.88 26.9 299.91 26.32 299.91 25.75L299.93 25.63C300.11 24.81 300.15 23.94 299.97 23.13C299.95 23.04 299.9 22.85 299.87 22.75C299.87 22.24 299.98 21.77 299.81 21.3C299.66 20.19 299.54 19.05 299.14 18C299.03 17.64 298.81 17.29 298.44 17.18C298.06 16.98 297.32 16.93 297.8 16.2V16.21Z" fill="#F8F8F8"/>
<path d="M269.11 23.1899C269.44 22.6699 269.45 21.8099 270.18 21.6699C270.56 21.7299 270.72 22.0499 270.8 22.3999L270.77 22.5399C270.53 23.6999 270.65 24.8999 270.63 26.0899C270.67 27.6799 270.51 29.2799 270.76 30.8499C270.82 31.1899 270.76 31.5199 270.44 31.6999C269.91 31.8799 269.69 31.2299 269.52 30.8499C269.58 28.8399 269.61 26.8299 269.54 24.8199C269.38 25.0299 269.27 25.2799 269.26 25.5499C268.39 26.3499 267.84 27.4199 267.11 28.3399C266.51 28.9499 265.77 29.6499 264.88 29.6799C264.16 29.5999 263.77 29.0299 263.58 28.3799C263.58 28.0999 263.58 27.5499 263.57 27.2699C263.97 25.9499 264.96 24.9299 266.24 24.4099C266.34 24.3899 266.53 24.3599 266.62 24.3399C267.05 24.3399 267.48 24.3599 267.92 24.3699C268.67 24.5899 268.78 23.6299 269.11 23.1699V23.1899ZM266.57 25.5299C265.44 25.9799 264.33 27.2399 264.87 28.5199C265.52 28.4699 265.87 27.7999 266.32 27.4199C266.79 26.7699 267.32 26.1599 267.75 25.4799C267.35 25.4699 266.96 25.4799 266.57 25.5299Z" fill="#F8F8F8"/>
<path d="M277.69 38.1699C277.88 38.0799 278.05 38.2799 278.21 38.3399C278.76 39.4599 279.17 40.6599 279.87 41.7099C279.99 41.7999 280.02 42.1499 280.22 42.0699C281.05 41.2199 281.89 40.3899 282.72 39.5499C282.93 39.2999 283.4 39.2599 283.59 39.5499C283.92 40.1899 283.24 40.4699 283 40.8899C282.52 41.5199 281.81 41.9399 281.27 42.5199C281.07 42.7199 280.71 42.9499 280.89 43.2799C281.36 43.9199 281.92 44.4899 282.5 45.0399C282.69 45.4599 282.37 45.8299 281.95 45.8799C281.07 45.4099 280.5 44.5699 279.91 43.7999C279.02 44.1399 278.33 45.3099 277.29 44.8999C276.62 43.5799 278.88 43.7399 279.17 42.7199C278.54 41.5499 277.84 40.4099 277.4 39.1599C277.03 38.5799 277.43 38.4599 277.69 38.1699Z" fill="#F5F5F5"/>
<path d="M317.95 40.3C318.01 40.3 318.14 40.27 318.2 40.27C318.31 40.27 318.53 40.25 318.65 40.24C319.23 40.28 319.8 40.25 320.38 40.27C320.51 40.49 320.54 40.75 320.51 41.01C319.68 41.49 318.64 41.28 317.74 41.45C317.46 41.47 317.18 41.5 316.9 41.54C316.41 41.5 315.91 41.43 315.44 41.6C315.16 41.63 314.88 41.66 314.61 41.69C313.93 41.65 313.26 41.63 312.59 41.64C311.86 41.63 311.14 41.64 310.42 41.67C310.18 41.55 310.09 41.31 310.17 41.07C310.48 40.66 311.03 40.68 311.49 40.55C311.76 40.55 312.29 40.53 312.56 40.53C313.54 40.49 314.57 40.74 315.54 40.47C315.82 40.43 316.1 40.41 316.37 40.38C316.9 40.45 317.44 40.4 317.97 40.3H317.95Z" fill="#F9F9F9"/>
<path d="M317.57 34.5099C317.31 32.8399 317.44 31.0999 317.59 29.4299L317.63 29.6099C317.6 31.1199 317.59 32.6299 317.66 34.1399C317.64 34.2299 317.59 34.4199 317.57 34.5099Z" fill="#DFDFDF"/>
<path d="M270.63 26.08C270.65 24.89 270.52 23.69 270.77 22.53C270.77 23.71 270.79 24.89 270.78 26.08H270.63Z" fill="#676767"/>
<path d="M312.84 30.4C312.62 29.96 312.75 29.38 312.86 28.95C312.86 29.44 312.84 29.89 312.84 30.4Z" fill="#676767"/>
<path d="M272.95 36.1901C273.18 36.1601 273.41 36.1301 273.64 36.1001C274.72 36.1901 275.8 36.1301 276.88 36.1301C277.8 36.1401 278.71 36.1401 279.63 36.1501C280.66 36.1501 281.69 36.1301 282.71 36.1101C282.89 36.1301 283.07 36.1501 283.25 36.1801C283.87 36.3101 284.51 36.2801 285.15 36.2701C286.94 36.5401 288.76 36.7101 290.57 36.7901C291.04 36.8501 291.53 36.9201 292.01 36.8801C292.24 36.9001 292.47 36.9201 292.7 36.9501C293.53 37.1001 294.37 37.0401 295.21 37.0201C295.74 37.0401 295.79 37.8101 295.36 38.0101C294.58 37.9801 293.81 37.9701 293.04 37.9801C292.46 37.9601 291.9 37.9801 291.33 38.0101C289.18 37.7201 287.01 37.5701 284.84 37.4801C284.26 37.3901 283.68 37.3701 283.09 37.4001C282.84 37.3801 282.34 37.3501 282.09 37.3301C279.6 37.0801 277.09 37.2701 274.59 37.2101C274.39 37.2101 274.19 37.2101 273.99 37.2301C273.98 37.4801 273.99 37.7401 273.99 38.0001L273.97 38.1201C273.85 38.6801 273.81 39.2601 273.87 39.8501C273.84 40.3101 273.84 40.8301 273.8 41.3101C273.61 42.3901 273.69 43.4901 273.72 44.5801C273.7 44.8301 273.66 45.3301 273.65 45.5801C273.55 46.0901 273.52 46.6401 273.56 47.1701C273.42 47.3301 273.29 47.5301 273.08 47.6001C272.78 47.5001 272.57 47.2901 272.44 47.0101C272.44 46.5701 272.44 46.1501 272.44 45.7201C272.46 45.4901 272.49 45.2501 272.51 45.0301C272.64 44.2401 272.63 43.4701 272.62 42.6801C272.68 42.5101 272.64 42.1101 272.37 42.2701C272.29 42.4001 272.24 42.5501 272.21 42.7101C271.17 44.1401 270.26 45.7601 268.77 46.7901C268.2 46.9201 267.35 47.2901 266.93 46.7201C266.06 46.0101 266.29 44.7201 266.75 43.8401C267.56 42.4501 268.92 41.4501 270.46 41.0101C270.87 40.9401 271.42 41.1901 271.74 40.9101C272.25 40.1201 272.58 39.2301 272.82 38.3301C272.85 38.0901 272.91 37.6201 272.94 37.3801C272.27 37.3901 271.57 37.2701 270.91 37.4701C270.68 37.5001 270.46 37.5301 270.23 37.5701C269.69 37.5301 269.14 37.4501 268.62 37.6201C268.44 37.6501 268.27 37.6901 268.09 37.7201C267.6 37.6801 267.1 37.6101 266.63 37.7701C266.45 37.8001 266.28 37.8401 266.1 37.8701C265.66 37.8301 265.22 37.7801 264.8 37.9201C264 38.0201 263.19 38.1001 262.4 38.2601C262.01 38.2601 261.62 38.2601 261.22 38.2501C260.85 38.0101 261 37.4101 261.38 37.2601C262.38 36.8901 263.47 36.9501 264.5 36.7301C264.98 36.7001 265.48 36.8201 265.95 36.6501C266.04 36.6301 266.23 36.5801 266.33 36.5501C266.86 36.5301 267.42 36.7101 267.93 36.4901C267.99 36.4701 268.11 36.4301 268.16 36.4101C268.79 36.4001 269.44 36.4901 270.07 36.3501C270.24 36.3101 270.42 36.2801 270.59 36.2501C271.38 36.3401 272.17 36.3001 272.96 36.1901H272.95ZM270.52 42.1501C269.47 42.4901 268.51 43.1601 267.89 44.0801C267.67 44.6101 267.07 45.4501 267.77 45.8801C269.39 45.2101 270.17 43.4501 271.1 42.0901C270.9 42.0701 270.71 42.0901 270.52 42.1401V42.1501Z" fill="#FAFAFA"/>
<path d="M299.11 36.19C301.07 36.13 303.03 36.14 304.99 36.19C304.11 36.57 302.98 36.16 302.04 36.31C301.09 36.29 300.13 36.31 299.18 36.31L299.12 36.19H299.11Z" fill="#D7D7D7"/>
<path d="M316.44 28.2599C316.4 27.7299 316.36 27.1599 316.52 26.6599C316.57 27.1999 316.54 27.7199 316.44 28.2599Z" fill="#6D6C6C"/>
<path d="M270.63 26.0801H270.78C270.78 27.6701 270.78 29.2501 270.76 30.8401C270.52 29.2601 270.67 27.6601 270.63 26.0801Z" fill="#8C8C8C"/>
<path d="M300.99 23.04H301.14C301.14 24.1 301.14 25.16 301.14 26.24H300.99C300.98 25.17 300.99 24.1 300.99 23.04Z" fill="#C0C0C0"/>
<path d="M299.97 23.1399C300.15 23.9499 300.11 24.8199 299.93 25.6399C299.91 24.8099 299.93 23.9599 299.97 23.1399Z" fill="#C0C0C0"/>
<path d="M299.11 36.1899C298.67 35.9199 298.89 35.3999 299.28 35.2099C301.08 35.2699 302.89 35.2499 304.69 35.1899C305.14 35.2499 305.4 35.8899 304.99 36.1799C303.03 36.1399 301.07 36.1199 299.11 36.1799V36.1899Z" fill="#FBFBFB"/>
<path d="M312.81 26.18C313.07 25.83 312.77 24.5999 313.76 25.1899C314.18 25.4299 313.76 25.9699 313.88 26.3299C313.65 27.2399 313.19 28.0699 312.85 28.9499C312.74 29.3799 312.61 29.9599 312.83 30.3999C313.1 31.1299 313.81 31.73 314.65 31.39C315.81 30.81 316.27 29.47 316.42 28.26C316.51 27.72 316.55 27.1999 316.5 26.6599C316.54 26.0099 317.4 25.5299 317.79 26.2099C317.78 26.66 317.78 27.1699 317.79 27.6499C317.78 27.7499 317.75 27.9399 317.74 28.0399C317.66 28.4799 317.61 28.97 317.58 29.43C317.44 31.1 317.3 32.85 317.56 34.51C317.64 35.16 317.5 35.86 317.72 36.5C317.7 36.9 317.98 37.6 317.44 37.68C316.54 37.8 316.43 36.4799 316.48 35.8899C316.54 34.3899 316.57 32.9 316.52 31.4099C316.46 31.4399 316.34 31.51 316.28 31.55C315.77 32.3 314.82 32.6599 313.94 32.6499C313.2 32.5799 312.63 32.05 312.12 31.56C311.96 31.11 311.78 30.6799 311.63 30.2299C311.63 29.9499 311.63 29.4 311.63 29.1199C311.65 29.0499 311.7 28.9199 311.72 28.8599C312.05 27.9499 312.56 27.12 312.81 26.18Z" fill="#FAF9F9"/>
<path d="M276.94 35.9799C277.07 35.9599 277.21 35.9399 277.34 35.9299C278.1 36.0599 278.87 35.9599 279.63 35.9999V36.1499C278.71 36.1499 277.8 36.1499 276.88 36.1299L276.93 35.9799H276.94Z" fill="#808080"/>
<path d="M283.05 31.4301C282.86 31.1101 282.95 30.6401 283.06 30.3601C283.23 30.6701 283.24 31.1201 283.05 31.4301Z" fill="#CDCCCD"/>
<path d="M316.29 31.5399C316.35 31.5099 316.47 31.4399 316.53 31.3999C316.58 32.8899 316.55 34.3899 316.49 35.8799C316.38 35.4599 316.39 34.9999 316.38 34.5999C316.32 33.5799 316.56 32.5299 316.29 31.5399Z" fill="#C8C7C7"/>
<path d="M274 37.23C274.2 37.21 274.4 37.21 274.6 37.21L274.58 37.35L274.43 37.37C274.06 37.32 274.12 37.77 273.99 38C273.99 37.74 273.99 37.48 273.99 37.23H274Z" fill="#A7A7A7"/>
<path d="M293.06 37.98C293.83 37.98 294.61 37.98 295.38 38.01C294.67 38.33 293.81 38.03 293.06 38.13V37.97V37.98Z" fill="#B9B9B9"/>
<path d="M310.41 41.67C311.13 41.64 311.85 41.63 312.58 41.64V41.8C311.86 41.78 311.08 41.88 310.41 41.68V41.67Z" fill="#9F9F9F"/>
<path d="M273.55 47.1701C273.51 46.6401 273.55 46.0901 273.64 45.5801C273.64 46.1001 273.79 46.6901 273.55 47.1701Z" fill="#807F7F"/>
</g>
<g clip-path="url(#clip3_10_34)">
<path d="M379.52 38.2401C378.79 37.0501 380.62 35.7501 381.19 37.0501C382.55 48.8701 384.4 60.6301 386.67 72.3101C387.49 76.9801 388.03 81.6901 388.66 86.3801C389.71 95.2901 391.06 104.15 392.55 112.99C399.57 110.4 406.66 107.96 413.7 105.4C413.91 104.45 414 103.48 414.09 102.52C414.63 98.5301 415.5 94.5701 416.81 90.7601C417.05 90.1901 417.29 89.6201 417.57 89.0601C417.92 88.3901 418.25 87.7101 418.58 87.0301C419.01 86.4701 419.39 85.8701 419.79 85.2901C421.29 83.2001 423.44 81.6601 425.84 80.7701C426.54 80.6001 427.25 80.4101 427.93 80.1601C429.19 80.1901 430.48 80.2301 431.75 80.2001C435.74 80.9701 438.34 84.5101 439.95 88.0001C441.11 90.8001 442.29 93.5901 443.32 96.4401C443.91 96.4401 444.46 96.2101 445.03 96.0801C445.69 95.9501 446.33 95.7501 446.95 95.4701C447.57 95.3901 448.17 95.2401 448.76 95.0301C450.02 94.6901 451.29 94.3701 452.53 93.9801C457.23 92.6001 461.98 91.4401 466.72 90.2201C467.05 89.5201 467.07 88.6901 466.76 87.7101C466.72 86.3601 466.74 85.0101 466.53 83.6701C466.5 83.3701 466.47 83.0701 466.45 82.7801C466.42 81.9801 466.57 81.1801 466.31 80.4201C466.27 80.2701 466.19 79.9501 466.15 79.8001C466.15 78.9201 466.39 78.0101 466.04 77.1701C465.99 76.5801 466.04 76.0101 466.19 75.4501C466.67 75.5501 467.38 75.2801 467.67 75.8201C467.79 76.5201 467.95 77.2501 468.03 77.9701C467.67 78.7101 467.73 79.3101 468.2 79.7601C468.1 81.0001 468.33 82.2201 468.56 83.4301C468.51 84.3601 468.46 85.3101 468.47 86.2501C468.47 86.9301 468.44 87.6401 468.64 88.3101C468.66 88.6601 468.71 89.3401 468.73 89.6801C470.36 89.2401 472 88.8201 473.6 88.2601C474.66 88.0101 475.7 87.6401 476.71 87.2201C477.28 87.1801 477.86 87.2701 478.18 87.8001C478.5 88.7101 477.25 89.1201 476.67 89.4001C474.19 90.3001 471.6 90.8801 469.06 91.5801C468.82 91.7001 468.69 91.9001 468.67 92.1701C468.5 93.1101 468.46 94.0701 468.54 95.0401C467.88 100.7 466.66 106.4 463.97 111.47C462.93 113.48 461.28 115.2 459.05 115.81C458.34 115.79 457.63 115.79 456.93 115.79C455.82 115.55 454.78 115.12 453.74 114.69C448.43 111.32 445.21 105.59 442.75 99.9701C442.5 99.4501 442.23 98.7001 441.52 99.0301C436.85 100.44 432.11 101.62 427.47 103.16C425 103.79 422.57 104.59 420.16 105.42C418.82 105.77 417.54 106.3 416.22 106.69C415.19 106.87 415.33 108.18 415.22 108.96C414.79 113.19 413.99 117.41 412.45 121.37C411.86 122.58 411.2 123.76 410.48 124.9C408.86 126.97 406.93 128.9 404.43 129.87C401.59 130.99 398.45 130.77 395.57 129.94C397.01 137.1 397.66 144.41 398.96 151.59C399.08 152.56 399.2 153.54 399.39 154.51C399.53 155.36 399.71 156.18 399.93 157.02C400 157.43 400.06 157.86 400.16 158.28C401.22 163.79 402.01 169.37 403.37 174.82C404.39 175.81 402.48 176.93 401.93 176.05C401.26 175.05 401.22 173.79 400.85 172.68C399.99 168.19 399.29 163.66 398.35 159.18C398.07 157.41 397.66 155.67 397.27 153.92C396.14 145.61 395.16 137.25 393.42 129.03C389.19 126.56 385.85 122.89 382.93 119.01C382.13 118.83 381.4 119.36 380.66 119.6C370.56 123.37 360.63 127.62 350.79 132.02C351.5 138.47 351.87 145.03 353.66 151.3C354.39 153.12 354.87 155.33 356.98 156.02C357.54 157.65 355.02 157.58 354.36 156.62C351.44 152.8 350.92 147.84 350.21 143.24C349.75 139.81 349.4 136.37 348.98 132.94C346.35 133.9 343.78 135.06 341.19 136.13C338.88 136.97 336.61 137.94 334.29 138.74C333.32 139.05 332.39 139.62 331.32 139.44C330.9 139.18 331.02 138.65 331.02 138.24C334.5 136.48 338.34 135.53 341.83 133.8C344.11 132.98 346.27 131.88 348.5 130.94C349.14 130.37 348.64 128.97 348.61 128.15C348.55 127.86 348.49 127.57 348.44 127.29C348.46 126.24 348.61 125.18 348.35 124.15C348.29 123.69 348.25 123.23 348.21 122.77C348.26 121.06 348.33 119.36 348.21 117.66C348.25 117.28 348.28 116.9 348.32 116.52C348.48 115.65 348.54 114.78 348.47 113.91C349.2 107.86 350.82 101.44 355.44 97.1501C357.84 94.9101 361.28 94.2401 364.45 94.7301C368.5 96.2001 371.4 99.5001 373.8 102.94C376.9 107.49 380.03 112.01 383.33 116.43C385.81 115.58 388.3 114.65 390.73 113.65C390.02 109.33 389.27 105.01 388.56 100.69C387.37 92.5401 386.47 84.3501 385.31 76.1901C384.56 71.4301 383.63 66.7001 382.79 61.9501C382.21 58.3401 381.73 54.7101 381.08 51.1101C380.5 46.8201 379.99 42.5201 379.52 38.2201V38.2401ZM428.51 81.9901V82.2301C424.35 82.5301 421.18 85.8801 419.51 89.4801C417.32 94.2701 416.38 99.5501 415.76 104.75C424.13 102.09 432.53 99.5101 441.01 97.2301C441.12 97.1601 441.35 97.0301 441.47 96.9601C440.14 93.6101 438.94 90.1901 437.24 87.0001C436.02 84.8601 434.12 82.5101 431.51 82.2401C431.14 81.4701 429.28 82.2801 428.5 81.9901H428.51ZM466.04 92.4401C458.72 94.1601 451.54 96.4001 444.27 98.2801C444.46 99.3501 445.07 100.27 445.52 101.24C447.29 104.99 449.5 108.6 452.57 111.44C454.28 112.76 456.33 114.18 458.6 113.84C460.76 113.36 461.91 111.34 462.78 109.49C463.78 107.67 464.29 105.66 465 103.73C465.58 100.75 466.6 97.8001 466.53 94.7401C466.59 94.1201 466.7 92.8701 466.76 92.2501C466.32 92.1301 466.08 92.1901 466.04 92.4401ZM360.77 96.4901V96.7301C357.79 97.1201 355.52 99.5301 354.03 102C351.89 105.8 350.62 110.13 350.52 114.49H350.28C350.24 115.35 350.28 116.19 350.33 117.05C350.32 117.22 350.28 117.56 350.27 117.74H350.02C350 119.41 350 121.07 350.02 122.74H350.26C350.28 122.91 350.33 123.25 350.35 123.41C350.15 124.51 350.28 125.62 350.26 126.74H350.51C350.51 127.13 350.5 127.53 350.6 127.92C350.64 128.57 349.88 130.23 350.99 130.01L350.96 129.81C352.41 129.25 353.81 128.56 355.24 127.96C363.85 124.04 372.68 120.62 381.49 117.18C378.27 112.97 375.39 108.52 372.25 104.25C370.59 101.8 368.77 99.3401 366.21 97.7901C365.39 97.2901 364.5 96.7601 363.52 96.7301V96.4901C362.83 96.4901 361.45 96.4901 360.77 96.4901ZM408.77 109.26C403.53 111.18 398.18 112.88 393.02 115.02C393.49 119.19 394.32 123.33 395.06 127.46C395.97 127.95 396.96 128.58 398.05 128.49C398.24 129.05 399.3 128.83 399.76 128.62C399.88 128.62 400.13 128.61 400.25 128.6C400.7 128.83 401.74 129.03 401.97 128.49C404.64 128.27 406.89 126.26 408.51 124.25C411.94 119.44 412.8 113.45 413.48 107.74C411.82 107.86 410.37 108.89 408.75 109.27L408.77 109.26ZM390.59 115.82C388.68 116.6 386.7 117.22 384.8 118.05C386.57 120.92 389.2 123.46 391.83 125.66C392.32 125.92 393.59 127.19 392.63 125.08C392.11 122.08 391.53 119.09 391.2 116.05C391.07 115.76 390.87 115.68 390.59 115.82Z" fill="#F7F7F7"/>
<path d="M414.09 170.53C415.31 169.8 415.95 171.26 415.42 172.12C414.53 173.46 413.71 174.86 413.19 176.39C412.13 178.48 411.39 180.78 409.98 182.68C409.44 183.46 407.92 182.7 408.35 181.81C408.94 180.81 409.55 179.8 410.01 178.74C408 177.17 407.34 174.63 406.36 172.4C405.94 171.48 407.32 170.84 407.93 171.57C408.68 172.97 409 174.57 409.82 175.95C409.92 175.95 410.11 175.95 410.21 175.95C411.13 174.59 411.92 173.15 412.83 171.78C413.24 171.35 413.66 170.94 414.09 170.53Z" fill="#F7F7F7"/>
<path d="M476.26 83.47C478.38 83.62 480.49 83.94 482.61 84.12C483.97 84.08 485.83 85.31 485.17 86.88C484.41 88.64 483.36 90.26 482.51 91.98C481.95 92.86 481.55 94.27 480.27 94.03C479.71 93.73 479.58 93.25 479.88 92.59C481.11 90.77 482.05 88.78 483.15 86.88C483.34 86.59 483.32 86.16 482.94 86.06C481.43 85.72 479.86 85.65 478.32 85.5C477.53 85.3 476.57 85.41 476.05 84.68C475.95 84.27 475.99 83.82 476.25 83.48L476.26 83.47Z" fill="#F6F6F6"/>
<path d="M479.57 99.7601C480.25 99.5401 480.76 99.7001 481.11 100.24C480.84 101.46 479.93 102.39 479.3 103.44C480.6 104.3 481.99 105.04 483.21 106.03C483.73 106.63 483.1 107.78 482.3 107.45C480.93 106.69 479.65 105.8 478.3 105.01C477.49 106.14 476.82 107.37 475.98 108.48C474.78 109.11 474.39 108.06 474.5 107.25C475.36 106.27 476.13 105.21 476.72 104.05C475.86 103.33 474.55 102.9 474.27 101.72C474.18 101.39 474.4 100.96 474.78 100.99C475.97 100.81 476.67 102.09 477.72 102.47C478.47 101.67 478.88 100.62 479.57 99.7701V99.7601Z" fill="#F5F5F5"/>
<path d="M427.96 80.17C429.15 79.73 430.47 80.07 431.71 79.97L431.78 80.21C430.51 80.24 429.23 80.2 427.96 80.17Z" fill="#686767"/>
<path d="M468.57 95.0399C468.49 94.0699 468.53 93.1099 468.7 92.1699C468.76 93.1299 468.72 94.0799 468.57 95.0399Z" fill="#676767"/>
<path d="M376.8 31.5C377.13 30.77 377.76 29.77 378.7 30.04C380.92 31.28 382.22 33.58 383.69 35.57C384.71 37.03 382.19 37.59 382 36.24C381.57 35.6 381.01 35.07 380.56 34.44C380.09 33.53 379.32 32.83 378.54 32.18C378.41 32.75 378.15 33.89 378.02 34.46C377.72 35.94 377.48 37.44 377.52 38.97C377.94 39.71 377.22 40.99 376.33 40.69C375.75 40.13 375.28 39.34 375.53 38.47C375.76 36.12 376.11 33.76 376.81 31.5H376.8Z" fill="#F5F4F4"/>
<path d="M466.08 77.1599C466.43 77.9999 466.19 78.9099 466.19 79.7899C465.89 78.9499 466.05 78.0199 466.08 77.1599Z" fill="#656565"/>
<path d="M466.04 92.4301C466.07 92.1801 466.31 92.1201 466.76 92.2401C466.7 92.8601 466.59 94.1101 466.53 94.7301C466.22 94.0901 467.04 92.5601 466.05 92.4301H466.04Z" fill="#676666"/>
<path d="M466.35 80.4199C466.62 81.1799 466.46 81.9799 466.49 82.7799C466.43 82.6999 466.32 82.5299 466.26 82.4499C466.26 82.0299 466.26 81.6199 466.28 81.2099C466.3 81.0099 466.33 80.6199 466.35 80.4199Z" fill="#696969"/>
<path d="M468.51 86.24H468.76C468.74 86.92 468.71 87.61 468.68 88.3C468.48 87.63 468.5 86.91 468.51 86.24Z" fill="#C1C1C1"/>
<path d="M466.81 87.71C467.12 88.69 467.1 89.52 466.77 90.22C466.77 89.48 466.74 88.73 466.75 88.02L466.82 87.71H466.81Z" fill="#D7D7D7"/>
<path d="M350.02 117.73H350.27C350.27 119.39 350.27 121.06 350.27 122.73H350.03C350.01 121.05 350.01 119.39 350.03 117.73H350.02Z" fill="#BAB9B9"/>
</g>
<defs>
<clipPath id="clip0_10_34">
<rect width="202.56" height="85.1" fill="white"/>
</clipPath>
<clipPath id="clip1_10_34">
<rect width="84.85" height="90.06" fill="white" transform="translate(156 83)"/>
</clipPath>
<clipPath id="clip2_10_34">
<rect width="59.52" height="34.03" fill="white" transform="translate(261 16)"/>
</clipPath>
<clipPath id="clip3_10_34">
<rect width="154.31" height="153.01" fill="white" transform="translate(331 30)"/>
</clipPath>
</defs>
</svg>
