<svg width="22" height="22" viewBox="0 0 22 22" fill="none" xmlns="http://www.w3.org/2000/svg">
<g clip-path="url(#clip0_12_48)">
<path d="M13.2999 5.65767C13.4255 3.28717 15.0187 1.83333 16.5 1.83333V0.916667C14.6034 0.916667 12.5638 2.67758 12.3878 5.55317C12.0908 5.52933 11.781 5.51283 11.4583 5.5055V0H10.5417V5.5055C10.219 5.51283 9.90917 5.52933 9.61217 5.55317C9.43617 2.67758 7.39567 0.916667 5.5 0.916667V1.83333C6.98133 1.83333 8.57542 3.28717 8.70008 5.65767C3.52917 6.43408 2.75 9.96692 2.75 13.75C2.75 18.0354 3.74917 22 11 22C18.2508 22 19.25 18.0354 19.25 13.75C19.25 9.96692 18.4708 6.43408 13.2999 5.65767ZM18.3333 13.75C18.3333 14.9243 18.2499 15.983 18.0217 16.9061L14.9032 13.7876L18.0363 10.6544C18.2536 11.5638 18.3333 12.6014 18.3333 13.75ZM17.7237 9.67083L14.2551 13.1395L11.6462 10.5307L15.1058 7.07117C16.4322 7.62208 17.2462 8.50575 17.7237 9.67083ZM13.607 13.7876L10.9991 16.3955L8.39025 13.7867L10.9982 11.1788L13.607 13.7876ZM10.9982 9.88258L7.86683 6.75125C8.73217 6.53125 9.76708 6.41667 11 6.41667C12.2329 6.41667 13.2651 6.53125 14.1304 6.75033L10.9982 9.88258ZM6.8915 7.07208L10.3501 10.5307L7.74217 13.1386L4.27625 9.67267C4.75383 8.50758 5.566 7.623 6.8915 7.07208ZM3.66667 13.7491C3.66667 12.6014 3.7455 11.5647 3.96275 10.6562L7.09317 13.7867L3.97742 16.9024C3.74917 15.9793 3.66667 14.9224 3.66667 13.7491ZM4.29733 17.8787L7.74125 14.4347L10.3501 17.0436L6.94467 20.449C5.60817 19.9082 4.78408 19.0327 4.29733 17.8787ZM7.92733 20.7625L10.9982 17.6917L14.0699 20.7634C13.2174 20.9733 12.2036 21.0824 11 21.0824C9.79642 21.0824 8.78075 20.9724 7.92733 20.7625ZM15.0526 20.4499L11.6462 17.0436L14.2542 14.4357L17.7008 17.8823C17.2132 19.0364 16.3891 19.91 15.0526 20.4499Z" fill="#EB8B31"/>
</g>
<defs>
<clipPath id="clip0_12_48">
<rect width="22" height="22" fill="white"/>
</clipPath>
</defs>
</svg>
