<svg width="172" height="75" viewBox="0 0 172 75" fill="none" xmlns="http://www.w3.org/2000/svg">
<path d="M25.8725 7.2H20.1925V28H13.2725V7.2H7.5925V1.32H25.8725V7.2ZM44.1006 1.32V7.2H35.8606V11.64H43.6606V17.52H35.8606V22.12H44.1006V28H28.9406V1.32H44.1006ZM76.7509 14.68C76.7509 18.6267 75.3509 21.9467 72.5509 24.64C69.7776 27.28 66.2709 28.6 62.0309 28.6C57.7909 28.6 54.2843 27.28 51.5109 24.64C48.7109 21.9467 47.3109 18.6267 47.3109 14.68C47.3109 12.84 47.6576 11.04 48.3509 9.28C49.0709 7.52 50.1243 5.98667 51.5109 4.68C54.2843 2.04 57.7909 0.720001 62.0309 0.720001C66.2709 0.720001 69.7776 2.04 72.5509 4.68C73.9376 5.98667 74.9776 7.52 75.6709 9.28C76.3909 11.04 76.7509 12.84 76.7509 14.68ZM62.0309 7.44C59.8443 7.44 58.0443 8.14667 56.6309 9.56C55.2176 10.9467 54.5109 12.6933 54.5109 14.8C54.5109 16.7467 55.2176 18.4 56.6309 19.76C58.0976 21.1733 59.8976 21.88 62.0309 21.88C64.2176 21.88 66.0043 21.1867 67.3909 19.8C68.8309 18.36 69.5509 16.6533 69.5509 14.68C69.5509 12.6533 68.8309 10.9467 67.3909 9.56C65.8976 8.14667 64.1109 7.44 62.0309 7.44ZM92.4472 19.16H88.0872V28H81.1672V1.32H92.2072C95.0605 1.32 97.3139 2.12 98.9672 3.72C100.621 5.32 101.447 7.48 101.447 10.2C101.447 13.08 100.661 15.2933 99.0872 16.84C97.5139 18.3867 95.3005 19.16 92.4472 19.16ZM88.0872 6.92V13.56H90.4072C91.7405 13.56 92.7139 13.28 93.3272 12.72C93.9139 12.2133 94.2072 11.4 94.2072 10.28C94.2072 9.21333 93.9405 8.41333 93.4072 7.88C92.7939 7.24 91.8072 6.92 90.4472 6.92H88.0872ZM105.113 1.32H112.073V18.12L122.073 1.32H129.153V28H122.193V11.2L112.193 28H105.113V1.32ZM132.521 28L139.961 17.96C138.414 17.6933 137.094 17 136.001 15.88C134.614 14.4667 133.921 12.6 133.921 10.28C133.921 7.64 134.654 5.54666 136.121 4C137.801 2.21333 140.294 1.32 143.601 1.32H153.881V28H146.921V18.92H146.241L140.521 28H132.521ZM146.921 13.56V7.16H144.961C143.628 7.16 142.628 7.46667 141.961 8.08C141.348 8.64 141.041 9.4 141.041 10.36C141.041 11.32 141.321 12.08 141.881 12.64C142.521 13.2533 143.548 13.56 144.961 13.56H146.921ZM31.4189 43.68C31.4189 47.6267 30.0189 50.9467 27.2189 53.64C24.4456 56.28 20.9389 57.6 16.6989 57.6C12.4589 57.6 8.95224 56.28 6.17891 53.64C3.37891 50.9467 1.97891 47.6267 1.97891 43.68C1.97891 41.84 2.32557 40.04 3.01891 38.28C3.73891 36.52 4.79224 34.9867 6.17891 33.68C8.95224 31.04 12.4589 29.72 16.6989 29.72C20.9389 29.72 24.4456 31.04 27.2189 33.68C28.6056 34.9867 29.6456 36.52 30.3389 38.28C31.0589 40.04 31.4189 41.84 31.4189 43.68ZM16.6989 36.44C14.5122 36.44 12.7122 37.1467 11.2989 38.56C9.88557 39.9467 9.17891 41.6933 9.17891 43.8C9.17891 45.7467 9.88557 47.4 11.2989 48.76C12.7656 50.1733 14.5656 50.88 16.6989 50.88C18.8856 50.88 20.6722 50.1867 22.0589 48.8C23.4989 47.36 24.2189 45.6533 24.2189 43.68C24.2189 41.6533 23.4989 39.9467 22.0589 38.56C20.5656 37.1467 18.7789 36.44 16.6989 36.44ZM51.5952 36.2H45.9152V57H38.9952V36.2H33.3152V30.32H51.5952V36.2ZM65.9433 48.16H61.5833V57H54.6633V30.32H65.7033C68.5566 30.32 70.8099 31.12 72.4633 32.72C74.1166 34.32 74.9433 36.48 74.9433 39.2C74.9433 42.08 74.1566 44.2933 72.5833 45.84C71.0099 47.3867 68.7966 48.16 65.9433 48.16ZM61.5833 35.92V42.56H63.9033C65.2366 42.56 66.2099 42.28 66.8233 41.72C67.4099 41.2133 67.7033 40.4 67.7033 39.28C67.7033 38.2133 67.4366 37.4133 66.9033 36.88C66.2899 36.24 65.3033 35.92 63.9433 35.92H61.5833ZM101.209 57V30.32H108.169V57H101.209ZM78.6086 57V30.32H85.5686V40.72H88.9286C92.5553 40.72 95.2086 41.5467 96.8886 43.2C98.3019 44.5867 99.0086 46.4667 99.0086 48.84C99.0086 51.2133 98.3419 53.08 97.0086 54.44C95.3286 56.1467 92.5019 57 88.5286 57H78.6086ZM85.5686 51.64H88.2486C89.7153 51.64 90.7153 51.3733 91.2486 50.84C91.7286 50.36 91.9686 49.6933 91.9686 48.84C91.9686 47.9867 91.7153 47.3333 91.2086 46.88C90.6486 46.3467 89.6619 46.08 88.2486 46.08H85.5686V51.64ZM124.885 57H113.765V30.32H124.085C126.725 30.32 128.672 31.0133 129.925 32.4C131.018 33.6 131.565 35.2667 131.565 37.4C131.565 38.5733 131.312 39.6667 130.805 40.68C130.272 41.6667 129.552 42.36 128.645 42.76C130.138 42.92 131.352 43.4533 132.285 44.36C133.485 45.5067 134.085 47.1333 134.085 49.24C134.085 51.4267 133.432 53.1733 132.125 54.48C130.498 56.16 128.085 57 124.885 57ZM120.685 35.64V40.84H121.965C123.192 40.84 124.072 40.56 124.605 40C125.032 39.5733 125.245 38.9867 125.245 38.24C125.245 37.52 125.032 36.92 124.605 36.44C124.072 35.9067 123.192 35.64 121.965 35.64H120.685ZM120.685 46V51.6H122.245C124.485 51.6 125.912 51.24 126.525 50.52C126.898 50.0933 127.085 49.52 127.085 48.8C127.085 47.9733 126.858 47.3333 126.405 46.88C125.818 46.2933 124.392 46 122.125 46H120.685ZM155.943 57L154.303 52.52H144.623L142.823 57H135.503L145.743 30.32H153.303L163.343 57H155.943ZM146.543 47.24H152.463L149.463 38.6L146.543 47.24Z" fill="url(#paint0_linear_3_9)"/>
<path d="M3.08392 66.562H1.87992V71H1.26392V61.662H3.06992C3.86325 61.662 4.51658 61.8767 5.02992 62.306C5.54325 62.726 5.79992 63.3233 5.79992 64.098C5.79992 64.8633 5.55258 65.4653 5.05792 65.904C4.56325 66.3427 3.90525 66.562 3.08392 66.562ZM1.87992 62.222V66.002H3.11192C3.72792 66.002 4.22258 65.834 4.59592 65.498C4.96925 65.1527 5.15592 64.6907 5.15592 64.112C5.15592 63.524 4.96458 63.062 4.58192 62.726C4.20858 62.39 3.68592 62.222 3.01392 62.222H1.87992ZM11.3201 66.282V65.288H11.8801V71H11.3201V69.978C10.8067 70.762 10.0647 71.154 9.09407 71.154C8.31941 71.154 7.66141 70.8787 7.12007 70.328C6.57874 69.7773 6.30807 69.0493 6.30807 68.144C6.30807 67.2573 6.56474 66.5387 7.07807 65.988C7.59141 65.4373 8.26341 65.162 9.09407 65.162C10.0461 65.162 10.7881 65.5353 11.3201 66.282ZM9.12207 65.694C8.51541 65.694 7.99274 65.9133 7.55407 66.352C7.11541 66.7813 6.89607 67.3647 6.89607 68.102C6.89607 68.7833 7.09674 69.376 7.49807 69.88C7.89941 70.3747 8.44541 70.622 9.13607 70.622C9.81741 70.622 10.3541 70.3793 10.7461 69.894C11.1474 69.3993 11.3481 68.802 11.3481 68.102C11.3481 67.3273 11.1194 66.7347 10.6621 66.324C10.2047 65.904 9.69141 65.694 9.12207 65.694ZM14.3528 66.492L13.8908 66.17C14.2828 65.498 14.8848 65.162 15.6968 65.162C16.2475 65.162 16.6675 65.2973 16.9568 65.568C17.2648 65.8387 17.4188 66.2073 17.4188 66.674C17.4188 67.234 17.1995 67.6307 16.7608 67.864C17.0128 67.92 17.2368 68.046 17.4328 68.242C17.7035 68.5127 17.8388 68.8767 17.8388 69.334C17.8388 69.922 17.6148 70.3887 17.1668 70.734C16.7935 71.014 16.3081 71.154 15.7108 71.154C15.0948 71.154 14.5955 71.0093 14.2128 70.72C13.9048 70.468 13.6761 70.1927 13.5268 69.894L14.0308 69.572C14.1708 69.88 14.3715 70.1227 14.6328 70.3C14.9221 70.5147 15.2815 70.622 15.7108 70.622C16.1868 70.622 16.5508 70.5147 16.8028 70.3C17.1015 70.0573 17.2508 69.7307 17.2508 69.32C17.2508 68.956 17.1201 68.676 16.8588 68.48C16.6348 68.312 16.2848 68.228 15.8088 68.228H15.2208V67.696H15.6548C16.0188 67.696 16.3035 67.6167 16.5088 67.458C16.7421 67.2713 16.8588 67.0287 16.8588 66.73C16.8588 66.4313 16.7608 66.184 16.5648 65.988C16.3501 65.792 16.0561 65.694 15.6828 65.694C15.0855 65.694 14.6421 65.96 14.3528 66.492ZM19.4963 65.288H21.3583C21.8903 65.288 22.2963 65.4 22.5763 65.624C22.9123 65.8947 23.0803 66.2587 23.0803 66.716C23.0803 67.2387 22.8703 67.6353 22.4503 67.906C22.7116 67.9433 22.9449 68.0507 23.1503 68.228C23.4769 68.5173 23.6403 68.9 23.6403 69.376C23.6403 69.908 23.4489 70.3187 23.0663 70.608C22.7303 70.8693 22.2636 71 21.6663 71H19.4963V65.288ZM20.0563 67.78H21.3583C21.7036 67.78 21.9743 67.7007 22.1703 67.542C22.4036 67.3553 22.5203 67.1033 22.5203 66.786C22.5203 66.478 22.4036 66.2307 22.1703 66.044C21.9836 65.8947 21.7129 65.82 21.3583 65.82H20.0563V67.78ZM20.0563 70.468H21.6663C22.0956 70.468 22.4223 70.384 22.6463 70.216C22.9169 70.0107 23.0523 69.726 23.0523 69.362C23.0523 69.026 22.9263 68.76 22.6743 68.564C22.4503 68.396 22.1143 68.312 21.6663 68.312H20.0563V70.468ZM29.2972 65.288V71H28.7372V65.82H26.1052V69.124C26.1052 69.7493 25.9932 70.2113 25.7692 70.51C25.5172 70.8553 25.1532 71.028 24.6772 71.028C24.6212 71.028 24.5278 71.0187 24.3972 71V70.468C24.4905 70.4867 24.5605 70.496 24.6072 70.496C24.9245 70.496 25.1718 70.37 25.3492 70.118C25.4798 69.9127 25.5452 69.5813 25.5452 69.124V65.288H29.2972ZM36.4188 68.214H31.5328C31.5328 68.9233 31.7521 69.502 32.1908 69.95C32.6388 70.398 33.1754 70.622 33.8008 70.622C34.2488 70.622 34.6454 70.5053 34.9908 70.272C35.3361 70.0293 35.6021 69.712 35.7888 69.32L36.2648 69.6C36.0501 70.0107 35.7374 70.3747 35.3268 70.692C34.9161 71 34.3934 71.154 33.7588 71.154C32.8908 71.154 32.2048 70.874 31.7008 70.314C31.1968 69.7447 30.9448 69.0307 30.9448 68.172C30.9448 67.2293 31.2154 66.492 31.7568 65.96C32.3074 65.428 32.9608 65.162 33.7168 65.162C34.4914 65.162 35.1354 65.4467 35.6488 66.016C36.1621 66.5853 36.4188 67.318 36.4188 68.214ZM31.5748 67.682H35.8308C35.7561 67.1033 35.5228 66.6273 35.1308 66.254C34.7481 65.8807 34.2768 65.694 33.7168 65.694C33.1474 65.694 32.6668 65.8853 32.2748 66.268C31.8828 66.6413 31.6494 67.1127 31.5748 67.682ZM38.0764 65.288H38.6364V68.004L41.5204 65.288H42.2764L39.3644 68.004L42.5004 71H41.6884L38.9444 68.382L38.6364 68.676V71H38.0764V65.288ZM47.9744 66.282V65.288H48.5344V71H47.9744V69.978C47.461 70.762 46.719 71.154 45.7484 71.154C44.9737 71.154 44.3157 70.8787 43.7744 70.328C43.233 69.7773 42.9624 69.0493 42.9624 68.144C42.9624 67.2573 43.219 66.5387 43.7324 65.988C44.2457 65.4373 44.9177 65.162 45.7484 65.162C46.7004 65.162 47.4424 65.5353 47.9744 66.282ZM45.7764 65.694C45.1697 65.694 44.647 65.9133 44.2084 66.352C43.7697 66.7813 43.5504 67.3647 43.5504 68.102C43.5504 68.7833 43.751 69.376 44.1524 69.88C44.5537 70.3747 45.0997 70.622 45.7904 70.622C46.4717 70.622 47.0084 70.3793 47.4004 69.894C47.8017 69.3993 48.0024 68.802 48.0024 68.102C48.0024 67.3273 47.7737 66.7347 47.3164 66.324C46.859 65.904 46.3457 65.694 45.7764 65.694ZM51.6371 71V65.82H49.6491V65.288H54.1851V65.82H52.1971V71H51.6371ZM60.1121 68.214H55.2261C55.2261 68.9233 55.4455 69.502 55.8841 69.95C56.3321 70.398 56.8688 70.622 57.4941 70.622C57.9421 70.622 58.3388 70.5053 58.6841 70.272C59.0295 70.0293 59.2955 69.712 59.4821 69.32L59.9581 69.6C59.7435 70.0107 59.4308 70.3747 59.0201 70.692C58.6095 71 58.0868 71.154 57.4521 71.154C56.5841 71.154 55.8981 70.874 55.3941 70.314C54.8901 69.7447 54.6381 69.0307 54.6381 68.172C54.6381 67.2293 54.9088 66.492 55.4501 65.96C56.0008 65.428 56.6541 65.162 57.4101 65.162C58.1848 65.162 58.8288 65.4467 59.3421 66.016C59.8555 66.5853 60.1121 67.318 60.1121 68.214ZM55.2681 67.682H59.5241C59.4495 67.1033 59.2161 66.6273 58.8241 66.254C58.4415 65.8807 57.9701 65.694 57.4101 65.694C56.8408 65.694 56.3601 65.8853 55.9681 66.268C55.5761 66.6413 55.3428 67.1127 55.2681 67.682ZM65.7737 65.288V71H65.2137V65.82H62.5817V69.124C62.5817 69.7493 62.4697 70.2113 62.2457 70.51C61.9937 70.8553 61.6297 71.028 61.1537 71.028C61.0977 71.028 61.0044 71.0187 60.8737 71V70.468C60.9671 70.4867 61.0371 70.496 61.0837 70.496C61.4011 70.496 61.6484 70.37 61.8257 70.118C61.9564 69.9127 62.0217 69.5813 62.0217 69.124V65.288H65.7737ZM67.7853 65.288H68.3453V67.668H69.7033C70.3567 67.668 70.842 67.8453 71.1593 68.2C71.43 68.4987 71.5653 68.8767 71.5653 69.334C71.5653 69.8473 71.3973 70.258 71.0613 70.566C70.7533 70.8553 70.296 71 69.6893 71H67.7853V65.288ZM68.3453 70.468H69.6893C70.0813 70.468 70.38 70.3793 70.5853 70.202C70.8467 69.9873 70.9773 69.698 70.9773 69.334C70.9773 68.9513 70.842 68.6573 70.5713 68.452C70.3473 68.284 70.044 68.2 69.6613 68.2H68.3453V70.468ZM72.8029 71V65.288H73.3629V67.808H76.5829V65.288H77.1429V71H76.5829V68.34H73.3629V71H72.8029ZM79.6503 66.03C80.229 65.4513 80.943 65.162 81.7923 65.162C82.6417 65.162 83.351 65.4513 83.9203 66.03C84.499 66.5993 84.7883 67.3087 84.7883 68.158C84.7883 69.0073 84.499 69.7213 83.9203 70.3C83.351 70.8693 82.6417 71.154 81.7923 71.154C80.943 71.154 80.229 70.8693 79.6503 70.3C79.081 69.7213 78.7963 69.0073 78.7963 68.158C78.7963 67.3087 79.081 66.5993 79.6503 66.03ZM80.0703 69.908C80.537 70.384 81.111 70.622 81.7923 70.622C82.4737 70.622 83.043 70.384 83.5003 69.908C83.967 69.432 84.2003 68.8487 84.2003 68.158C84.2003 67.4673 83.967 66.884 83.5003 66.408C83.043 65.932 82.4737 65.694 81.7923 65.694C81.111 65.694 80.537 65.932 80.0703 66.408C79.613 66.884 79.3843 67.4673 79.3843 68.158C79.3843 68.8487 79.613 69.432 80.0703 69.908ZM91.5438 68.214H86.6578C86.6578 68.9233 86.8771 69.502 87.3158 69.95C87.7638 70.398 88.3004 70.622 88.9258 70.622C89.3738 70.622 89.7704 70.5053 90.1158 70.272C90.4611 70.0293 90.7271 69.712 90.9138 69.32L91.3898 69.6C91.1751 70.0107 90.8624 70.3747 90.4518 70.692C90.0411 71 89.5184 71.154 88.8838 71.154C88.0158 71.154 87.3298 70.874 86.8258 70.314C86.3218 69.7447 86.0698 69.0307 86.0698 68.172C86.0698 67.2293 86.3404 66.492 86.8818 65.96C87.4324 65.428 88.0858 65.162 88.8418 65.162C89.6164 65.162 90.2604 65.4467 90.7738 66.016C91.2871 66.5853 91.5438 67.318 91.5438 68.214ZM86.6998 67.682H90.9558C90.8811 67.1033 90.6478 66.6273 90.2558 66.254C89.8731 65.8807 89.4018 65.694 88.8418 65.694C88.2724 65.694 87.7918 65.8853 87.3998 66.268C87.0078 66.6413 86.7744 67.1127 86.6998 67.682ZM96.4689 71V65.288H100.725V71H100.165V65.82H97.0289V71H96.4689ZM103.304 69.978V74.22H102.744V65.288H103.304V66.282C103.855 65.5353 104.602 65.162 105.544 65.162C106.384 65.162 107.056 65.442 107.56 66.002C108.064 66.5527 108.316 67.2527 108.316 68.102C108.316 68.97 108.06 69.698 107.546 70.286C107.042 70.8647 106.366 71.154 105.516 71.154C105.087 71.154 104.7 71.07 104.354 70.902C104.009 70.7247 103.771 70.566 103.64 70.426C103.51 70.2767 103.398 70.1273 103.304 69.978ZM103.864 69.908C104.256 70.384 104.802 70.622 105.502 70.622C106.202 70.622 106.748 70.384 107.14 69.908C107.532 69.432 107.728 68.83 107.728 68.102C107.728 67.346 107.514 66.758 107.084 66.338C106.655 65.9087 106.132 65.694 105.516 65.694C104.91 65.694 104.382 65.904 103.934 66.324C103.496 66.744 103.276 67.3273 103.276 68.074C103.276 68.8113 103.472 69.4227 103.864 69.908ZM110.453 66.03C111.032 65.4513 111.746 65.162 112.595 65.162C113.444 65.162 114.154 65.4513 114.723 66.03C115.302 66.5993 115.591 67.3087 115.591 68.158C115.591 69.0073 115.302 69.7213 114.723 70.3C114.154 70.8693 113.444 71.154 112.595 71.154C111.746 71.154 111.032 70.8693 110.453 70.3C109.884 69.7213 109.599 69.0073 109.599 68.158C109.599 67.3087 109.884 66.5993 110.453 66.03ZM110.873 69.908C111.34 70.384 111.914 70.622 112.595 70.622C113.276 70.622 113.846 70.384 114.303 69.908C114.77 69.432 115.003 68.8487 115.003 68.158C115.003 67.4673 114.77 66.884 114.303 66.408C113.846 65.932 113.276 65.694 112.595 65.694C111.914 65.694 111.34 65.932 110.873 66.408C110.416 66.884 110.187 67.4673 110.187 68.158C110.187 68.8487 110.416 69.432 110.873 69.908ZM121.815 65.89V66.632C121.273 66.0067 120.615 65.694 119.841 65.694C119.15 65.694 118.581 65.932 118.133 66.408C117.685 66.8747 117.461 67.4627 117.461 68.172C117.461 68.9373 117.699 69.5393 118.175 69.978C118.651 70.4073 119.197 70.622 119.813 70.622C120.569 70.622 121.259 70.2813 121.885 69.6V70.356C121.287 70.888 120.592 71.154 119.799 71.154C118.94 71.154 118.235 70.874 117.685 70.314C117.143 69.7447 116.873 69.0353 116.873 68.186C116.873 67.318 117.143 66.5993 117.685 66.03C118.226 65.4513 118.945 65.162 119.841 65.162C120.578 65.162 121.236 65.4047 121.815 65.89ZM124.522 71V65.82H122.534V65.288H127.07V65.82H125.082V71H124.522ZM128.748 69.978V74.22H128.188V65.288H128.748V66.282C129.298 65.5353 130.045 65.162 130.988 65.162C131.828 65.162 132.5 65.442 133.004 66.002C133.508 66.5527 133.76 67.2527 133.76 68.102C133.76 68.97 133.503 69.698 132.99 70.286C132.486 70.8647 131.809 71.154 130.96 71.154C130.53 71.154 130.143 71.07 129.798 70.902C129.452 70.7247 129.214 70.566 129.084 70.426C128.953 70.2767 128.841 70.1273 128.748 69.978ZM129.308 69.908C129.7 70.384 130.246 70.622 130.946 70.622C131.646 70.622 132.192 70.384 132.584 69.908C132.976 69.432 133.172 68.83 133.172 68.102C133.172 67.346 132.957 66.758 132.528 66.338C132.098 65.9087 131.576 65.694 130.96 65.694C130.353 65.694 129.826 65.904 129.378 66.324C128.939 66.744 128.72 67.3273 128.72 68.074C128.72 68.8113 128.916 69.4227 129.308 69.908ZM140.054 66.282V65.288H140.614V71H140.054V69.978C139.541 70.762 138.799 71.154 137.828 71.154C137.054 71.154 136.396 70.8787 135.854 70.328C135.313 69.7773 135.042 69.0493 135.042 68.144C135.042 67.2573 135.299 66.5387 135.812 65.988C136.326 65.4373 136.998 65.162 137.828 65.162C138.78 65.162 139.522 65.5353 140.054 66.282ZM137.856 65.694C137.25 65.694 136.727 65.9133 136.288 66.352C135.85 66.7813 135.63 67.3647 135.63 68.102C135.63 68.7833 135.831 69.376 136.232 69.88C136.634 70.3747 137.18 70.622 137.87 70.622C138.552 70.622 139.088 70.3793 139.48 69.894C139.882 69.3993 140.082 68.802 140.082 68.102C140.082 67.3273 139.854 66.7347 139.396 66.324C138.939 65.904 138.426 65.694 137.856 65.694ZM142.625 71V65.288H143.185V67.808H146.405V65.288H146.965V71H146.405V68.34H143.185V71H142.625ZM153.561 65.89V66.632C153.019 66.0067 152.361 65.694 151.587 65.694C150.896 65.694 150.327 65.932 149.879 66.408C149.431 66.8747 149.207 67.4627 149.207 68.172C149.207 68.9373 149.445 69.5393 149.921 69.978C150.397 70.4073 150.943 70.622 151.559 70.622C152.315 70.622 153.005 70.2813 153.631 69.6V70.356C153.033 70.888 152.338 71.154 151.545 71.154C150.686 71.154 149.981 70.874 149.431 70.314C148.889 69.7447 148.619 69.0353 148.619 68.186C148.619 67.318 148.889 66.5993 149.431 66.03C149.972 65.4513 150.691 65.162 151.587 65.162C152.324 65.162 152.982 65.4047 153.561 65.89ZM156.268 71V65.82H154.28V65.288H158.816V65.82H156.828V71H156.268ZM159.934 65.288H161.796C162.328 65.288 162.734 65.4 163.014 65.624C163.35 65.8947 163.518 66.2587 163.518 66.716C163.518 67.2387 163.308 67.6353 162.888 67.906C163.149 67.9433 163.382 68.0507 163.588 68.228C163.914 68.5173 164.078 68.9 164.078 69.376C164.078 69.908 163.886 70.3187 163.504 70.608C163.168 70.8693 162.701 71 162.104 71H159.934V65.288ZM160.494 67.78H161.796C162.141 67.78 162.412 67.7007 162.608 67.542C162.841 67.3553 162.958 67.1033 162.958 66.786C162.958 66.478 162.841 66.2307 162.608 66.044C162.421 65.8947 162.15 65.82 161.796 65.82H160.494V67.78ZM160.494 70.468H162.104C162.533 70.468 162.86 70.384 163.084 70.216C163.354 70.0107 163.49 69.726 163.49 69.362C163.49 69.026 163.364 68.76 163.112 68.564C162.888 68.396 162.552 68.312 162.104 68.312H160.494V70.468ZM166.221 66.03C166.799 65.4513 167.513 65.162 168.363 65.162C169.212 65.162 169.921 65.4513 170.491 66.03C171.069 66.5993 171.359 67.3087 171.359 68.158C171.359 69.0073 171.069 69.7213 170.491 70.3C169.921 70.8693 169.212 71.154 168.363 71.154C167.513 71.154 166.799 70.8693 166.221 70.3C165.651 69.7213 165.367 69.0073 165.367 68.158C165.367 67.3087 165.651 66.5993 166.221 66.03ZM166.641 69.908C167.107 70.384 167.681 70.622 168.363 70.622C169.044 70.622 169.613 70.384 170.071 69.908C170.537 69.432 170.771 68.8487 170.771 68.158C170.771 67.4673 170.537 66.884 170.071 66.408C169.613 65.932 169.044 65.694 168.363 65.694C167.681 65.694 167.107 65.932 166.641 66.408C166.183 66.884 165.955 67.4673 165.955 68.158C165.955 68.8487 166.183 69.432 166.641 69.908Z" fill="white"/>
<defs>
<linearGradient id="paint0_linear_3_9" x1="77.8771" y1="22.8947" x2="226.115" y2="83.922" gradientUnits="userSpaceOnUse">
<stop stop-color="#E92A84"/>
<stop offset="1" stop-color="#E0F71E"/>
</linearGradient>
</defs>
</svg>
